<svg id="Layer_1" data-name="Layer 1" xmlns="http://www.w3.org/2000/svg" viewBox="0 0 361.77 795.38"><defs><style>.cls-1{fill:#fff;}</style></defs><title>adult</title><path class="cls-1" d="M641.48,424.32c-6-67.79-26.32-175.76-113-178.92C596.24,188.54,554.59,74,466.21,74.07c-88.62,0-130.5,113.37-62.92,171.1-81.65,2.88-104.41,101.6-111.58,166.32-4.94,44.6-29.68,223.83,62,194,0,65.14-4.29,131.9,0,196.88C357.45,859,424.59,895,466,846.19c43.27,51,108.44,10.24,112.34-46.2,4.43-64.13,0-130.12,0-194.44,89.38,29.05,67-138,63.16-181.24h0Zm-76.61,238c-1,19.19-24.51,28.76-38.71,16.33v98.13c0,10.67,1.4,22.44,0,33-4.11,31-46.55,46.82-61.51,12.93-14.85,33.63-57.39,18.23-61.51-12.93-1.4-10.6,0-22.39,0-33V678.63c-27.72,24.25-39.05-18.05-39.59-37.2-0.87-30.83-.57-62.48,5.7-92.81,10.38-50.25,34.39-70.79,83.84-70.79-56.33-12.72-51.27-96.48,5.78-102.87,63.82-7.15,79.76,88.68,17.33,102.87,35.57,0,60,5,75.48,41.82,18.21,43.42,15.69,96.73,13.21,142.64C564.21,674.69,565.65,648,564.88,662.3Z" transform="translate(-284.98 -74.07)"/></svg>