<?xml version="1.0" encoding="utf-8"?>
<!-- Generator: Adobe Illustrator 19.2.1, SVG Export Plug-In . SVG Version: 6.00 Build 0)  -->
<svg version="1.1" xmlns="http://www.w3.org/2000/svg" xmlns:xlink="http://www.w3.org/1999/xlink" x="0px" y="0px"
	 viewBox="0 0 1300 1300" style="enable-background:new 0 0 1300 1300;" xml:space="preserve">
<style type="text/css">
	.st0{fill:#FFFFFF;}
</style>
<g id="Shadow">
</g>
<g id="Shapes">
	<g>
		<path class="st0" d="M872.1,151.8V68.6c0-3.4-2.7-6.1-6.1-6.1H649.2H590H434c-3.4,0-6.1,2.7-6.1,6.1v83.2c0,0-119-49.3-212.6,39.1
			c-78.9,74.4-89.7,245.2,6.9,335.1c54.8,51,53.7,85.8,55.1,124.7h77.3V805H415V650.6h214.1V805h55.6V650.6h214.1V805h60.4V650.6
			h63.4c1.4-38.9,0.3-73.7,55.1-124.7c96.7-89.9,85.8-260.7,7-335.1C991.1,102.5,872.1,151.8,872.1,151.8z M502.8,325.3
			c-11.5,33.3-47,72.9-82.4,89.5c-25.4,11.9-36.6,26.6-41.5,36.4c-3.1,6.2-9,11-15.8,10c-138-19.5-121.6-179.8-43.3-209.1
			c94.9-35.6,158.5,27.1,178.9,51.8C503.7,309.9,505.3,318,502.8,325.3z M936.9,461.3c-6.8,1-12.7-3.9-15.8-10
			c-4.9-9.9-16.1-24.5-41.5-36.4c-35.4-16.6-70.9-56.2-82.4-89.5c-2.5-7.3-0.9-15.4,4.1-21.4c20.5-24.7,84-87.4,179-51.8
			C1058.5,281.5,1074.9,441.8,936.9,461.3z"/>
		<path class="st0" d="M488.8,724.3v154.4h-142c27.4,72,74.4,168.6,153.8,270.7l-89.5,53c-3.2,1.9-5.2,5.4-5.2,9.2v19.7
			c0,3.4,2.7,6.1,6.1,6.1H590h59.1H888c3.4,0,6.1-2.7,6.1-6.1v-19.7c0-3.8-2-7.3-5.2-9.2l-89.5-53
			c79.4-102.1,126.5-198.8,153.9-270.7H825.1V724.3h-66.6v154.4H555.4V724.3H488.8z"/>
	</g>
</g>
</svg>
