<?xml version="1.0" encoding="utf-8"?>
<!-- Generator: Adobe Illustrator 19.2.1, SVG Export Plug-In . SVG Version: 6.00 Build 0)  -->
<svg version="1.1" id="Layer_1" xmlns="http://www.w3.org/2000/svg" xmlns:xlink="http://www.w3.org/1999/xlink" x="0px" y="0px"
	 viewBox="0 0 1080 1080" style="enable-background:new 0 0 1080 1080;" xml:space="preserve">
<style type="text/css">
	.st0{fill:#FFFFFF;}
</style>
<g>
	<path class="st0" d="M283.6,322.1c23.9,6.4,48.2,11.4,71.6,19.3c56.6,19,103.8,51.9,140,101c28.5,38.6,44.1,81.5,46.9,128.4
		c3.3,55.1-9.6,106.5-38.2,153.1c-40.4,65.6-114.2,103.3-191.8,82.5c-38.5-10.3-70.6-30.8-92.2-64.9c-13.1-20.7-22.9-43.6-33-66.1
		c-12.9-28.5-28.3-54.1-58.9-66.6c-5.9-2.4-9.4-2.7-13.3,2.9c-7.7,11.2-16.4,21.7-24.4,32.8c-4.7,6.4-10.6,9.1-17.7,5.2
		c-7.2-4-7.7-10.8-5.1-18.1c5-13.6,9.4-27.4,14.8-40.8c2.4-6,1.9-10.2-2.2-15.6C57,544.4,45.7,509.4,51.1,472
		c10.6-74.2,56-119,124.2-141.6c24.9-8.3,52.7-9.9,66.4-38.2c3.9-8.1,12-11.4,22.3-5.3c10,6,18.8,11.2,13.7,24.9
		c-0.8,2.1-0.8,4.5-1.3,7.8C279.3,320.6,281.4,321.5,283.6,322.1z M155.1,359.7c-33.1,17.4-60,41.8-74.6,77.6
		c-18,44.2-14.5,87.3,16,125.8c8.9,11.2,24.2,17.3,36.6,25.8c14.2,9.8,31.1,17.4,41.7,30.2c13.9,16.9,23.8,37.5,33.6,57.4
		c12.8,25.9,21.9,53.5,44.1,74.1c42.3,39.2,90.6,50.6,143.9,34.6c57.5-17.2,90.7-60.3,110.8-114.5c26.1-70.1,21.3-139.4-19.1-204.5
		c-31.3-50.5-78.1-82.4-132.3-103.8c-25.5-10.1-51.3-17.7-78.2-21.4c-7.5-1-9.8,1.5-12.2,7.7c-5.8,14.9-12.4,29.4-18.5,44.2
		c-3.3,8-7.9,10.1-15.9,5.2c-11.8-7.2-24-14-36.2-20.6c-7.1-3.8-8.3-8.2-4.1-14.8c3.2-5.1,5.8-10.6,8.7-16c-0.6-1.1-1.2-2.3-1.8-3.4
		C183.3,348.7,168.4,352.7,155.1,359.7z"/>
	<path class="st0" d="M337.5,182.2c-10.2,4.1-21.1,7-30.3,12.7c-15.1,9.4-30.1,19.5-43.3,31.4c-10.7,9.6-11.8,24.2-9.4,38.4
		c2.5,15,16.1,18.5,26.7,22.5c10.7,4.1,21-3,27.6-11.2c4.9-6.2,8.3-14.6,9.7-22.6c3.9-23.8,1.3-49.6,22.7-67.7
		C339.9,184.6,338.7,183.4,337.5,182.2z"/>
	<path class="st0" d="M211.9,458c5.8-10.8,11-20.9,16.7-30.8c3.6-6.2,2.8-10.6-3.6-14.2c-13.1-7.3-26.2-14.7-39.2-22.2
		c-6.1-3.5-9.9-1.7-12.7,4.2c-16.1,33.1-32.2,66.2-48.3,99.4c-4.8,9.9-2.7,17.6,7.7,22.7c4.1,2,8,4.6,12,6.9
		c17.9,10.2,21.4,9.5,32-7.5C188.5,496.9,200.3,477.1,211.9,458z"/>
</g>
<path class="st0" d="M437.6,657c-18.5-10.2-43.7-2.9-53.2,15.4c-9.3,17.7-0.9,44.5,17,54.4c18.2,10,44.2,2.8,53.7-14.9
	C464.9,693.2,456.8,667.5,437.6,657z"/>
<path class="st0" d="M336.7,384.5c-19.4-10.8-42.6-4.4-52.8,14.5c-10.1,18.7-2.8,43.4,15.9,54.2c19,10.9,44.1,3.9,54-15.1
	C363.6,419,356.1,395.3,336.7,384.5z"/>
<path class="st0" d="M350.3,736.7c11-20.2,4.7-43.5-14.8-54.5c-18.3-10.3-43.5-3.1-53.2,15.3c-9.8,18.5-2.5,43.7,15.7,54.3
	C316.8,762.7,339.6,756.2,350.3,736.7z"/>
<path class="st0" d="M382.7,459.8c-10.9,20-4.9,42.1,14.5,53.5c19.8,11.6,42.6,5.4,53.5-14.4c10.3-18.8,3.4-42.7-15.6-53.7
	C415.7,434,393.3,440.2,382.7,459.8z"/>
<g>
	<path class="st0" d="M970.1,594.2c-2.6-2.3-4.1-6.9-4.2-10.5c-1.1-56.4,1.7-112.8-5.8-169.1c-1.7-13.1-5.4-22.2-16.1-28.9
		c-3.7-2.3-7.3-5-11.1-7.2c-13.7-7.6-21.9-17.6-17.5-34.5c0.4-1.7-0.5-4.4-1.8-5.8c-5.2-5.9-19.6-7.4-26.8-4.5
		c-8.2,3.3-17,7.3-25.5,7.2c-20.4-0.1-36.2,4.7-42.3,26.7c-1.8,6.6-6.8,7.1-12,2.9c-3.2-2.5-6.4-5-9.4-7.7
		c-23.7-20.8-46.8-42.5-76.4-55.3c-13.8-6-13.5-6.6-18.9,6.8c-2.4,0.3-5,0.6-7.5,0.8c-17.2,1.4-34.4,8.4-51.1-3.6
		c-4.5-3.2-10.8-0.9-13.9,6.2c-1.9,4.2-6.4,9.1-10.7,10.1c-9,2.3-14.9,6.7-18.9,14.9c-2.9,5.9-7.2,11.1-10.4,16.9
		c-3.7,6.5-8.4,9.2-16.2,7.8c-13.7-2.4-27.5-5.2-41.3-5.2c-16.5,0.1-33.2,1.7-49.3,5.1c-4,0.8-8,1.7-12,2.6
		c15.5,14.4,29.7,30.3,42.6,47.8c35,47.4,54.6,101,58,159.1c3.9,66.1-11.1,128.1-44.7,184.4c4.5-0.6,9-1.1,13.6-1.7
		c34.5-4.6,68.9-10.2,104-15.5c-0.6-2.4-0.9-4.1-1.6-5.8c-12.4-31.8-14.5-64.3-6.5-97.4c25.7-106.1,150.6-157.5,239.1-98.2
		c3.7,2.5,5.9,7.3,8.7,11.1c-5.3,0.4-10.7,1.1-16,0.9c-1.9,0-3.8-2.1-5.7-3.2c-15.4-9.6-32.2-13.9-50.3-13.8
		c-37.8,0.2-70,14.5-98.7,38.1c-47.4,38.9-68,110-46,164.5c5,12.5,13.4,24.8,23.3,33.8c33.9,30.9,73.4,53.8,115,73
		c17.6,8.1,36.3,11.4,55.8,10.1c59.1-4.1,101.3-34.7,130-84.6C1025.2,713.9,1019.7,637.9,970.1,594.2z M718.5,431
		c-12.2,3.4-24.9,4.8-35.3,6.6c-17.5,0.2-30.6-10.8-33.1-26c-2.3-13.5,5.6-28.3,19.5-32.3c13-3.7,26.7-6.1,40.3-6.9
		c14.5-0.9,27,11.2,29.4,25.7C741.7,412.3,733.1,427,718.5,431z M884.1,822.6c-58.2,16.2-110.1-17.7-119.4-78
		c-10.7-69.8,48.6-143.9,119-148.5c2.2-0.1,4.4-0.2,5.5-0.2c46.9,0.2,84.5,33.3,91.2,79.3C989.7,739.3,946.7,805.1,884.1,822.6z"/>
</g>
<path class="st0" d="M422.4,566c-10.7,19.4-4,42,15.6,53.5c18.8,10.9,43.3,4.8,53.3-13.3c10.5-19,3.2-43.2-16.3-54.6
	C455.8,540.4,433,546.7,422.4,566z"/>
<g>
	<path class="st0" d="M339.2,184.1c-21.7,6.5-42.1,17.3-59.6,31.7c-6.6,5.4-12.8,11.4-16.9,18.8c-4.2,7.4-6,16.4-3.5,24.5
		c1.1,3.5,3,6.8,5.8,9.1c2.3,1.9,5,3,7.8,3.9c7.5,2.5,15.9,3.4,23,0c8.8-4.2,13.5-13.9,15.5-23.4s2-19.4,4.5-28.7
		c3.5-13.1,12-24.7,23.4-32"/>
</g>
<g>
	<path class="st0" d="M86.5,583.1c-4.5,13.6-8.9,27.3-13,41.1c-1.4,4.6-2.8,9.5-1.5,14.1s6.3,8.6,10.8,6.8c2.7-1.1,4.4-3.8,5.9-6.3
		c8.2-13.3,18.6-25.4,30.6-35.4"/>
</g>
<g>
	<path class="st0" d="M449.5,781.8c53.2-25.1,72.6-79.2,86.6-136.3"/>
</g>
<g>
	<path class="st0" d="M224.2,322.5c-11.9,10.4-21.8,23-29,37.1c-1.3,2.5-2.5,5.3-1.8,8c0.8,3,3.7,4.9,6.4,6.5
		c11.2,6.6,22.4,13.2,33.6,19.9c1.1,0.7,2.4,1.3,3.6,1.2c1.1-0.2,2-1,2.8-1.8c4.9-5.1,7.4-11.9,9.9-18.5c6.5-17.5,13-35.1,19.4-52.6
		"/>
</g>
<g>
	<path class="st0" d="M195,402.1c-3.2-2.7-6.5-5.3-10.1-7.5c-1.3-0.8-2.8-1.7-4.3-1.1c-1.1,0.4-1.7,1.4-2.3,2.4
		c-20.7,33.3-37.5,68.9-50.2,106c-0.6,1.7-1.2,3.6-0.6,5.4c0.6,1.6,2.1,2.8,3.5,3.7c6,4.1,12.1,7.8,18.5,11.3
		c2.5,1.4,5.2,2.7,8.1,2.7c6.6,0,10.9-6.7,13.9-12.6c16.5-31.6,35-62.1,55.3-91.4c-11-6-22-11.9-33.1-17.5"/>
</g>
</svg>
