<svg id="πœ_h_1" data-name="πœºh_1" xmlns="http://www.w3.org/2000/svg" viewBox="0 0 191.08 259.94"><defs><style>.cls-1{fill:#fff;}</style></defs><title>artscraft</title><path class="cls-1" d="M342.21,129.8a20.69,20.69,0,0,0-16.94-8.8c-9.5,0-17.42,6.17-21.18,16.51l-29,79.74V135.92H229.79V251.7h-5.58L208,160l0.9-.16,12,68.08a2,2,0,0,0,2,1.65,2,2,0,0,0,.35,0l4.84-.85a2,2,0,0,0,1.62-2.32L217,154a2,2,0,0,0-.1-0.37l0-.09a2,2,0,0,0-.13-0.25l-0.07-.1-0.15-.19-0.1-.1-0.17-.15-0.06,0,0,0a2,2,0,0,0-.48-0.24l-0.07,0a2,2,0,0,0-.55-0.08l-0.3,0h0l-0.38.07-4.46.79h0l-2.86.5-0.47-2.68c-1.4-7.92-7.07-10.73-11.51-10.73a11.13,11.13,0,0,0-8.56,4,12.05,12.05,0,0,0-2.7,7.69,16.19,16.19,0,0,0,.25,3l17,96.68h-2.06l-20-55.08,0.52-.19-15.89-16.2-0.72-.74a1.79,1.79,0,0,0-2.34-.21l0,0a1.81,1.81,0,0,0-.28.28l-0.09.08a1.83,1.83,0,0,0-.18.33s-0.05.08-.07,0.12,0,0.1,0,.14a1.81,1.81,0,0,0-.09.37l-0.16,2-1.69,21.65,0.52-.19L175.7,251.7H157a2,2,0,0,0-2,2l3.46,15.8a3,3,0,0,0,2.92,2.32h4.4l20.32,109.12h99.48l20.32-109.12h3.35a3,3,0,0,0,2.92-2.32l3.46-15.8a2,2,0,0,0-2-2H308l36.24-99.58C347.21,143.86,346.5,135.93,342.21,129.8Zm-52.3,88.25,13.14,4.78L292.55,251.7H277.66Zm-24.7,155-2.78-2.15-7.81-6,8.17-10.59,10.59,8.17-6.51,8.44Zm-19.71-2.15-3.86,5h-0.42l-5.44-4.2h0l-1-.8-3.85-3,4.88-6.33h0l3.29-4.26,1.71,1.32,8.88,6.85Zm-25.22,5h-6.74L207.19,371l0.07-.09,8.1-10.5,10.59,8.17-1.8,2.33Zm-31.65-91.6,0.72-.94,3.44-4.46,10.59,8.17-8.17,10.59-0.9-.7-1.48-1.14-1.48-1.14-6.73-5.19,3.29-4.26Zm75.58,7-1.86,2.41-0.82,1.07-0.52.68-0.13.17-0.39.51-0.77,1-0.45.59-0.07.09-0.52.68-2.62,3.4-0.53-.41L251,298l-4.15-3.21-1.37-1.06,3.32-4.3,4.44-5.75,0.42-.54,0.7,0.54,1.46,1.12,3.3,2.54,0.89,0.69,0.34,0.26,0.55,0.43,1.27,1,0.89,0.69,0.43,0.33,0.47,0.36Zm4.5,3.47,0.88,0.68,0.48,0.37,0.4,0.31,0.58,0.44,1,0.75,2.7,2.09,0.32,0.25h0l0.86,0.66,1.67,1.29L275.06,305l-3.6,4.66-0.18.24-0.22.29-0.14.19-0.26.33-0.52.68-0.67.87,0,0,0,0-0.86-.67-0.9-.69-0.67-.52-0.62-.48-4.65-3.59-0.43-.33-0.77-.59-0.11-.08-0.88-.68-0.67-.51,0.38-.49,0.52-.68,0.52-.68,2.87-3.72,0.52-.68,0.52-.68,0.77-1,0.52-.68,0.36-.46,0.17-.22,1-1.31,0.88,0.68Zm-5.88,26L260,324.45l-0.2.26-0.38.49-0.34.44-0.53-.41,0,0-1-.75-5-3.84-0.85-.66-1.2-.92-1.09-.84-0.93-.72,2.25-2.91L255,309l1.59-2.06,0.06-.08,0,0,0.65,0.5,0.55,0.42,2.63,2,0.62,0.48,0.62,0.48,1.82,1.41,0.62,0.48,0.54,0.42,0.07,0.06L266,314l1.31,1-1.58,2-0.52.67-0.52.67-0.78,1-0.52.67Zm-1.38,11.12h0l5.11,3.94,3.76,2.9-1,1.33-7.15,9.26-10.59-8.17,4.11-5.32,0.44-.57,2.65-3.43,0.56-.72h0l0.42-.55,1.64,1.27Zm-4.51-3.48-1.11,1.44h0l-1.54,2L252.63,334l-1.42,1.84L248.77,339l-4.09-3.16-3.89-3-0.78-.6-0.52-.4-1.31-1,1.27-1.64,0.56-.73,0.78-1,1.86-2.41,3.71-4.81,1.82,1.4,3.14,2.42,0.46,0.35,0.91,0.7h0l0.06,0,1,0.75,1.08,0.83,0,0,1,0.75,0.2,0.15,0.78,0.6Zm-23.43,20.18-0.94-.72-0.73-.57-0.31-.24-0.75-.58-1.08-.84-1.86-1.43,1.8-2.33,0.72-.94,0.41-.54,0.31-.4,1.9-2.46,1.32-1.71,0.59-.76,0.89-1.15h0l0.23-.3,0.71,0.55,2.15,1.66,0.2,0.15,0.93,0.71,0.78,0.6,5.82,4.49-5.82,7.54-2.35,3-2.65-2h0Zm-14.07.72L217,352.5,215.87,354l-1.14,1.48v0h0L213,354.14l-8.85-6.83,4.32-5.6,0.72-.94,0.72-.94,2.4-3.11,4.27,3.29,2.35,1.81,4,3.06-1.78,2.31Zm-15.8-23.78-1.48-1.14-1.09-.84,0.53-.69,0.72-.94,0.72-.94,6.19-8,3,2.29,2.35,1.81,5.27,4.07-3.71,4.8-1.65,2.14-2.81,3.64-6.54-5Zm28.5,7.32-1.36,1.77-1,1.29-0.13.17-0.72.94-0.72.94-3.17,4.1-7-5.43-2.35-1.81-1.2-.92,0.84-1.09,1.65-2.14,5.68-7.36L223,323.6l1.48,1.14,1.48,1.14,3.85,3,1,0.77,1.36,1.05,1.07,0.83-0.29.37Zm-15.47-29.53,0.72-.94,2.17-2.82,10.21,7.88,0.37,0.29-0.37.48-7,9-0.72.94-0.1.13-1.27-1-7.07-5.46-2.24-1.73,1.58-2,3-3.85Zm-5.29-14.54-1.48-1.14-0.62-.48-0.94-.72,0.66-.85,0.1-.13,0.72-.94,0.72-.94,6-7.73,10.59,8.17-8.17,10.59L212.87,290Zm14.34-17h10.83l-0.77,1L234.9,274l-2.75,3.56-1.36,1.77-1,1.29-0.39.51-0.13.16-2.17-1.68-8.42-6.5,1-1.27h6.07ZM240,294l0.49,0.38L240,295l-4.22,5.47h0l-0.89,1.15-1.53,2-1,1.35-0.18-.14-0.69-.53-0.67-.52-1-.77-8.05-6.22,6.84-8.86,1.22-1.58,0.12-.15,0.45,0.35,0.42,0.33,1.36,1.05,2.75,2.12,0.89,0.68h0Zm-2.67,32.15-0.5.65-1.05,1.36h0l-0.1.13-0.31.4-0.48-.37-2.75-2.12-1.36-1.05-1-.77-5-3.86,5-6.48,1-1.29,1.36-1.77,0.4-.52,0.42-.54,1.76,1.36,0.18,0.14,0.89,0.68,3.7,2.86,0.52,0.4,0.78,0.6,2.77,2.14-2.77,3.59-0.78,1Zm3.44-14.65,0,0-0.75-.58-4.22-3.26h0l-0.66-.51,0.66-.85h0l4.22-5.47,0.78-1,2.51-3.26,2.26,1.74,4.15,3.21,4.17,3.22-8.17,10.59-0.8-.62Zm1.87-19.92-1.87-1.44-0.78-.6-4.22-3.26h0l-0.89-.68-2.75-2.12-0.08-.06,0.08-.1,2.75-3.56,0.89-1.15h0l4.22-5.47,0.23-.3,0.55,0.42,9.94,7.67,0.11,0.08-0.11.14Zm10.24-13.46-8.18-6.32h13.2l-0.82,1.06-0.79,1L253,278.2Zm-54.6-6.32h13l2.47,1.91-4.6,6-0.72.94-0.22.29-0.5.65-1.15,1.5-1,1.26L195,276.14Zm7.89,17.46,1.66,1.28,2.35,1.81,2,1.52,1.48,1.14,1.48,1.14,1.65,1.27-0.81,1-0.72.94-0.72.94-2.37,3.08-1.65,2.14L208.61,308,198,299.86Zm60.19-.74-0.62-.48-0.89-.69-0.15-.11-1.1-.85-1.1-.85-0.94-.73-1.47-1.13-0.93-.72-0.93-.72-1.2-.93h0l-0.92-.71-0.34-.26,0.35-.45,2.71-3.51,0.33-.43,0.32-.42,0.23-.3,1.27-1.64,0.32-.42,0.32-.42,0.74-1h4.22l1.25,1,0.54,0.42,0.22,0.17,0.18,0.14,0.72,0.56,0.3,0.23,0.37,0.28,0.73,0.56,0.14,0.11,0.45,0.35,0.15,0.11,2.9,2.24L272,281.21l-0.32.42-0.5.65-0.15.2-0.39.51-0.39.5-0.16.21,0,0-2.81,3.65-0.53.69Zm10.33-13.39-1.66-1.28-1.47-1.13-1.19-.92h6.89Zm-82.88-3.33L192.16,274l-2.8-2.16h4.47Zm1.65,31.33,0.37-.48,0.72,0.56,9.87,7.62-4.82,6.25-0.72.94-0.72.94-1.9,2.47-10.59-8.17,7.08-9.17Zm3.43,23.24,5.52,4.26,1.48,1.14,1.48,1.14,2.11,1.63-1,1.34-0.72.94-0.72.94-5.69,7.38L190.74,337ZM202,350.11l10.59,8.17-8.17,10.59-10.59-8.17Zm15.55,7.53,3.42-4.44,1.14-1.48,1.14-1.48,1.24-1.61,1.22-1.59,1.45,1.12,0.58,0.44,0.94,0.72,0.94,0.72,1.2,0.93,5,3.86h0l0.49,0.38-0.49.64h0l-5,6.48-2.68,3.47Zm23.72-3.06L249.41,344,260,352.17l-8.17,10.59ZM265,351.53l8.17-10.59,8.47,6.54,2.12,1.63-3.19,4.13-5,6.45ZM272.49,336l-0.41-.32-1-.79-3.5-2.7-0.38-.29-3-2.29-1.63-1.26-0.67-.52,0.18-.24,0.58-.75,0.66-.85,0.58-.75,0.58-.75,0.29-.37,1.61-2.09,0.91-1.18,0.17-.22,0.35-.45,0.52-.67,0.78-1,0.52-.67,0.43-.56,0.73,0.56,0.25,0.2,1,0.75,0.32,0.25,2.7,2.08,1.83,1.41,3.78,2.92Zm5.66-17-3.1-2.39-1.43-1.1-1.39-1.07,2.82-3.65,0.55-.71,4.81-6.23,2.54,2,4.15,3.21,1.45,1.12L291,312l-3.67,4.76-4.5,5.83-0.52-.4Zm1.62-20.12-0.07-.06-3.35-2.59-1.29-1-3.39-2.62-0.61-.47-0.59-.46-0.75-.58-0.53-.41,0.22-.28,0.53-.69,0.15-.19,0.61-.79,0.1-.13,0.27-.35,0.62-.8,3.38-4.38,1.61-2.09,0.68-.89,0.51,0.39,3.28,2.53,3.35,2.59,3.44,2.66Zm10.33-13.39-4.33-3.35-3.35-2.59-0.79-.61-1.2-.92-0.91-.71,4.24-5.49h10.54l0.8,0.62,0.42,0.32,2.76,2.13-4.16,5.39-3.55,4.6Zm10.33-13.39-0.36-.28h0.57v0ZM270.2,214.21a0.23,0.23,0,0,0-.11-0.06A0.23,0.23,0,0,1,270.2,214.21Zm-12.06,1.45h0Zm12.92-75.74v6.47h-19c-0.42,0-1.36.21-1.36,0.75v2.36c0,0.22.45,0.24,0.58,0.24h19.49l0.25,0v4H257.63c-0.38,0-1.32.17-1.32,0.74v2.36a0.58,0.58,0,0,0,.63.56h13.78a1.46,1.46,0,0,0,.35,0v3.89h-13.4c-0.46,0-1.34.21-1.34,0.8v2.36c0,0.23.45,0.28,0.59,0.28h13.85a1.71,1.71,0,0,0,.31,0v4h-13.4c-0.46,0-1.34.21-1.34,0.8v2.36c0,0.23.45,0.28,0.59,0.28h13.85a1.7,1.7,0,0,0,.31,0v4h-19c-0.47,0-1.34.21-1.34,0.8v2.36c0,0.23.45,0.28,0.59,0.28h19.42a1.66,1.66,0,0,0,.31,0v4h-13.4c-0.47,0-1.34.21-1.34,0.8v2.36c0,0.23.45,0.29,0.59,0.29h13.85a1.67,1.67,0,0,0,.31,0v4.17H257.91c-0.36,0-1.59.14-1.59,0.66v2.36a0.39,0.39,0,0,0,.34.14h13.88a2.86,2.86,0,0,0,.52-0.06v4.37H257.91c-0.32,0-1.6.16-1.6,0.63v2.36a0.39,0.39,0,0,0,.33.11h13.78l0.16,0a3.57,3.57,0,0,0,.48-0.06v4.4H252.33c-0.34,0-1.59.15-1.59,0.65v2.36a0.39,0.39,0,0,0,.34.13h19.47a3.14,3.14,0,0,0,.51-0.06v4.38H257.91c-0.33,0-1.6.15-1.6,0.64v2.36a0.39,0.39,0,0,0,.34.12h13.78l0.13,0a3.2,3.2,0,0,0,.5-0.06v4H257.36a1.09,1.09,0,0,0-1.06.79v2.36a0.74,0.74,0,0,0,.9.65h13.86v3.65H257.36a1.09,1.09,0,0,0-1.06.79V231a0.74,0.74,0,0,0,.9.64h13.86v3.66H251.79a1.1,1.1,0,0,0-1.07.78v2.36a0.73,0.73,0,0,0,.89.63h19.44v3.68H257.37a1.11,1.11,0,0,0-1.07.77v2.36a0.72,0.72,0,0,0,.89.61h13.87v3.89H257.67c-0.42,0-1.36.21-1.36,0.75v0.53H240V139.92h31Zm-85.13,14.76,7.15,40.54,18.58-3.27L204.5,151.4l17.69,100.3H203Zm-25.84,46.66,1.36-17.39,2.15-.78,12.22,12.45Zm10.75,70.48h1.64l-1.31,1.7,0.87,4.66,4.08-5.29,0.82-1.07h6.63l0.72,0.55,1.48,1.14,4.24,3.27-2.07,2.68-0.72.94-0.72.94-4.66,6-3.52-2.72-5.92-4.57,1,5.22,5.92,4.57,0.39,0.3-0.27.35-4.09,5.29,0.87,4.66,4.09-5.29,2.2-2.85,10.59,8.17-8.17,10.59L183,309.6,177,305l1,5.22,4.72,3.64-3.26,4.22,0.87,4.66,4.09-5.29,1.1-1.43,10.59,8.17-8.17,10.59-0.35-.27L181.68,330l1,5.22,3.13,2.42-2.16,2.8,0.87,4.66,4.09-5.29h0l10.59,8.17-7.31,9.48L191,358.53l-4.68-3.61,1,5.22,1.54,1.19-1.06,1.38,0.87,4.66,3-3.88,1.58,1.22,8.07,6.23,0.94,0.73-3.3,4.27h-8.71Zm32.56,104.12,1.63-2.11,2.74,2.11h-4.37Zm27.39,0h-6l3.86-5,0.13-.17,0.22,0.17,1.83,1.41,4.66,3.59h-4.66Zm19.19-5,2.49-3.22,4.18,3.22,6.41,4.95,0,0.05H246.12Zm31.41,5H268.91l-0.9-.69,3.33-4.31,4.85-6.28,1.94,1.5,4.45,3.43Zm1.91-10.26-4.45-3.43-0.5-.39,0.76-1,6.7-8.69Zm3.93-21.12-1.35,1.75-3.55-2.74-6.28-4.85-0.76-.59,2.29-3,5.88-7.62,1.62,1.25,4.45,3.43Zm3-16.23-4.45-3.43-0.18-.14,0.28-.36,6.7-8.69ZM294,308.08l-0.87,1.12-3.87-3-0.91-.7-4.15-3.21L282.57,301l4-5.2,4.16-5.39,1.3,1,1.14,0.88,3.31,2.55ZM297.21,291l-2.76-2.13-1.55-1.19,3.75-4.86,2.75-3.56Zm5.43-39.27h-5.8l30.21-83-20.49-7.46-31.51,86.57V231.88l33.72-92.65c4.85-13.33,16.61-15.7,24.51-11-7.9-4.68-19.66-2.31-24.51,11l-4.21,11.57L335.3,162Z" transform="translate(-154.96 -121)"/></svg>