<svg id="Layer_1" data-name="Layer 1" xmlns="http://www.w3.org/2000/svg" viewBox="0 0 525.98 495.98"><defs><style>.cls-1{fill:#fff;}</style></defs><title>auto</title><path class="cls-1" d="M566.24,431.35c0.45-9.16.74-18.32,0.77-27.49V403a30.92,30.92,0,0,0-18.09-27.75,99.73,99.73,0,0,1-15.52-8.8,32.85,32.85,0,0,0,14.6-5.77c3.56-2.55,9.59-6.86,10-12.36,0.89-12-24.29-24.41-35-19.82a6.64,6.64,0,0,0-4.11,6.74c0.75,6.75,4,10.17,8,15.66l-5.16,6.05A289.85,289.85,0,0,1,497.91,323c-8-13.33-9.4-18-13.91-24-7.56-10.06-22.43-21.82-55-26l-105.83-1.6A84.79,84.79,0,0,0,250.05,323a99.92,99.92,0,0,1-23.82,33.9l-5.16-6.05c0.8-.54,7.65-5.38,7.59-13.22,0-.76-0.12-6.53-3.71-9.18-8.77-6.47-35.79,7.46-35,19.82,0.38,5.87,7,10.54,10,12.69a31,31,0,0,0,14.56,5.44c-3.64,1.91-8.62,5.71-15.52,8.8A30.91,30.91,0,0,0,181,403v0.87c0,9.23.32,18.46,0.78,27.69a5.06,5.06,0,0,0-2.45,4.26v113a5.15,5.15,0,0,0,5.14,5.14H235.8a5.15,5.15,0,0,0,5.14-5.14V534.58c-7.72-.88-13.63-1.61-14.17-1.68A7.7,7.7,0,0,1,225.24,518c16.52,1.76,33,3.33,49.27,4.47a1.51,1.51,0,0,0,.47,0,9.18,9.18,0,0,0,1.18.05,15.48,15.48,0,0,0,14.13-9.35c0.05-.1.11-0.26,0.16-0.36s0.11-.26.16-0.41l1.38-3.55a8.19,8.19,0,0,1,7-4.78H448.95a8.11,8.11,0,0,1,7,4.78l1.6,4a15.37,15.37,0,0,0,14.23,9.71,9.3,9.3,0,0,0,1.18-.05c0.15,0,.36,0,0.51,0,15.5-1.11,31.12-2.58,46.82-4.21a7.69,7.69,0,0,1,1.1,15.33c-4.91.52-9.57,1-14,1.43v13.86a5.15,5.15,0,0,0,5.14,5.14h51.38a5.15,5.15,0,0,0,5.14-5.14v-113Zm-279.23,8h-72.7a7.65,7.65,0,0,1-7.61-6.57v-0.06l0-.15a46.05,46.05,0,0,0-1.68-6.86l-0.81-11v-0.1l-0.05-.41V414a0.31,0.31,0,0,1,0-.21,7.74,7.74,0,0,1,10-7.86A163.71,163.71,0,0,1,232,410.33c15.28,4.65,21.59,9,37.33,14a184.87,184.87,0,0,0,19.22,5,5.48,5.48,0,0,1,3.6,4.88A5.08,5.08,0,0,1,287,439.31ZM374,374a403,403,0,0,1-44.38-1.7c-11.8-1.07-23.22-2.82-45.6-6.27-14.64-2.26-26.74-4.26-35.12-5.68l0.17-.31c0.05-.11.11-0.21,0.17-0.31,6-7.77,11.1-21.43,15-30.65a69.73,69.73,0,0,1,59.39-42.23L428,286.5a59.59,59.59,0,0,1,29,9c11.09,7.12,16.71,16.49,26.68,33.53a239,239,0,0,1,15.18,30.89c0.08,0.13.14,0.27,0.22,0.4-34.92,4-61.76,7.32-80.08,9.68C404.38,371.88,391.84,373.57,374,374ZM543.83,414v0.11l-0.05.41v0.1l-2.47,17.73c0,0.1,0,.21,0,0.31v0.06a7.65,7.65,0,0,1-7.61,6.57H461a5.12,5.12,0,0,1-1.54-10L533.86,406a7.74,7.74,0,0,1,10,7.86,0.31,0.31,0,0,1,0,.21h0Z" transform="translate(-43.01 -58.01)"/><path class="cls-1" d="M247.63,82.92a8.38,8.38,0,0,0-5.49-5.23h0l-0.22-.07-0.14,0c-5.73-1.77-6-1.84-16-4.87a13.84,13.84,0,0,0-8.73.18,14,14,0,0,0-8.57,17.87,6,6,0,0,0,.31.77,5.62,5.62,0,0,1-3.43,7.15l-10.24,3.6c-1.24-1.35-2.52-2.67-3.87-3.92a5.61,5.61,0,0,1-.3-7.92,2.29,2.29,0,0,1,.3-0.3l0.08-.08a58.42,58.42,0,0,0,5.34-5.57l0.11-.11c0.11-.11.19-0.26,0.3-0.37a5.66,5.66,0,0,0-.82-7.4,0.57,0.57,0,0,0-.15-0.15,1.41,1.41,0,0,0-.38-0.26,78.35,78.35,0,0,0-100.32,0,1.39,1.39,0,0,0-.38.26,0.57,0.57,0,0,0-.15.15,5.66,5.66,0,0,0-.82,7.4c0.11,0.11.19,0.26,0.3,0.37l0.11,0.11A58.44,58.44,0,0,0,99.81,90l0.08,0.08a2.29,2.29,0,0,1,.3.3,5.61,5.61,0,0,1-.3,7.92c-1.35,1.25-2.62,2.57-3.87,3.92l-10.24-3.6a5.62,5.62,0,0,1-3.43-7.15,5.91,5.91,0,0,0,.31-0.77,14,14,0,0,0-8.57-17.87,13.84,13.84,0,0,0-8.73-.18c-10,3-10.27,3.1-16,4.87l-0.14,0L49,77.68h0a8.39,8.39,0,0,0-.34,16L91,108.43c-0.94,1.31-1.83,2.66-2.68,4l-28.2,10a3.75,3.75,0,0,0-2.27,4.77l1.25,3.52A3.75,3.75,0,0,0,63.85,133l17.83-6.34c-0.08.25-.18,0.5-0.26,0.75a0.07,0.07,0,0,0,0,.07v0a10.75,10.75,0,0,0,0,6.69,65.34,65.34,0,0,0,5.68,13,5.6,5.6,0,0,1-1.2,7,85.2,85.2,0,0,0-6.21,6,69.29,69.29,0,0,0-4.19,23.89,70.09,70.09,0,0,0,3.06,20.48v0c0,0.71,0,1.42,0,2.13a122.94,122.94,0,0,0,39,90V246.06h11.21v92.28a3.75,3.75,0,0,0,3.74,3.74h26.16a3.75,3.75,0,0,0,3.74-3.74V246.06H173.6v50.71a122.94,122.94,0,0,0,39-90c0-.71,0-1.42,0-2.13v0a70.08,70.08,0,0,0,3.06-20.48,69.29,69.29,0,0,0-4.19-23.89,85.09,85.09,0,0,0-6.21-6,5.6,5.6,0,0,1-1.2-7,65.32,65.32,0,0,0,5.68-13,10.75,10.75,0,0,0,0-6.69v0a0.07,0.07,0,0,0,0-.07c-0.11-.35-0.25-0.69-0.36-1L228,133a3.75,3.75,0,0,0,4.77-2.27l1.25-3.52a3.75,3.75,0,0,0-2.27-4.77l-29.11-10.35q-1.18-1.9-2.49-3.71l42.34-14.78a8.41,8.41,0,0,0,5.15-10.72h0Zm-71.88,58.46c-0.45.3-3.08,1.12-4.75,7.62-1.34,5.24,11,6.83,8.2,21.15a105.27,105.27,0,0,1-67.28,0c-0.83-6.59.41-11.15,5.64-15,7.77-9.56-11.26-17.89-18.28-23.92A11.44,11.44,0,0,1,95,124.67a10.84,10.84,0,0,1,0-4.5,5.65,5.65,0,0,1,.83-2.67,4.16,4.16,0,0,1,1.67-1.67c1.8-.87,3.81.38,4,0.5,5.06,2.78,18.26,8.42,24.27,10,0.15,0,9.25,3.08,9.4,3.12s0.19,0,.26.08a34.06,34.06,0,0,0,20.26,0c0.07,0,.19,0,0.26-0.08l0.26-.11,17.53-5.68,20.78-6.77h0l-5.23,1.49a6.92,6.92,0,0,1,7.67,4C200.33,128.67,175.75,141.38,175.75,141.38Z" transform="translate(-43.01 -58.01)"/></svg>