<?xml version="1.0" encoding="utf-8"?>
<!-- Generator: Adobe Illustrator 19.2.1, SVG Export Plug-In . SVG Version: 6.00 Build 0)  -->
<svg version="1.1" id="Layer_1" xmlns="http://www.w3.org/2000/svg" xmlns:xlink="http://www.w3.org/1999/xlink" x="0px" y="0px"
	 viewBox="0 0 1080 1080" style="enable-background:new 0 0 1080 1080;" xml:space="preserve">
<style type="text/css">
	.st0{fill:#FFFFFF;}
</style>
<g>
	<path class="st0" d="M981.1,937.8c-28.5-9.8-57.7-17.9-85.4-29.5c-96.8-40.5-190-87.8-276.4-147.7c-18.2-12.6-34.4-28.1-51-42.8
		c-4.9-4.4-8.7-10.3-12.2-15.9c-5.5-8.9-9.2-18.5-2.8-28.4c6.3-9.8,17.1-11.7,26.9-9.8c18.9,3.6,38,7.7,56,14.6
		c50.4,19.2,96.8,46.6,142.7,74.6c62.9,38.5,124.4,79.2,180.8,127c15.6,13.2,28.9,29.3,43.3,44c0,4.7,0,9.3,0,14
		C995.6,937.8,988.4,937.8,981.1,937.8z"/>
	<path class="st0" d="M535.2,142.3c4.7,9.9,10.9,19.4,13.8,29.8c13.1,46.6,17.7,94.6,21.7,142.5c6.3,76.1,9.6,152.4,2.6,228.7
		c-2.1,22.8-7.4,45.4-12.6,67.7c-1.9,8.3-6.8,16.3-12,23.2c-9.4,12.3-24.1,12.6-33.8,0.6c-5.5-6.9-9.8-15.3-12.8-23.7
		c-10-28.1-12.9-57.6-14.3-87c-5-107.4,0.3-214.2,18.5-320.2c2.5-14.7,6.7-29.3,11.4-43.5c2.2-6.6,7.4-12.1,11.2-18.2
		C531.1,142.3,533.2,142.3,535.2,142.3z"/>
	<path class="st0" d="M76.9,917.6c16.9-26.4,41.1-45.5,65.3-64.3C220,792.9,302.3,739.4,390.4,695c25.4-12.8,51.4-24.3,79.6-29.7
		c8.2-1.6,17-2,25.4-1c16.3,1.9,24.7,14.9,17.6,29.6c-5.7,11.8-14.1,23-23.4,32.3c-27.9,27.7-61.1,48.6-94.7,68.5
		c-80.8,47.7-164,90.1-252.4,121.7c-15.9,5.7-32.8,9-49.5,12.3c-5,1-10.7-2.1-16.1-3.3C76.9,922.8,76.9,920.2,76.9,917.6z"/>
	<path class="st0" d="M572.1,618.6c-2.4,7.4-6.7,15.1-13,23.4c-7.1,9.3-17.1,14.6-27.5,14.6c-10.2,0-19.7-4.8-26.8-13.6
		c-5.4-6.8-10.1-15.2-13.7-24.3c-10.6,8.9-18.3,21.5-20.1,33.3c4.9-0.8,10-1.2,15-1.2c3.7,0,7.3,0.2,10.9,0.6
		c12.4,1.4,22.6,7.8,27.8,17.3c5,9.1,5,20.4-0.1,30.8c-4.1,8.4-9.4,16.8-15.8,24.6c16,5.9,31.6,5.7,46.9-0.6
		c-4.1-4.6-7.4-9.6-10.7-14.8c-3.7-5.9-14.7-23.8-2.7-42.3c6.8-10.6,17.9-16.4,31.2-16.4c3,0,6.1,0.3,9.1,0.9
		c3.2,0.6,6.5,1.2,9.8,1.9C589.4,638.8,582.8,627.6,572.1,618.6z"/>
	<path class="st0" d="M669.9,813.3c-48.2,44.1-104.8,61.9-169.4,52.7c-41-5.8-76.6-23.9-107.2-52c-0.7-0.6-1.7-1.2-2.8-1.7
		c-11.9,6.9-23.5,13.6-35,20c100.6,107.2,267.2,95.4,352.2-0.9c-11.8-6.7-23.4-13.5-34.7-20.4C672,811.5,671,812.3,669.9,813.3z"/>
	<path class="st0" d="M337.3,610c21.2-67.3,65.6-112.4,132.2-135.7c1.1-0.4,2.5-1,3.7-1.8c-0.2-13.4-0.2-26.8-0.1-40.2
		c-134.4,31-212.6,174.6-174.5,298.1c11.8-7,23.6-13.8,35.4-20.4C326.8,671.1,327.3,641.7,337.3,610z"/>
	<path class="st0" d="M590.1,472.8c1.2,0.8,2.6,1.5,4.4,2.1c61.6,21.3,104.4,62.4,127.3,123.6c13,34.7,15.5,70.5,8.1,106.9
		c-0.2,0.9-0.3,2.1-0.2,3.3c11.8,6.6,23.5,13.5,35.1,20.5c38.1-129.5-47.7-269.2-174.8-296.5C590.3,447.3,590.3,460.6,590.1,472.8z"
		/>
</g>
</svg>
