<svg id="Layer_1" data-name="Layer 1" xmlns="http://www.w3.org/2000/svg" viewBox="0 0 492.58 480.21"><defs><style>.cls-1{fill:#fff;}</style></defs><title>beauty</title><path class="cls-1" d="M309.19,69.32c-28.5,1.43-48,7.72-80.85,18.35-33.45,10.81-51.33,20.4-65.9,31-11.77,8.56-19.11,16.12-24.76,25.66a78.8,78.8,0,0,0-10.6,34.51A55.67,55.67,0,0,0,131.89,203a67.56,67.56,0,0,0,16,22.17,97,97,0,0,0,22.58,15.46,198.54,198.54,0,0,0,25.39,10.7A274,274,0,0,0,239.35,262a197.15,197.15,0,0,0,42.39.47c3.82-.35,7.57-0.88,11.5-1.1S301,261,304.91,261a198.62,198.62,0,0,1,23.37,1.41c9.62,1.21,26.52,3.18,45.95,11.08A162.72,162.72,0,0,1,418.33,301a145.24,145.24,0,0,1,23.33,25.33c3.93,5.6,8.88,12.63,12.67,22.67,7.86,20.8,9.35,46.93,6,65.33-1,5.62-2.63,11.66-5.74,22.8-1.84,6.62-2.74,9.94-3.46,11.9-4.11,11.14-9.71,18.73-14.13,24.63-15.2,20.26-22.81,30.39-29.33,37.33a270.6,270.6,0,0,1-44.48,38.05A242.22,242.22,0,0,0,470.3,494c14.21-15.15,26.91-31.53,37-49.23,11.78-20.56,19.5-43.19,21.19-66.37,0.68-9.31,1.68-38.29-14.34-67.82-8.29-15.27-18.64-26-28.46-36.21-7-7.24-13.54-14-24-20.67-7.82-5-15-7.9-29.16-13.48-17.38-6.87-26.07-10.3-35.5-11.85-13.87-2.28-24.8-1.17-38.15.29-14.31,1.56-21.65,2.94-37,6.94-25.23,6.58-51.26,11-77.42,10.49a152.65,152.65,0,0,1-38.67-5.44,100.32,100.32,0,0,1-18.17-7.08c-5.74-3-11.31-6.53-15.74-11.25,4.63,4.51,10.31,7.76,16.12,10.47a99.21,99.21,0,0,0,18.22,6.18,148.53,148.53,0,0,0,38.21,3.13,214.42,214.42,0,0,0,38-5.09,338.06,338.06,0,0,0,36.86-10.34c25-8.16,52-13.51,79.19-11.39a186,186,0,0,1,40,8.06,195.25,195.25,0,0,1,37.8,16.42c24,13.63,45.6,32.87,61.06,57a147.72,147.72,0,0,1,14.39,28.71c0.14-3.13.3-7.72,0.37-13.27,0.17-13.74.29-22.9-1.08-32.54-1.2-8.47-3.47-15-8-28-2.68-7.7-6.32-17.22-13.33-32.67-5.73-12.61-12.25-27-18.67-38-13.73-23.6-30.5-38-48.67-53.33-25.25-21.32-49-41.36-86.67-52C347.16,67.61,323.62,68.6,309.19,69.32Z" transform="translate(-59.6 -68.85)"/><path class="cls-1" d="M393.84,482.66A152.4,152.4,0,0,0,405.64,466a116.83,116.83,0,0,0,8.92-17.9c1.15-3,2.4-6.46,3.54-9.83,1.49-4.41,2.35-7.47,3.14-10.15,3.2-10.86,4.46-13.51,5.76-18.1,2.32-8.22,5.48-15.93,5.67-26.33,0.36-20.06-2.45-28.76-6.33-40.67-5.61-17.23-15.95-28.1-22-34.33-11.44-11.78-22.49-17.52-35.18-24.11a166.32,166.32,0,0,0-42-15.39,159.22,159.22,0,0,0-22.43-3.07q-5.66-.35-11.35-0.31c-3.74.06-7.65,0.17-11.49,0.13-5.1,0-10.2,0-15.29-.07l10.65,1.3c9.24,1.16,18.52,2.3,27.84,4.31A139.81,139.81,0,0,1,357,294.92,137.32,137.32,0,0,1,395,337.68a139.79,139.79,0,0,1,17.57,54.82,128.66,128.66,0,0,1-6.9,57.48,118.58,118.58,0,0,1-5.89,13.43c-0.57,1.1-1.12,2.15-1.75,3.26l-1.73,3q-1.85,3.16-3.77,6.19a180.06,180.06,0,0,1-17.3,23,166.46,166.46,0,0,1-13.93,13.91,167.34,167.34,0,0,0,18.37-15A160,160,0,0,0,393.84,482.66Z" transform="translate(-59.6 -68.85)"/><path class="cls-1" d="M382.54,469.62q1.77-2.89,3.4-5.76l1.68-3,1.53-2.89a60.21,60.21,0,0,0,2.81-6,63.8,63.8,0,0,0,3.71-13.3c5.7-32.75,3.33-52.33,3.33-52.33a121.22,121.22,0,0,0-47-84.78,132.24,132.24,0,0,0-48.44-23.35c-8.8-2.13-18-3.5-27.12-4.87s-18.4-2.67-27.61-4.24c-18.4-3.12-36.78-7.26-54.39-13.78a191,191,0,0,1-25.65-11.56,100,100,0,0,1-22.56-16.91,69.33,69.33,0,0,1-15.41-23.42,56.75,56.75,0,0,1-3.92-23.64l-0.05.28A147,147,0,0,0,83,227.67c-8.62,15.13-12.35,29.22-15.33,40a222.81,222.81,0,0,0-7.78,45.66c-2,35.55,6.89,63,13.82,83.74,8,23.87,17.59,52.69,43.09,82.11,26.92,31.06,56.22,45.12,63.54,48.49a179.26,179.26,0,0,0,30,10.67,143,143,0,0,0,29.33-4,122.69,122.69,0,0,0,33.41-12.79c15.69-8.95,26-19.7,32-26.08q2.64-2.81,5.15-5.75C307,472.82,267,488.46,267,488.46h0c-12.22,4.45-21.72,8.09-28,10.55-5.84,2.28-10.21,4-16.67,4.67-5.68.56-13.68,1.34-19.33-3.33-3.34-2.76-4.61-7-7.16-15.42-3.39-11.24-3.26-16.68-7.35-19.39-1.79-1.19-4-1.27-7-1.67-11.3-1.48-9.55-12.06-6.39-19.1-9.15-.69-20.67-5.62-17.46-15,2.75-8,5.41-18.58,1.18-21.26-4.46-2.82-5.74-2.07-15.92-4.24-5.64-1.2-12.13-4.56-14.51-9.1-2.93-5.61.4-12.45,3.27-18.83,12.68-28.14,19-42.77,15.61-56.06-1.77-6.93-6.93-11-12.16-20.27-5.82-10.3-7-19.44-8.79-27.67a180.39,180.39,0,0,1-.89-68.74c0.63-3.52,1.25-6.37,1.66-8.16,1.89,34,35.58,62,66.3,70.69,45.2,12.72,166.09,52.22,159.18,137.45a167.1,167.1,0,0,1-2.29,17h0l-0.82,4.19c-0.72,3.43-1.25,6.67-2.24,10a153.26,153.26,0,0,1-12.86,30,169.73,169.73,0,0,1-25.18,34.56,160.49,160.49,0,0,1-33.16,27,125.59,125.59,0,0,1-39.82,16c-1,.2-1.94.37-2.91,0.54,2.88,0.95,5.79,1.83,8.72,2.67a179.37,179.37,0,0,0,32.43-2.63,160.16,160.16,0,0,0,50.72-17.87,152.65,152.65,0,0,0,41.47-33.84A168.44,168.44,0,0,0,382.54,469.62Z" transform="translate(-59.6 -68.85)"/><path class="cls-1" d="M230.52,289.53a2.31,2.31,0,0,0-2.31,1,107.53,107.53,0,0,1-7.15,15.55,53.44,53.44,0,0,1-10.69,13.15,59,59,0,0,1-14.27,9.45,54.63,54.63,0,0,1-16.43,4.93h-0.06a1.8,1.8,0,0,0,.38,3.57c5.06-.43,16.23-2.43,18.44-3.25,12.24-4.54,10.56-2.41,15.24-5,9.55-5.19,14.23-12.78,16.94-17.18,2-3.31,3.33-6.15,3.65-9.46a17.17,17.17,0,0,0-2.09-10.77l-0.75-1.29A1.65,1.65,0,0,0,230.52,289.53Z" transform="translate(-59.6 -68.85)"/></svg>