<svg id="Layer_1" data-name="Layer 1" xmlns="http://www.w3.org/2000/svg" viewBox="0 0 483.24 526.57"><defs><style>.cls-1{fill:#fff;}</style></defs><title>bednandbath</title><path class="cls-1" d="M105.94,284c9.52,0,19.5,1.31,29,.73,9-.55,6.88-8.88,6.34-15.89-0.31-4-3-14.74-.25-17.84,1.7-1.9,7.91-.23,10.15-0.11,5.85,0.31,11.75.11,17.61,0.11H429.22c11.39,0,23.53-1.58,34.83-.76,8.61,0.63,6.92,9.17,6.49,16-0.35,5.5-3.13,15.12,3,17.59,4.51,1.82,11.35.61,16.09,0.42,4-.16,12.23,1.57,15.57-0.72s2-6.84,1.86-10.36c-0.29-7.36,0-14.78,0-22.15V208.33c0-13.82,0-27.62.33-41.44,0.21-9.63,1.56-21.19-10.39-22.73-6.73-.87-19.14-2.74-24.35,2.6-3.26,3.35-2.66,8.3-2.62,12.6,0.06,6.83,0,13.66,0,20.5V200.6c0,2.08,1.48,11.07,0,12.95-2.47,3.1-20.65.45-24.32,0.45H186.84c-12.22,0-24.35,0-36.53.68-4.26.23-8.32,0.89-9.62-3.78-1.52-5.48.24-14.13,0.24-19.81V106.33c0-12.78.88-25.9-.07-38.64-0.73-9.79-5.6-12-14.93-12.41-6.29-.29-15.72-1.42-20,4.43-2.6,3.54-2.07,8.55-2.1,12.68-0.05,7.09.1,14.18,0.1,21.27,0,57.47.45,115,0,172.44C103.91,269,101.83,284,105.94,284Z" transform="translate(-64.99 -55)"/><path class="cls-1" d="M164,203c14.43,0,28.87-.06,43.3,0,8.88,0,25.69,4.08,29.09-7.19,1.1-3.66.56-7.91,0.65-11.68,0.15-6.33.94-12.83-.08-19.13-1.62-10-8.55-16.23-18.46-17.68-12.31-1.79-25.82-.48-38.27-0.48-10.58,0-20.78,3.08-24,14.26-2.22,7.68-1.36,16.57-1.53,24.52C154.55,192.37,154.76,203,164,203Z" transform="translate(-64.99 -55)"/><path class="cls-1" d="M255,203H422.69c6.93,0,15.79,1.64,22.55.29,5.13-1,5.32-5.85,5.38-10.36,0.12-9.62.24-22.42-10.36-26.31C427.7,162,410.59,165,397.52,165q-54,0-108.07-.1c-13.43,0-35-4-37.46,14.1C251.5,182.63,249.08,203,255,203Z" transform="translate(-64.99 -55)"/><path class="cls-1" d="M232.87,461.48c-0.1,2.69-21.18,27.36,0,27.36S232.87,461.48,232.87,461.48Z" transform="translate(-64.99 -55)"/><path class="cls-1" d="M192.55,488.85c21.18,0,0-27.36,0-27.36C192.46,464.18,171.38,488.85,192.55,488.85Z" transform="translate(-64.99 -55)"/><path class="cls-1" d="M170.48,526.38c21.17,0,0-27.36,0-27.36C170.38,501.71,149.3,526.38,170.48,526.38Z" transform="translate(-64.99 -55)"/><path class="cls-1" d="M212.71,526.38c21.18,0,0-27.36,0-27.36C212.61,501.71,191.53,526.38,212.71,526.38Z" transform="translate(-64.99 -55)"/><path class="cls-1" d="M251.1,526.38c21.18,0,0-27.36,0-27.36C251,501.71,229.92,526.38,251.1,526.38Z" transform="translate(-64.99 -55)"/><path class="cls-1" d="M145.86,432.65c0,17.12,30.43,13.25,40.83,12.62,12.29-.74,24.64-0.34,36.95-0.34h23.24c6.53,0,15.7,1.62,21.58-2,2.35-1.46,8-7.45,6.5-10.65-1.3-2.84-6.63-1.39-9.09-1.26-14.1.77-28.33,0.3-42.46,0.3-5.88,0-77.67-1-77.55,1.36C145.86,450.88,145.72,429.84,145.86,432.65Z" transform="translate(-64.99 -55)"/><path class="cls-1" d="M219.25,381.43c0-14.34,3.13-32.27-6-44.7C201.58,320.9,177.61,326,160.8,326.35c-23.82.54-48-1.46-71.75,0.38-5.68.44-13,2.52-13.44-4.84-0.39-6,4.87-12.7-3.14-14.18-10.42-1.92-6.92,10.42-6.92,17.3,0,11.45-.29,23-0.2,34.39,0,3.21-.65,3.39,1.66,4.58,1.08,0.56,7.62.7,8.6-.1,4-3.25-1.74-11.89.71-16s17.06-1.36,21.79-1.36h41.53c11.66,0,23.33.2,35,0,7.41-.15,20.48-3.06,23.95,5.75,2.33,5.93.53,14.31,0.94,20.69,0.18,2.86,1.15,7-1.17,9.06-1.92,1.7-7.4,1.29-9.7,1.7-19.3,3.42-42.77,18.7-42.77,40.48H274.46c0-27.43-32.18-40.56-55.21-42.75C219.25,362.31,241.93,383.58,219.25,381.43Z" transform="translate(-64.99 -55)"/><path class="cls-1" d="M538.45,422.17l-60.75-28.24c-8.52-4-17-8.16-25.65-11.71-7.88-3.23-13-4.63-13.27-13.54-0.21-7.56-1.94-7.86-8.45-9.61-8-2.16-14-8.94-13.62-17.57,0.65-13.35,17-21,27.64-12.8a16.41,16.41,0,0,1,5.59,7.82c0.84,2.58.12,6.16,2,8.37,2.49,3,6.59,2.66,8.27-.93,1.42-3-.16-7.73-1.24-10.67-5.53-15-23.9-22.21-38-14.3-13.05,7.35-17.7,24.52-9.79,37.32a26.09,26.09,0,0,0,8.58,8.59c2.33,1.4,6.24,1.61,8.12,3.36,5.32,4.93-.46,9.26-4.72,11.09-19.06,8.2-37.78,17.34-56.65,26C354.11,411,337.21,415.85,328.4,427c-9.08,11.45-6.82,29.54,6.22,36.94,5.42,3.08,10.15,2.43,16,3.06,7,0.75,5.6,5.39,5.16,11.48-1.43,19.61-.37,39.62-0.37,59.29,0,10.13-.44,20.34-0.21,30.46,0.21,9.31,4.47,12.45,13.34,12.8,20.76,0.84,41.7,0,62.48,0,20,0,40.16.89,60.15,0.43,7.6-.18,13.47-0.72,16-8.65,1.85-5.79,1.11-12.3.8-18.26-1.17-22-.26-44.16-0.26-66.15,0-5.53-1.11-12.28,0-17.63,0.75-3.61-.2-2.53,3.16-3.42,9.3-2.46,17.86,3,26.62-3.73,11.5-8.79,16.45-33.46.94-41.43C511.12,409.46,546.9,426.51,538.45,422.17Zm-10.17,35.71c-5.23,0-10.55,1.22-15.78.65-7.89-.86-3.08-6-6.91-11-4.48-5.84-16.49-3.58-22.78-3.61-10.22,0-20.44.12-30.67,0.16-20.17.08-40.34,0-60.51,0-8.65,0-18.23-1.21-26.79,0-3.38.48-7,1.86-8.43,5.27-0.89,2.08.48,5.58-.69,7.39-2.39,3.71-9.19,1.43-12.65.23-6-2.07-10.8-6-11-12.85-0.39-16.23,19.88-22.45,31.66-27.48,18.41-7.86,36.51-16.41,54.69-24.76,6.43-3,13.22-8.22,20.44-6,8.48,2.58,16.65,8.18,24.69,11.92,20,9.3,39.87,19.2,60.24,27.68,7.15,3,14.83,6.12,15.08,15,0.19,6.89-4.58,14.23-10.61,17.35C524,457.88,537.45,453.14,528.28,457.88Z" transform="translate(-64.99 -55)"/></svg>