<svg id="Layer_1" data-name="Layer 1" xmlns="http://www.w3.org/2000/svg" viewBox="0 0 464.16 367.47"><defs><style>.cls-1{fill:#fff;}</style></defs><title>businessfinance</title><path class="cls-1" d="M537.06,322.26L495.1,207l-1.47-8.33h0a10.45,10.45,0,0,0-3.86-6.31h0l-22.82-62.71c-2.26-6.22-10.35-9-18-6.2l-365,132.85c-7.68,2.8-12.09,10.13-9.83,16.34l15.65,43,6.81,38.6V477.8c0,6.61,6.65,12,14.82,12H499.78c8.17,0,14.82-5.38,14.82-12V415.31l2.11-.37c8-1.42,13.66-7.88,12.51-14.39l-10.38-58.89h0l8.39-3.05C534.91,335.81,539.32,328.48,537.06,322.26Zm-65-90.43a20.16,20.16,0,0,0,3.5-.31l0.35-.08L481,260.79H177.43l79.42-14,0.11,0h0L335.24,233h0L452,212.39a19.72,19.72,0,0,0,.26,2.84A20.13,20.13,0,0,0,472,231.84ZM428.3,150.38h0a19.59,19.59,0,0,0,.75,2.75,20.06,20.06,0,0,0,25.76,12l0.33-.14,9.66,26.55h0L174.53,242.74Zm63.13,169.22v129l-0.36,0a20.12,20.12,0,0,0-20.1,20.1,19.76,19.76,0,0,0,.23,2.84H139.93a19.81,19.81,0,0,0,.23-2.84,20,20,0,0,0-.67-5h0l-0.11-.39-0.09-.32h0c-0.05-.19-0.11-0.38-0.17-0.56h0a20.18,20.18,0,0,0-15.83-13.49v0l-0.58-.08-0.23,0h0a15.06,15.06,0,0,0-2.8-.15v-96.4h0V302l0.36,0a20.12,20.12,0,0,0,20.1-20.1,19.78,19.78,0,0,0-.23-2.84H471.2a19.73,19.73,0,0,0-.23,2.84,20.1,20.1,0,0,0,17.31,19.88h0l0.27,0,0.49,0.06h0a19.32,19.32,0,0,0,2,.12l0.36,0v17.59h0Z" transform="translate(-73.49 -122.33)"/><path class="cls-1" d="M376.62,374.89c0-.14,0-0.28,0-0.41V374h0a71.11,71.11,0,0,0-2.74-18.18h0l0-.1-0.35-1.21v0a70.61,70.61,0,0,0-8.43-18h0l-0.13-.2-0.31-.46h0a71,71,0,0,0-31.11-25.82h0l-0.2-.09-0.56-.24v0a70.83,70.83,0,0,0-11.57-3.65h0l-0.13,0-1-.22h0l-1.59-.31h0l-0.36-.06-0.36-.06h0A70.83,70.83,0,0,0,286.37,307l0,0-1.12.33-0.11,0h0a71.23,71.23,0,0,0-38.56,28.45h0l-0.31.46-0.13.2h0a70.67,70.67,0,0,0-8.45,18v0l-0.35,1.22,0,0.1h0A71,71,0,0,0,250.21,420h0l0.33,0.4,0.16,0.2h0a71.39,71.39,0,0,0,13.85,12.86h0l0.58,0.4,0.16,0.11h0a71.24,71.24,0,0,0,8.83,5.19h0l1,0.49,0.11,0.05h0A71.05,71.05,0,0,0,356,425.44h0l0.08-.08,0.81-.82h0a71.12,71.12,0,0,0,17.16-30.19h0l0.05-.18,0.19-.68h0a71.26,71.26,0,0,0,2.34-18.06C376.63,375.25,376.63,375.07,376.62,374.89Zm-68.25,32.67v9.36a1.69,1.69,0,0,1-1.71,1.62h-1.53a1.69,1.69,0,0,1-1.71-1.62v-9.36c-9.9-.72-15.39-4.95-17.28-6.84-0.9-.9-1.26-1.26-0.45-2.52l3.87-6.84c0.81-1.44,2.16-2.07,3.42-1.17a51.19,51.19,0,0,0,10.44,5.4L303.51,381c-7.83-3.15-18.27-9.54-18.27-20.25,0-9,6.39-16.65,18.36-17.82v-2.88a1.71,1.71,0,0,1,1.71-1.71h1.53a1.71,1.71,0,0,1,1.71,1.71v3a34.21,34.21,0,0,1,16.74,6.57c1.08,0.63.9,2.25,0.54,2.88L320.61,360a1.65,1.65,0,0,1-2.43.54c-0.63-.27-5.4-3.6-9.63-5.31V368c7,2.79,19.08,8.82,19.08,21.06C327.63,398.29,320.25,406.48,308.37,407.56Z" transform="translate(-73.49 -122.33)"/></svg>