<svg id="Layer_1" data-name="Layer 1" xmlns="http://www.w3.org/2000/svg" viewBox="0 0 494.12 372.44"><defs><style>.cls-1{fill:#fff;}</style></defs><title>celebgossip</title><path class="cls-1" d="M407.38,289.14c1.42-25.42.08-51.63,0.08-77.23,4.73,18.7,12,39.77,27.22,52.63,17.82,15,40.15,9.59,57.94-2.55V464.14ZM351.16,474.3l-23.74-5.19c-6.58-1.44-14.66-4.84-21.41-4.68s-14.67,3.94-21.16,5.69l-23.47,6.31,5.49-16c2.16-6.29,3.37-5.5-.63-8.74-8.34-6.76-23.55-10-33.54-14.21,14.94-1.36,30.78-1.29,45.49-4.14,5.64-1.1,6.3-2.07,10.81-6.51,2.63-2.59,12.21-15.43,15.76-15.52s13.82,12.37,16.48,14.76c4.69,4.2,5.43,5.16,11.1,6,14.82,2.16,30.64,1.34,45.63,2-9.8,4.71-24.77,8.64-32.83,15.77-3.69,3.27-3,1.73-.6,7.79ZM291.95,363.83c2.48-2.44,10-12.81,13.21-13,3.89-.23,9.49,9.56,13.31,11.42,8.24,4,22.49,1.87,31.9,2.28-5,2.42-16.84,5.33-20,9.62-2.79,3.76,1.45,9.76,3.56,15.07-8.45-1.85-19.13-6.37-27.72-6.06-8.74.31-18.91,5.08-27.4,7.36,1.87-5.45,5.78-11.57,2.85-15.23-3.24-4.05-15.43-6.54-20.45-8.66Zm4.65-50.13c1.91-1.88,7.39-9.48,9.84-9.69,3-.25,7.18,7,10.14,8.43,6.22,3.07,17.07,1.47,24.19,1.78-3.32,1.6-13.75,4.41-15.44,7.42-1.54,2.74,1.51,7.51,3,11.25-6.46-1.41-14.39-4.74-21-4.58s-14.4,3.87-20.72,5.57c1.29-3.75,4.21-8.77,2.46-11.38-2-3-12.28-5.2-15.78-6.68Zm-91.72-24.56-85.24,175V262c18.24,12.44,41.11,17.58,59,1.69C193.39,250.5,200.41,229.59,205,211,205,236.64,207.32,263.85,204.88,289.14Zm334.25-65.42c-0.2-1.16,6.41-10.87,7.47-14.42A36.11,36.11,0,0,0,515.28,163c-32.34-2.94-51.94,37-29.57,60.72-17.43-.24-20.76,27.29-3.5,30.58-30.17,18.46-49.35-3.73-58.94-31.61-4.33-12.59-11.31-31.56-9.69-45.17,0.49-4.08,9.71-17.06-2.95-17,9.77-10.38,2.12-27.94-12.07-27.94s-21.87,17.53-12.07,27.94a6.78,6.78,0,0,0-6.83,7.4c0.35,7.72,7.36,3.92,9.54,6.76,1.3,1.69.46,7.3,0.46,9.85v85.82c0,3.51,1.88,14.1,0,17.22-2.74,4.55-25.19,1.58-31.23,1.58H240.62c-2.48,0-15.48,1.83-17.44,0-3.53-3.29-.36-26.89-0.36-31.82V190.8c0-2.74-1.8-13.81,0-16s7.29,0.54,9.5-4.1A7.27,7.27,0,0,0,226,160.52c9.78-10.38,2.12-27.94-12.07-27.94s-21.87,17.53-12.07,27.94c-12.32-.45-3.69,11.76-3,15,1.07,4.93-1.65,13.05-2.49,17.78a197.87,197.87,0,0,1-6.75,27.49c-9.39,28.37-28.43,52.56-59.58,33.5,17.24-3.29,14-30.83-3.5-30.58,21.3-22.61,4.67-60.87-26.29-60.87S52.67,201.1,74,223.71c-15.57-.33-20.91,22.62-7,29.41,5.45,2.66,11.81-1,13.94,3.57,1.42,3.1,0,10.39,0,13.74V489.85c0,2.68-1.41,10.27,0,12.61,1.93,3.2,10.56,1.46,15,1.46H492.61c5.69,0,36,2.9,38.75-.75,1.29-1.7,0-9.52,0-11.59V273c0-4.35-1.38-11.37,0-15.53,1.69-5.1,3-1.93,9.37-3.13C557.48,251.21,557.37,223.71,539.13,223.71Z" transform="translate(-58.94 -132.58)"/></svg>