<?xml version="1.0" encoding="utf-8"?>
<!-- Generator: Adobe Illustrator 19.2.1, SVG Export Plug-In . SVG Version: 6.00 Build 0)  -->
<svg version="1.1" id="Layer_1" xmlns="http://www.w3.org/2000/svg" xmlns:xlink="http://www.w3.org/1999/xlink" x="0px" y="0px"
	 viewBox="0 0 1080 1080" style="enable-background:new 0 0 1080 1080;" xml:space="preserve">
<style type="text/css">
	.st0{fill:#FFFFFF;}
</style>
<path class="st0" d="M919.3,594.1c-2.9-4.1-3.3-7.1-1.6-12c5.1-14.4,11.2-28.6,9.9-44.5c-2.8-34.4-17.9-62.7-43.7-84.9
	c-38.8-33.3-85-47.3-135.3-47.7c-45.8-0.3-85.2,13.9-110,58.8c-0.6-5.5-1.2-8.8-1.2-12.1c-0.6-35.4-10.8-67.7-28.8-98.4
	c-21.3-36.4-12.9-81.7,18.2-110.5c15.2-14.1,47.7-17.5,64.1-6.6c-1,1.6-2.1,3.3-3,5c-10.4,18.1-8.2,40.2,5.6,55.2
	c13.8,14.9,35.6,19.2,53.7,10.6c18.2-8.7,28.5-28.1,25.8-48.3c-2.8-20.5-18.1-36.1-38.8-39.6c-13.6-2.3-28.1-8.7-39.1-17.3
	c-22.6-17.6-48.9-25.4-76.9-27.6c-38.9-3-75.9,3.3-108.7,25.5c-36.4,24.7-50.9,61.8-55.2,103.6c-3.2,30.8-4.2,61.9-7.1,92.7
	c-1.5,15.3-5.2,30.3-7.8,45.5c-0.9,0.1-1.7,0.3-2.6,0.4c-14.6-15.3-31.9-26.3-51.9-32.7c-13.8-4.4-27.6-8.9-41.8-11.9
	c-39.7-8.3-79.2-9-118.2,4.4c-70.8,24.5-95.9,112.5-47.9,170c11.9,14.3,26.5,26.2,39.9,39.2c1.3,1.3,2.8,2.5,4.1,3.6
	c-11.5,23.6-8.4,45.1,8.4,60.1c15.1,13.5,37.1,15.5,54.5,5c17.8-10.8,26.2-32.1,20.6-52.2c-6.1-22-23.3-33.1-53.3-33.7
	c-3.5-10.2-8.8-20.4-10.3-31.2c-4.5-31,16-57.2,49.4-50.5c16,3.2,50.4,32,59.1,45.5c24.1,37.2,40.5,138.8,54.4,180.9
	c4.7-9.7-9.1-98.8,18.7-124.5c19.5-18,54-6.7,70.1,0.2c14,6,27.3,13.7,40.4,21.5c6.9,4.1,12.8,9.8,19.4,15
	c7.6-5.8,14.9-11.8,22.6-17.3c13.2-9.4,27.1-17.5,43.3-21c13.2-2.9,26.9-11.9,54.1-4.4c42.9,11.8,30,105.5,34.5,130.5
	c0,0,7.6-43.3,7.6-43.3c0.4-10.8,3.7-37.1,4.5-47.8c3.1-41.9,21.7-77.7,50.5-107.6c6.1-6.3,16.1-11.2,24.8-12.1
	c33.7-3.4,59.3,11.6,78.2,39c1.5,2.1,2.3,4.8,3.6,7.5c-2.3,0.7-3.9,1.1-5.5,1.5c-20,5.2-33.8,21.8-35,42
	c-1.2,20.9,10.8,39.5,30,46.6c18.6,6.8,39.6,0.9,52-14.8C930.5,633.5,931.3,611.3,919.3,594.1z"/>
<path class="st0" d="M531,703.6c-1.7-26.6-19.2-44.2-41-42.4c-25,2.1-40.3,18.1-37.6,40.2C478.8,687,505.1,687,531,703.6z"/>
<path class="st0" d="M672.3,707.6c2.4-26.5-12.3-46.6-34.1-48.1c-25-1.7-42.5,11.8-43.2,34.1C623.3,683.4,649.2,687.4,672.3,707.6z"
	/>
<circle class="st0" cx="-3542.8" cy="1136.2" r="6"/>
<g>
	<path class="st0" d="M570.6,755.3c-21.9,0-39.6,17.7-39.6,39.6s17.7,39.6,39.6,39.6s39.6-17.7,39.6-39.6S592.4,755.3,570.6,755.3z
		 M570.6,781.3c-3.7,7.7-11.4,13.6-20.2,13.6c-6.5,0-10.3-5.2-10.3-13.6s10.4-18.4,18.8-18.4S574.2,773.7,570.6,781.3z"/>
</g>
</svg>
