<svg id="Layer_1" data-name="Layer 1" xmlns="http://www.w3.org/2000/svg" viewBox="0 0 913.69 570.54"><defs><style>.cls-1{fill:#fff;}</style></defs><title>computerelectronics</title><path class="cls-1" d="M687.54,636.51H133.93c-3.91,0-3.15.74-4.08-2.06-0.85-2.56,0-6.88,0-9.56V373.46c0-26-1.13-52.37,0-78.39,0.19-4.32-.75-2.94,2.63-3.75,5.82-1.4,13.76,0,19.71,0H675.25c1.82,0,10.69-1.31,12.12,0s0.17,9.81.17,11.62V636.51Zm17.11-381.38H130.41c-12.62,0-25.81-1.21-36.53,7.07-13.25,10.23-10.42,27.46-10.42,42.2V631.3c0,4-.16,8.08,0,12.1,0.69,17.35,15.48,28.75,32.15,29.3,15.62,0.52,31.34,0,47,0H341.95c5.76,0,15.06-1.83,20.59,0,0.9,0.3,1.6-.26,2.09.32,1.09,1.3,0,8.27,0,9.87V768c0,8.23,0,6.81-8.35,6.81h-44c-24.28,0-69.64-7.34-72.82,27.82-0.45,4.94-2.24,20.56,1.22,22.29,3.28,1.64,11.65,0,15.23,0H572c5.87,0,6,1.23,6-5.18,0-17.81-.31-37.68-21.16-43.7-9-2.6-20-1.23-29.25-1.23h-67c-1.23,0-7.8.92-8.71,0-0.69-.71,0-5.44,0-6.37v-85c0-1.69-1.13-9,0-10.29s7.59-.44,9.62-0.44h211c15.35,0,38.44,3.64,51.35-6.44,13.77-10.76,11.1-28.67,11.1-44.06V295.53c0-4.15.13-8.33,0-12.49C734.35,266.33,721.18,255.12,704.66,255.12Z" transform="translate(-83.2 -255.06)"/><path class="cls-1" d="M970.56,522.37H816.41c-1.35,0-7.94,1-9,0-1.68-1.6-.2-12.24-0.2-14.69v-13c0-2.82-1.17-8.85,0-11.43,1.06-2.35.42-1.58,3.94-1.68,5-.14,10,0,15,0h133c1.65,0,9.79-1.18,11.05,0,2,1.85.28,14.24,0.28,17.12v23.71Zm0,72.38h-155c-1.34,0-7.19.92-8.26,0-1.57-1.34-.09-13.1-0.09-15.18V565.82c0-2.76-1.14-8.67,0-11.19,1-2.3.49-1.54,3.94-1.63,5.19-.14,10.4,0,15.59,0H959.68c1.61,0,9.45-1.15,10.68,0,2,1.91.2,15.48,0.2,18.41v23.34Zm0,72.38H816.41c-1.35,0-7.94,1-9,0-1.68-1.6-.2-12.24-0.2-14.69v-13c0-2.82-1.17-8.85,0-11.43,1.06-2.35.42-1.58,3.94-1.68,5-.14,10,0,15,0h133c1.65,0,9.79-1.18,11.05,0,2,1.85.28,14.24,0.28,17.12v23.71ZM890.29,785.8a40,40,0,1,1,40-40A40.43,40.43,0,0,1,890.29,785.8Zm106.25-364c0-17.57-14.35-30.6-31.39-31.17-5.47-.18-11,0-16.46,0h-76c-19.27,0-38.58-.37-57.85,0-20.61.4-32.68,15.57-32.68,35.23V695c0,32.36-.61,64.78,0,97.14,0.41,21.94,16.76,32.7,37,32.7H956.48c6.75,0,13.55.42,20-2C989,818,996.2,806.18,996.54,793.08c0.8-30.41,0-60.94,0-91.36v-280Z" transform="translate(-83.2 -255.06)"/></svg>