<svg id="Layer_1" data-name="Layer 1" xmlns="http://www.w3.org/2000/svg" viewBox="0 0 384.8 500.67"><defs><style>.cls-1{fill:#fff;}</style></defs><title>cooking</title><path class="cls-1" d="M244.11,216l3.2-57.19H156.56l3.16,49.49,0.93,14.53c0.16,2.57-.43,7.2.61,9.61,0.47,1.08-.13,1.67.55,2.25,0.91,0.78,6.37,0,7.46,0h60.09c2.26,0,12.2,1.4,13.73-.19C245.28,232.19,243.94,219.13,244.11,216Z" transform="translate(-125.79 -47.94)"/><path class="cls-1" d="M273.88,234.69h31.18c2.14,0,4.86.64,5.83-.76,1.37-2,.49-8.75.62-11.1l3.58-64H283.91c-2.14,0-4.86-.64-5.83.76-1.37,2-.49,8.75-0.62,11.1Z" transform="translate(-125.79 -47.94)"/><path class="cls-1" d="M296.41,417.43c-13.74-14-26.78-28.33-36.32-45.83a164.34,164.34,0,0,1-18-53c-1.5-9.6-3-19.78-2.43-29.52,0.62-11.59,11.66-20.66,23.27-17.72,8.13,2.06,14.69,10.73,20.41,16.45L335,339.45l5.76-90.19,5.71-89.46c1-16.09-6-30.91-24.29-31.75-14-.64-28.26,0-42.32,0,0.63-11.16-1.35-26.62,9.54-33.5,6.68-4.22,17-4.77,24.46-6.36L347.77,81c5.89-1.25,16.89-1.3,17.48-9,0.44-5.79-2.35-22.68-9.13-23.9-5.83-1.05-14.66,2.78-20.25,4-17.93,3.8-38.27,5.59-55.36,12.54A49,49,0,0,0,251,100.54c-1.73,8.94-1.5,18.44-2,27.51H182.32c-11.91,0-25.63-1.91-37.41.49-17,3.46-19.89,19-19,33.34l2.38,37.31c4.12,64.5,6.41,129.4,12.36,193.76,1.41,15.21,12.21,24.12,27.14,24.27,13.77,0.14,27.56,0,41.33,0C238.19,417.22,267.36,418,296.41,417.43ZM278.08,159.58c1-1.4,3.69-.76,5.83-0.76h31.18l-3.58,64c-0.13,2.35.75,9.12-.62,11.1-1,1.4-3.69.76-5.83,0.76H273.88l3.58-64C277.59,168.33,276.71,161.56,278.08,159.58Zm-48.73,75.12H169.26c-1.08,0-6.54.78-7.46,0-0.68-.58-0.08-1.17-0.55-2.25-1-2.4-.45-7-0.61-9.61l-0.93-14.53-3.16-49.49h90.75L244.11,216c-0.17,3.12,1.17,16.19-1,18.49C241.55,236.1,231.61,234.69,229.35,234.69Z" transform="translate(-125.79 -47.94)"/><path class="cls-1" d="M505.29,331.92c-5.09-2.07-8.6,1-11.95,4.2-8.6,8.31-16.92,16.92-25.38,25.37-6,6-11.7,13.17-18.36,18.36-9.08,7.07-19.7-3.49-12.63-12.59a62.15,62.15,0,0,1,5.33-5.33l26.83-26.83c4.78-4.78,17.35-13.48,16.34-21.33-1.1-8.5-10.22-9.16-15.67-4.56-2.92,2.46-5.5,5.5-8.19,8.19l-27.51,27.51c-5.18,5.18-20.36,22.17-24.69,5.71-2.13-8.1,10.84-17.1,15.66-21.92l27-27a66.93,66.93,0,0,0,5.7-5.7c6.83-8.78-4.27-21-12.6-12.63l-4.35,4.35-50,50c-8.81,8.81-15.25,19.23-10.62,32.27,3.8,10.69,15.76,19.41,23.52,27.18,10,10,20.47,19.74,35.9,14.26,8.17-2.9,14.24-10.59,20.22-16.57,15.71-15.71,33.25-30.71,47.63-47.64C511.63,342.33,512.29,334.78,505.29,331.92Z" transform="translate(-125.79 -47.94)"/><path class="cls-1" d="M499.3,517.89l-1.51-1.51-5.3-5.3-84.57-84.57-73.77-73.77-46-46c-7.6-7.6-14.9-16.58-23.31-23.3-2.88-2.3-6.15-3.47-9.76-2-5.81,2.41-5.57,8.27-5.37,13.61A171,171,0,0,0,254.79,331a156,156,0,0,0,32.74,62.72c6.84,8,14.15,15.69,21.66,23.22,10.09,10.14,20.54,20,30.68,29.83,5.29,5.14,11.42,8.62,19,8.94a26.78,26.78,0,0,0,15.37-4.05c1.58-1,3.6-3.68,5.09-3.33s4.47,4.47,5.61,5.61l1.07,1.07,9.84,9.84,61.82,61.82c5.36,5.36,10.52,11.07,16.15,16.15,14.36,13,34.28-1.73,30.5-16.59A18.16,18.16,0,0,0,499.3,517.89Z" transform="translate(-125.79 -47.94)"/><path class="cls-1" d="M336.15,466.54a78.82,78.82,0,0,1-12-10.17l0,0c-2.34-2.33-4.64-4.73-7-7.07L310,456.33h0L269,497.42c-6.65,6.65-13.77,13.06-20.06,20.06-13,14.43,1.59,34.5,16.48,30.63a18.32,18.32,0,0,0,8.32-5l6.81-6.81L338,478.83l3.48-3.48,4.12-4.12a39.05,39.05,0,0,1-5.88-2.57C338.49,468,337.31,467.3,336.15,466.54Z" transform="translate(-125.79 -47.94)"/></svg>