<svg id="Layer_1" data-name="Layer 1" xmlns="http://www.w3.org/2000/svg" viewBox="0 0 454.31 466.89"><defs><style>.cls-1{fill:#fff;}</style></defs><title>design</title><path class="cls-1" d="M432,366q-3-5.74-6.07-11.5Q401.93,308.66,379.49,262q-12.67-26.35-24.81-53c-4.06-8.9-7.6-18.23-12.12-26.9a12,12,0,0,0-14.76-6.07c-2,.72-3.82,2.53-3.67,4.82q3.79,57.13,2.62,114.43-0.3,14.19-.91,28.38c-0.29,6.72-2.51,15.8,4.61,19.86,4.35,2.48,8.86,3.2,12.79,6.69a25.56,25.56,0,0,1,8.23,14.55,30.21,30.21,0,0,1-15,32.21,41.63,41.63,0,0,1-11.74,4.07,26.48,26.48,0,0,1-7.16.43c-8.61-1.17-17.41-4.79-23.06-11.6-8.32-10-9.1-26.86-.54-36.93,3.78-4.45,8.47-6,13.24-8.93,7.25-4.48,7.34-12,7.65-19.6q1.19-29,1.43-58.12,0.24-28.61-.45-57.22-0.17-6.92-.39-13.84c-0.14-4.25.4-9.27-.54-13.41-1.46-6.42-10.42-7.07-14.49-2.78-2.6,2.74-3.85,7.09-5.64,10.4q-3.57,6.6-7.1,13.21-6.85,12.83-13.56,25.73-13.52,26-26.5,52.24-12.74,25.76-24.95,51.79-6,12.82-11.9,25.71-2.73,6-5.43,12c-1.65,3.65-3.63,7.22-3.23,11.36,0.3,3.09,2.33,5.57,3.85,8.17,1.72,2.94,3.31,6,4.81,9,2.91,5.93,5.5,12,8.07,18.09,4.92,11.64,9.64,23.63,16.73,34.16,6.32,9.38,14.63,17.4,25.62,20.85a55.14,55.14,0,0,0,10.11,1.95c2.29,0.27,4.59.43,6.9,0.54l2.67,0.11c0.78,0,3.42-.4,2.37-0.53,1.58,0.12,3.23.64,4.94,0.61l6.25-.07q6.8-.05,13.6,0c9,0,17.92.12,26.88,0.13,11.62,0,23.77,1.33,35.31-.43,8.94-1.36,16.85-7.21,23.28-13.27,15.27-14.38,24.82-34.06,32.84-53.13,2.54-6,4.66-12.38,7.61-18.17,2.24-4.4,4.08-8.43,2.78-13.54C435.89,372.4,433.73,369.2,432,366Z" transform="translate(-91.63 -67.73)"/><path class="cls-1" d="M369.75,491.17c-4-3.53-9.55-2.48-14.41-2.37q-36.62.85-73.26,0.36c-9.71-.13-19.83-1.71-21.79,10.29a66.72,66.72,0,0,0-.83,12.17c0.09,4.33-.66,9.19.13,13.44,1.88,10.07,14.24,8.71,22,9.06,8.44,0.38,16.87.47,25.32,0.33,10.13-.18,20.31-0.91,30.44-0.54,5,0.18,10,.5,15,0.61,5.44,0.12,11.37.86,15.11-3.88l0-.05a5.51,5.51,0,0,0,.74-1c2.71-4.41,3.3-7.36,3.4-12.48,0.1-4.95,1.21-9.82,1.45-14.77C373.3,498.18,373.09,494.15,369.75,491.17Z" transform="translate(-91.63 -67.73)"/><path class="cls-1" d="M543.15,85.57c-3.74-8-11.21-13.48-19.54-16a40.16,40.16,0,0,0-38.39,8.11c-6.62,5.71-12.47,13.81-14.48,22.47q-54.4.64-108.8-1.15l-8.44-.29c0.4-6.32.66-12.76-.4-18.79-0.53-3-1.69-6.45-4.52-8-3.74-2.06-10.2-.26-14.29,0q-16.43.86-32.9,0.33c-3.71-.12-9.45-1.53-12.86.4s-4.24,6.17-4.68,9.59A124.17,124.17,0,0,0,283,96.37c-18.78-.44-37.56-0.63-56.38-0.29q-28.83.52-57.63,2.13c-3-11.28-11.4-21.15-21.79-26.41-16.84-8.54-34.85-2.35-46.1,11.89A48.41,48.41,0,0,0,93,97.79c-3,8.89-.7,17,4.39,24.67,9,13.57,23.72,29.72,41.62,21.59,13.49-6.13,26.52-16.26,30.16-30.84Q226,110,283,111.2c0,2.39,0,4.78,0,7.16,0,3-.21,6.14-0.14,9.23a83,83,0,0,0-23.27,10.83c-8.8,5.66-17.72,11.09-26.59,16.65a309.23,309.23,0,0,0-49.78,38.37,286.82,286.82,0,0,0-21.56,23c-4,4.78-8,9.12-10.95,14.57-5.4,9.86-12.8,19.44-16.29,30.21-4.94,15.24-6.35,31.49-8.25,47.35-4.15,0-8.3,0-12.45-.18-3.71-.12-9.45-1.53-12.86.4s-4.24,6.17-4.68,9.59c-1.05,8.15-.92,16.58-0.86,24.79,0,3.8.06,7.61,0,11.41,0,5.28-.65,10.94.68,16.12,2.25,8.7,11.47,8.54,19,9.11,9,0.68,18.08-1.68,27-1,4.3,0.35,8.53,1.38,12.88,1.24,4.72-.16,6.92-3.16,8.09-7.35a7.93,7.93,0,0,0,.3-1.37c1.79-9.28,1.51-18.35,1.93-27.78,0.4-8.92,1.68-18.64.12-27.46-0.53-3-1.69-6.45-4.52-8-3.74-2.06-10.2-.26-14.29,0-3.47.18-6.95,0.3-10.43,0.39,1.55-12.45,3-24.77,6-37a60.39,60.39,0,0,1,6.22-16.32c3-5.36,6.11-10.61,9.17-15.92,0.92-1.59,1.82-3.19,2.68-4.81,1.39-2.61,3.24-4.46,5.14-6.8,6.08-7.49,12.49-14.7,19.28-21.55a283.11,283.11,0,0,1,46.13-37.7c9.83-6.44,20-12.27,29.87-18.7,7.78-5.08,15.34-9.67,24.21-12.24,3.4,5.74,11.25,5.69,17.85,6.18,9,0.68,18.08-1.68,27-1,4.3,0.35,8.53,1.38,12.88,1.24,4.72-.16,6.92-3.16,8.09-7.35a7.93,7.93,0,0,0,.3-1.37c1.4-7.26,1.54-14.39,1.73-21.67,23.34,0.84,46.69,1.59,70.06,1.77q24.39,0.19,48.78-.13c0.2,0.53.42,1.06,0.67,1.58,7,14.85,21.82,26.91,38.68,27.28,18,0.4,28.87-15.43,32.95-31.12C546.24,103.76,547.24,94.36,543.15,85.57ZM152.25,317.75c0.57,0,2.33.12,2.8-.2a4.17,4.17,0,0,1,.52-0.3,18.64,18.64,0,0,1,.36,4.15c0.22,7.63-.3,15.31-0.64,22.93-0.38,8.49,0,16.76-1.67,25.12a3.62,3.62,0,0,1-.21.56,8.43,8.43,0,0,1-1,0c-1.59-.34-3.34-0.28-5-0.49a53.25,53.25,0,0,0-7.48-.78c-6.45.08-12.86,1.23-19.33,1.25a72.18,72.18,0,0,1-8.2-.44,32.88,32.88,0,0,1-5.3-.81c-1.82-.52-1.43.08-1.73-2.33-0.91-7.14,0-14.86-.09-22.08,0-5.28,0-10.56.19-15.84q0.12-2.86.29-5.71c0.07-1.07.7-3.26,0.73-4.6,0.64,0,1.4,0,1.86,0q3.55,0.16,7.11.26,12.25,0.34,24.5-.09Q146.14,318.16,152.25,317.75Z" transform="translate(-91.63 -67.73)"/></svg>