<svg id="Layer_1" data-name="Layer 1" xmlns="http://www.w3.org/2000/svg" viewBox="0 0 794.26 588.78"><defs><style>.cls-1{fill:#fff;}</style></defs><title>education</title><path class="cls-1" d="M926.14,645.18a40.3,40.3,0,0,0,5.2-5.29c14.37-17.77,0-45.26-21.38-48.5A19.26,19.26,0,0,0,908,590q1-65.48,4.64-130.87a13.56,13.56,0,0,0,2.35-2.94c4.15-7.1,1.34-15.49-5.2-19.84-49.13-32.67-103.25-55.57-158.13-76.67-27-10.37-54.08-20.4-80.78-31.46-27-11.19-53.22-24.22-79.54-36.95-13.67-6.61-27.49-13-41.07-19.75-12.36-6.19-25.69-13.63-35.16-21.82l-0.16-.13a13.89,13.89,0,0,0-4.69-2.83c-0.22-.09-0.45-0.16-0.67-0.24l-0.14,0a14.94,14.94,0,0,0-7.79-.56l-0.66.08c-22.79,3.7-43.33,16.41-63.77,26.49L366.6,307.3c-46.4,22.87-92.68,46-139.23,68.56-23.5,11.38-47.08,21.8-72.33,28.71a14,14,0,0,0-2.73.82c-0.25.09-.48,0.2-0.72,0.3l0,0a14.24,14.24,0,0,0-5.46,4.32l-0.32.41-0.22.3a13.75,13.75,0,0,0-2.14,4.37,14.05,14.05,0,0,0-.33,6.1c0.05,0.34.12,0.67,0.2,1v0.06c0,0.18.07,0.36,0.12,0.53a14.48,14.48,0,0,0,8.72,9.55c0.46,0.21.93,0.4,1.41,0.57,58.75,21,118,40.53,176.83,61.3l2.06,24.64a43.47,43.47,0,0,0-6.91-2c-19.22-3.83-34.14,6.24-48.26,17.94-6.8,5.64-13.17,12.07-17.82,19.65a43.45,43.45,0,0,0-2.11,3.89,180.51,180.51,0,0,1-16-19.65c-4.47-6.42-12.7-9.38-19.84-5.2a13.23,13.23,0,0,0-2.45,1.87,15.36,15.36,0,0,0-6.16,8.22c-7.1,22.7-6.46,49.22-.51,72.1,6.06,23.33,19.24,43.21,35.49,60.64a12.65,12.65,0,0,0,3.57,2.66c7.66,4.66,14.56,10.36,21.9,15.49a203.1,203.1,0,0,0,24.43,14.37c17,8.63,34.52,16.24,51.82,24.19a19,19,0,0,0,4,1.33,78.72,78.72,0,0,0,0,11.63c1.51,19.53,10.11,37.42,27,48.14,17.22,10.94,39.17,11.47,57.28,2.64a12.5,12.5,0,0,0,6.2-7.31c35.05,14.74,71.52,26.23,107.61,38.1a92.08,92.08,0,0,0,17.28,5.12c19.18,3.63,41.37,1.37,59.15-6.8,14.89-6.84,29-19.25,36.45-33.95,5-9.86,8.55-20,9.6-31a92.82,92.82,0,0,0-2.78-32.69,56.86,56.86,0,0,0-5-12.28,293.93,293.93,0,0,0,41.73-8.6c11.64-3.34,23.44-7.81,33.24-15.06,13.28-9.83,21.46-24.12,22.33-40.75a47.31,47.31,0,0,0-4.69-23,10.78,10.78,0,0,0,.33-3.82,822.36,822.36,0,0,1-3.56-108.31Q819.22,493.86,883,472.16q-2.9,56.21-3.85,112.5a49.62,49.62,0,0,0-25.06,10.09c-7.06,5.5-13,13.24-14.82,22.17-2,10,1.73,19.83,9.11,26.67a52.15,52.15,0,0,0,8.14,6.13q-8.41,21.43-16.34,43-4.18,11.42-8.21,22.89c-3.06,8.71-7.15,18-1.73,26.78,9.13,14.79,30,9.85,44.11,8a422.22,422.22,0,0,0,51-9.77c7.74-2,12-10.31,10.13-17.84C929.14,697.07,927.16,672.19,926.14,645.18ZM286.77,567c0.78-1.08.23-.3,0,0h0ZM305,606a302.82,302.82,0,0,1-25.36-18.18,20.32,20.32,0,0,0-.16-5c0.26,1.68.21,0.13,0.18-1,0.09,0,.38-1.85.54-2.47a5.73,5.73,0,0,0,.2-0.93,4.56,4.56,0,0,0,.57-0.83c0.88-1.48,4.72-9,5.73-10.45l0.05-.07c0.48-.58,1-1.15,1.49-1.71,1-1.15,2.1-2.26,3.21-3.35,2.38-2.35,4.91-4.55,7.49-6.67,3.78-3.1,9.16-7.53,13.82-9.22a16.92,16.92,0,0,0,2.39-.62l1.15-.13c0.75,0,1.5,0,2.25,0h0.2c0.6,0.12,1.2.27,1.8,0.43s4.34,1.67,2.85.94a46.65,46.65,0,0,1,7.21,4.29c2.1,1.59,4.09,3.38,6.54,5.63,5.38,5,10.53,10.16,15.75,15.29,10.32,10.14,20.66,20.27,31.59,29.76,5.74,5,11.65,9.78,17.74,14.35l1.72,1.29,1.36,1c3.26,2.39,6.57,4.71,9.94,6.93-7.47,6.31-17.44,19.29-23.84,26.67-0.29-.17-0.57-0.35-0.88-0.49C361.38,637.58,332.19,623.49,305,606Zm131.33,107.8c-9.23,16.34-13,36-8.71,54.31l-3,9.24c-17.75,9.06-29.14,12.24-40.94-3.82-13.24-18-10.28-43.29-2.54-64.26,12.59-34.07,30.63-59.94,61.11-79.7,31.13,3.48,41,7.91,48.13,11,21,9,25.16,16.11,30.16,16.88-23.14,5.18-28.58,8.11-44.47,17.42C459.9,684.34,445.56,697.45,436.33,713.79Zm204.9,59.86c-0.3.69-.76,1.69,0,0h0Zm0.16-.38-0.15.36c-0.23.51-.45,1-0.69,1.53-0.61,1.24-1.19,2.5-1.85,3.72s-1.27,2.28-2,3.38c-0.25.39-1.24,1.8-1.7,2.48s-1.42,1.65-1.59,1.84c-0.76.81-1.54,1.6-2.35,2.36-1,.94-2,1.81-3.08,2.71l-0.24.21q-1,.72-2,1.42c-2.84,2-5.75,4-8.75,5.73a30.57,30.57,0,0,0-2.72,1.45c-1.64.63-3.33,1.16-5,1.63a95.62,95.62,0,0,1-10.59,2.23l-1,.13-2,.22q-2.89.29-5.79,0.48a73.44,73.44,0,0,1-8.25.17c-0.37,0-2.45-.21-3.19-0.26l-1.23-.19c-0.87-.17-1.74-0.33-2.61-0.52a80.17,80.17,0,0,1-9.18-2.59l-1.62-.58c-0.43-.18-0.86-0.35-1.31-0.5l-0.05,0-0.87-.34-0.43-.21c-1.05-.5-2.11-1-3.15-1.52a80.81,80.81,0,0,1-8.39-4.92q-0.85-.57-1.69-1.17l-1.28-1-0.6-.51c-0.81-.76-1.66-1.46-2.47-2.23-1.26-1.2-2.44-2.46-3.6-3.75-0.26-.29-0.5-0.59-0.75-0.89s-0.53-.74-0.8-1.18c-0.87-1.39-1.64-2.8-2.44-4.23l-0.1-.17q-0.39-1.06-.74-2.14c-0.54-1.68-1-3.38-1.4-5.11q-0.22-1-.42-2c0-.21-0.28-1.71-0.39-2.35,0-.3-0.06-0.58-0.07-0.62-0.07-1.17-.19-2.34-0.24-3.51q-0.14-2.85-.07-5.7t0.32-5.75c0-.45.09-0.9,0.14-1.36,0-.2.2-1.4,0.3-2a82.21,82.21,0,0,1,2.76-11.15c0.22-.67.44-1.35,0.68-2,0,0.07.67-1.73,0.88-2.31l0.31-.69c0.51-1,1-2,1.54-3.06l4.85-7.34c4.59-5.26-.47-8.85-4.41-14.54-1.71-2.66-8.28-2.91-11.94-3.86q-19.06-4.95-38.36-8.8c6-3.18,31.62-15.46,38.08-17.3,1.48-.42,10.08-3.15,12-3.65-0.39-.13-0.65-0.26.19,0,17.6,4.34,8.4,1.57,24.89,6.56,3.22,1,33.25,5.24,36.44,6.33-8,3.88-30.41,17.8-35.71,25.29-13.69,19.34-11,49,9.1,62.79,11.13,7.63,28.11,8,37.27-2.92,9.51-11.35,8-28.08-4.64-36.35-6.55-4.3-16-1.31-19.84,5.2a14.45,14.45,0,0,0-1.17,2.55l-0.1-.31c-0.09-.29-0.15-0.49-0.2-0.63a7.22,7.22,0,0,0,0-.76c0-1.54,0-3,.09-4.57l0.07-.26c0.16-.66.28-1.32,0.45-2s1.41-3.79,1.17-3.47c0.62-1.21,1.3-2.39,2-3.54l0.2-.32c0.43-.5.88-1,1.33-1.45s1.06-1,1.59-1.51l0.44-.44h0a36.72,36.72,0,0,1,4.92-3c3.93-2,10.26-3.24,15.27-3.27,1.73,0,3.45.1,5.18,0.2l0.62,0c0.7,0.11,1.4.25,2.1,0.39q2.64,0.53,5.23,1.3c1,0.3,2,.64,3,1,0.24,0.09,1.36.61,1.38,0.6a24,24,0,0,1,6.9,4.8s0.46,0.52.79,0.87S640,728,640,728.11c0.4,0.65.76,1.33,1.15,2l0.7,1.36q-0.47-1.34.05,0.07a56.22,56.22,0,0,1,2.66,9.76l0.19,0.92c0.1,0.74.16,1.49,0.23,2.24,0.2,2.19.33,4.39,0.39,6.59A50.74,50.74,0,0,1,641.39,773.27ZM619.5,717.5c1.88,0.12.66,0.09,0,0h0Zm25.31,24.79c0.27,1.34.1,0.6,0,0h0Zm81.7-107.78c-18-14-40.46-24.81-62.35-31.88-45-14.55-92.42-16.56-139.41-16.78a610.43,610.43,0,0,0-67.85,3.08c-1.1.12-2.2,0.26-3.31,0.38l-0.35,0h0c-2,.33-4,0.58-5.94.9q-6.8,1.09-13.55,2.46c-3.66.74-7.31,1.55-10.94,2.45a301.58,301.58,0,0,1-26.23-21.6l0.07,0c-10-9.14-19.66-18.77-29.49-28.4-1.59-1.56-3.22-3.16-4.87-4.76a11.29,11.29,0,0,0,.58-4.57l-3.39-40.62c46-21.67,94.13-40.93,145.28-42.5,51.55-1.58,101.86,11.18,150.26,28.89,13.09,4.79,26.06,9.7,37.7,15.16,12.09,5.68,22.29,11.66,31.12,20.74a13,13,0,0,0,2.25,1.83,939,939,0,0,0,3.76,117.32A21,21,0,0,1,726.51,634.51ZM740.81,491a17.5,17.5,0,0,0-1.95.84c-18-15.85-40.93-24.7-63.08-33.29-25.82-10-52.22-18.7-79.23-24.9-54.56-12.51-110.54-14-164.62,1.68-29.45,8.54-57.65,21-85.37,34-48.1-17.1-96.52-33.3-144.74-50,33.26-13.32,65.17-30.63,97.09-46.35L439.4,303.67c12.31-6.06,24.63-12.1,36.88-18.28,8.69-4.39,15.91-7.69,24.9-9.91,19.25,14.74,41.57,24.4,63.37,34.93,26.94,13,53.71,26.49,81.17,38.37C699.26,372,754.95,390,808.15,413.85a627.85,627.85,0,0,1,62.23,32Q805.45,468,740.81,491ZM850.48,723.66l-0.44-.17c0.18,0,.34.11,0.51,0.17h-0.07Zm17-100.59c-0.41.41-.35,0.21,0.16-0.59A0.47,0.47,0,0,1,867.44,623.07Zm-0.13-1.4c-1.31-1.42.17-.49,0.38,0.32A2.67,2.67,0,0,0,867.32,621.66Zm41,1.89,0.14,0.43A1.12,1.12,0,0,1,908.28,623.56Z" transform="translate(-142.87 -245.61)"/></svg>