<svg id="Layer_1" data-name="Layer 1" xmlns="http://www.w3.org/2000/svg" viewBox="0 0 760.07 849.29"><defs><style>.cls-1{fill:#fff;}</style></defs><title>tventertainment</title><path class="cls-1" d="M933.8,558.54c-0.46-26.56-.42-53.1-0.64-79.66,2.11-23-16.83-46-34.51-58.35-23.2-16.17-54.92-13.81-81.76-13.73-65,.2-130.08-0.77-195.12-1.53L522.2,404.1a1719.81,1719.81,0,0,0,63.9-171.33c3.82-12.21,10.23-27.65,1.89-39.44-9-12.72-27.42-10-37,.37-4.84,5.24-7.84,11.58-10.75,18q-5,11-9.84,22.06-10,22.75-19.39,45.74-17.78,43.39-33.44,87.59-18-21.43-36.28-42.64c-33.13-38.6-66.68-76.87-101-114.42-17.77-19.45-35.74-38.71-54.15-57.55Q274,140.08,261.6,128c-8.69-8.41-18.12-20.09-30.55-22.29-8.58-1.52-18.06.84-24.27,7.21s-7,16.1-4,24c3.14,8.18,10.15,11.86,15.6,18.14,6,6.89,11.48,14.2,17.4,21.15,25.47,29.88,52.75,58.17,78.15,88.12,24,28.26,48.89,55.42,74.66,82.05,17.61,18.2,34.61,37,52.34,55.09-34.62-.3-69.25-0.64-103.87-0.8-39-.18-79.51.74-116.56,14.41-17,6.27-33.79,17.33-40.42,35-1.87,5-2.31,10.47-2.82,15.73-1.27,13.05-1.64,26.21-2,39.31-1.16,41.69-1,83.43-.86,125.13q0.31,68.32,1.38,136.63c0.41,29,1,58,1.27,87q0,2.23,0,4.45c0.12,22.7,5.13,45.46,20.07,63.16,16.38,19.4,42.41,27.6,66.75,30.8,28.92,3.8,58.59,1.92,87.63.5,30.9-1.52,61.77-3.26,92.7-3.84,123.64-2.32,247.36,7.08,370.93,0q25.57-1.48,51.07-4c7-.7,14.76-0.62,21.42-3.13a48.92,48.92,0,0,0,14-8.51c19.84-16.51,31.84-44.75,31.65-70.31C932.38,761.51,935.55,660,933.8,558.54ZM744,872.43c-8.53,8.92-20.54,12.36-32.53,13.07-9,.53-18.16,1.19-27.22,1.32-62,.86-124,1-186,1.52-58.73.49-117.45,1.13-176.18,1.13-8.57,0-17.09.88-25.59-.64A31.39,31.39,0,0,1,272.2,869c-3.75-9.61-3.38-20.58-2.94-30.72,0.26-6,.78-12,0.67-18-0.14-8-2-15.75-2.85-23.65-1-9.23-.77-18.66-0.93-27.94q-0.27-15-.44-30-0.33-29.22-.35-58.44-0.05-59.16.9-118.32c-0.7-6.1-1.08-12.24-1.19-18.38-0.26-14.66.28-31.34,7.39-44.55,8.13-15.13,26.79-23.31,42.64-27.17,20.31-4.95,41.85-5.86,62.66-6.55,22.89-.76,45.81-0.4,68.71-0.21l138.8,1.2c23.11,0.2,46.24.2,69.35,0.7,21.54,0.47,44.21.89,65.23,6.08,8.87,2.19,17.72,6,24.21,12.62,6.88,7,10.39,16.42,11.89,26a118.45,118.45,0,0,1,1.38,16.73c0.25,15,.16,30.1.11,45.14-0.14,47-.52,94.05-0.69,141.08-0.08,20.21-.14,40.41,0,60.62,0,6.7.09,13.4,0.24,20.1,0,2.09.1,4.18,0.2,6.27a9.76,9.76,0,0,1,.3,2.34c0,3.81.23,7.61,0.38,11.41C758.64,834.87,758.38,857.43,744,872.43Zm81-79.83c-3.14-6.25-1-14.56,4.56-18.79s12.71-4.06,18.91-1.81l7.75,3.75c2.18,6,1.53,8.58.63,13.18s-4.57,8.32-8.81,10.33C840.07,803,829,800.51,825,792.6Zm33.78,72.49c-2.49,2.14-3.32,3.19-7.19,5.14s-8.64,1.45-12.58-.37c-5.89-2.72-10.49-8.76-10.2-15.24s6.47-12.49,12.88-11.44c3.36,0.55,6.2,2.74,8.73,5,4.28,3.85,8.4,8.69,8.56,14.45Zm-1.44-144.51c-1.67,4-5.62,6.72-9.8,7.9-6.24,1.76-13.67.17-17.66-4.94s-3.21-13.7,2.33-17.07c2.91-1.77,6.49-1.95,9.9-1.87,5.76,0.14,12,1.14,15.9,5.41l1.44,2C859,715.25,859.05,716.58,857.38,720.58Zm-7-59.27c-9.71.06-20.71,0.25-24.4-8.73s2.31-20.69,11.83-22.59c5.43-1.08,11,.7,16.08,3,2.83,1.28,7.95,3,7.95,10.27C861.86,643.25,860.25,661.25,850.41,661.31Zm6.8-139.65c-5.79,6.67-15.31,10.26-23.85,8-6.15-1.63-11.2-5.92-15.86-10.26-2-1.86-4-3.84-4.9-6.42-1.35-3.93.27-8.22,2.15-11.92,2.9-5.71,6.66-11.26,12.18-14.5s10.59-1,15.78-1l10.54,2.17c4.68,3.05,8.51,10.73,9.48,16.83S861.26,517,857.21,521.66Z" transform="translate(-174.27 -105.27)"/><path class="cls-1" d="M354.74,549.12c-0.24-5.44-.53-11.1-3.14-15.88l-2.94-5.91c0-5.16-11.38-5-16.37-3.65s-8.37,6.21-9.53,11.25-0.49,10.28.07,15.41c1.36,12.38,2.11,24.81,2.48,37.26l31.81,16.27Z" transform="translate(-174.27 -105.27)"/><path class="cls-1" d="M330.36,814.74c1.25,6,2.84,12.31,7,16.81s11.85,6.37,16.56,2.4c3.28-2.76,4.22-7.35,4.86-11.59,6.06-39.7,4.33-80.12,2.58-120.24l-4.26-97.93-31.82-16.4C327.54,663.62,314.95,740.5,330.36,814.74Z" transform="translate(-174.27 -105.27)"/><path class="cls-1" d="M325.32,587.6v0.2l31.82,16.4v-0.33Z" transform="translate(-174.27 -105.27)"/></svg>