<svg id="Layer_1" data-name="Layer 1" xmlns="http://www.w3.org/2000/svg" viewBox="0 0 795.59 654.48"><defs><style>.cls-1{fill:#fff;}</style></defs><title>fashion</title><path class="cls-1" d="M612.93,833.45c-65.36,15.65-158.44-.69-196.68,2.4-24-3-40.5-20.9-54.79-39.84-22.3-29.55-44.66-59.07-67.54-88.18-7.29-9.27-13.55-23.64-28.28-19.67s-12.74,19.29-13.86,31.14c-3.05,32.23-5.62,64.51-8.34,96.78-1.12,13.26-4.24,24.59-21,24.58-16.92,0-19.71-11.82-20.88-24.81-2.49-27.63-5.34-55.25-7-82.94-2.48-41.68-7-82.51-22-122.3-15.82-41.78-9-81.9,19.78-117.35,19.66-24.2,36.5-28.34,57.69.67,46.4,63.52,96.12,124.59,142.74,188,26.39,35.86,56.7,50.87,99.24,31,5.16-4.2,11.7-6.22,16.69-2,34.67,29.22,69.75,58,101.69,90.32C621.38,812.34,620.12,822.06,612.93,833.45Z" transform="translate(-164.2 -186.17)"/><path class="cls-1" d="M723.44,583.15c3.56-36.49-24.52-91.47,4.22-121.78,26.34-27.78,82.2-11.49,125-14,91.21-5.29,116.69,31.29,82.11,117.86-8,20,1.6,31.49,10.43,46.14,33.25,55.2,7.58,107.24-56.43,113.06-41.51,3.77-83.42,3.19-124.93,6.95-27.31,2.47-35-9.12-35.2-34.06C728.37,661.83,725.56,626.35,723.44,583.15Z" transform="translate(-164.2 -186.17)"/><path class="cls-1" d="M554.29,567.45c-13.58,32.62-42.77,57.14-71.94,77-25.5,17.4-36.71-18-54.19-29.9-33.49-22.89-39.62-52.46-29.21-91.93,16.07-60.9,26-123.4,38.75-185.18,3.74-18.14,6-35.61,32.51-36.47,27.66-.9,33.51,15.2,37.71,36.23C523,412.68,538.28,488.07,554.29,567.45Z" transform="translate(-164.2 -186.17)"/><path class="cls-1" d="M661.39,593.66c-2.42-49.36-5.82-98.7-6.95-148.08-1-41.67,18.47-71.07,59.52-83.17,11.92-3.51,26.29-4.07,32.39,9.92,6.43,14.76-3.2,22.66-16.67,26.74-29.67,9-34,31-32.43,58.36q7.71,136.45,13.15,273c1.09,27.51,8,48.3,38.33,54.61,12.8,2.66,24.79,8.93,18.87,25.21-5.19,14.28-18.43,14.53-31.28,13.27-37.09-3.64-64.33-35.18-67.75-81.82-3.61-49.27-5.1-98.7-7.52-148.06Z" transform="translate(-164.2 -186.17)"/><path class="cls-1" d="M474.13,186.7c28-.82,59-5,62.71,35,3,32.77-32.6,67.48-65.7,67.09-31.5-.37-64.17-33-62.34-65.53C411.3,178.73,446,187.51,474.13,186.7Z" transform="translate(-164.2 -186.17)"/></svg>