<?xml version="1.0" encoding="utf-8"?>
<!-- Generator: Adobe Illustrator 19.2.1, SVG Export Plug-In . SVG Version: 6.00 Build 0)  -->
<svg version="1.1" id="Layer_1" xmlns="http://www.w3.org/2000/svg" xmlns:xlink="http://www.w3.org/1999/xlink" x="0px" y="0px"
	 viewBox="0 0 932 932" style="enable-background:new 0 0 932 932;" xml:space="preserve">
<style type="text/css">
	.st0{fill:#FFFFFF;}
</style>
<g>
	<path class="st0" d="M432.1,681.9c3.6,4.6,5.5,7.7,8,10.2c37.1,37.2,74.2,74.3,111.3,111.5c7.7,7.7,16.4,12.3,27.5,10.1
		c11.2-2.2,19-8.9,22.2-20c3.2-11,0.3-20.7-7.8-28.8c-27.9-27.9-55.9-55.9-83.8-83.9c-2-2-3.9-4.2-7-7.6c4.7,0,7.6,0,10.6,0
		c37,0,74.1,0,111.1,0c17.9,0,27.5-9.8,27.6-27.8c0.1-28.5,0-56.9,0-85.4c0-4,0-8.1,0-13.6c3.5,2.9,5.8,4.6,8,6.6
		c27.4,24.5,54.8,49,82.3,73.3c2.5,2.2,6,3.4,9,5c1.1-3.4,3.3-6.9,3.3-10.3c0.2-80.1,0.2-160.3,0-240.4c0-3.5-2.1-6.9-3.2-10.4
		c-3,1.6-6.5,2.8-9,5c-27.5,24.4-54.9,48.9-82.3,73.4c-2.2,1.9-4.5,3.7-8.3,6.8v-81.7c-40.9,34.6-86.3,49.7-138,42.6
		c-51.8-7.1-91.5-34.2-121.2-77.5c-16.5,35.1-41.6,59.6-77.3,72.3c-35.5,12.6-70.5,9.6-105-7c-0.2,3.2-0.5,5.3-0.5,7.4
		c0,77.7-0.1,155.3,0,233c0,19.6,9.5,28.9,29,28.9c37.9,0,75.7,0,113.6,0c2.8,0,5.7,0,8.5,0c0.4,1.2,0.4,1.2,0.8,2.3
		c-2.3,1.9-4.8,3.6-6.9,5.7c-28.6,28.5-57.1,57.1-85.6,85.6c-7.8,7.7-11.9,16.7-9.4,27.7c2.4,10.8,9,18.2,19.7,21.4
		c11.5,3.5,21.2-0.1,29.4-8.3c38.9-38.9,77.8-77.8,116.6-116.7C427.4,688.9,428.9,686.2,432.1,681.9z M535.9,380.7
		c73.7,0.2,133.5-59.2,133.8-133c0.3-72.8-59.4-132.7-132.9-133.1c-72.8-0.4-133.4,59.9-133.4,132.7
		C403.5,320.7,462.8,380.5,535.9,380.7z M364,289.6c2-49.8-38.7-93.2-89.5-95.3c-51.1-2.1-94.9,38.5-96.8,89.8
		c-1.9,51.7,38.6,94.7,90.9,96.6C319.5,382.5,361.9,342,364,289.6z"/>
	<path class="st0" d="M432.1,681.9c-3.2,4.3-4.7,7-6.8,9.2c-38.8,38.9-77.7,77.8-116.6,116.7c-8.2,8.2-17.9,11.8-29.4,8.3
		c-10.7-3.3-17.3-10.6-19.7-21.4c-2.5-11,1.6-19.9,9.4-27.7c28.6-28.5,57.1-57.1,85.6-85.6c2.1-2.1,4.6-3.8,6.9-5.7
		c-0.4-1.2-0.4-1.2-0.8-2.3c-2.8,0-5.7,0-8.5,0c-37.9,0-75.7,0-113.6,0c-19.6,0-29-9.3-29-28.9c-0.1-77.7,0-155.3,0-233
		c0-2.1,0.3-4.2,0.5-7.4c34.6,16.6,69.5,19.6,105,7c35.7-12.7,60.8-37.1,77.3-72.3c29.7,43.3,69.3,70.4,121.2,77.5
		c51.7,7.1,97.1-8,138-42.6v81.7c3.8-3.1,6.1-4.9,8.3-6.8c27.4-24.5,54.8-49,82.3-73.4c2.5-2.2,6-3.3,9-5c1.1,3.5,3.2,6.9,3.2,10.4
		c0.2,80.1,0.2,160.3,0,240.4c0,3.4-2.1,6.9-3.3,10.3c-3-1.6-6.5-2.8-9-5c-27.5-24.4-54.9-48.9-82.3-73.3c-2.2-1.9-4.5-3.7-8-6.6
		c0,5.5,0,9.6,0,13.6c0,28.5,0,56.9,0,85.4c0,18-9.7,27.8-27.6,27.8c-37,0.1-74.1,0-111.1,0c-2.9,0-5.9,0-10.6,0
		c3.1,3.4,5,5.6,7,7.6c27.9,28,55.9,55.9,83.8,83.9c8.1,8.1,11,17.8,7.8,28.8c-3.2,11.1-11,17.8-22.2,20c-11,2.2-19.8-2.4-27.5-10.1
		c-37-37.2-74.2-74.3-111.3-111.5C437.6,689.5,435.7,686.5,432.1,681.9z"/>
	<path class="st0" d="M535.9,380.7c-73.1-0.2-132.4-60-132.5-133.5c-0.1-72.7,60.6-133.1,133.4-132.7
		c73.5,0.4,133.2,60.3,132.9,133.1C669.4,321.5,609.6,380.9,535.9,380.7z"/>
	<path class="st0" d="M364,289.6c-2.1,52.4-44.6,92.8-95.5,91c-52.3-1.9-92.8-44.9-90.9-96.6c1.9-51.3,45.7-91.9,96.8-89.8
		C325.3,196.4,366.1,239.8,364,289.6z"/>
</g>
</svg>
