<svg id="Layer_1" data-name="Layer 1" xmlns="http://www.w3.org/2000/svg" viewBox="0 0 941.11 613.41"><defs><style>.cls-1{fill:#fff;}</style></defs><title>GamingIcon</title><path class="cls-1" d="M1018.64,602.63c-1.2-23.74-3.83-47.51-8.94-70.74a390.09,390.09,0,0,0-20.6-64.29c-8.58-20.87-18.43-41.18-28.91-61.15-10.14-19.33-20.65-38.53-32.92-56.61-25-36.82-59.13-70.59-103.39-81.63,2.15-8.12,1.48-17.47-2-24.59-6.12-12.55-23.18-15-35.42-17.14-17.09-3-34.21-6-51.45-8.1-16-2-33.41-4.45-49.47-1.77-12.84,2.14-25.15,12-26,24.93-71.61-6.94-144-8.42-215.64-1.62a21.28,21.28,0,0,0,1.55-9c-0.62-7-5.74-12.81-12-15.7-7.08-3.27-15.37-3.78-23-4.41a211.41,211.41,0,0,0-27.17-.4c-17.88.83-35.64,3.51-53.23,6.73-15,2.75-31.7,4.42-45.52,11.3-16,8-19.51,23.65-19.84,40.05-6.64,3.05-13.51,5.58-20.18,8.57a208.34,208.34,0,0,0-26.12,14.06,159.74,159.74,0,0,0-37.47,33.54c-22,26.79-36.74,58.43-49.78,90.33-30.45,74.53-54.27,153.81-52.56,235.09,0.93,44.38,9.55,88.35,27.57,129a6.43,6.43,0,0,0,2,2.59c8.69,15.08,22.79,26.75,38.71,33.68,21.66,9.44,45.76,10,68.68,5.34,44.09-9,83.07-36.56,113.1-69.2,16.15-17.55,30.25-36.95,43-57.07,6.24-9.84,12.17-19.87,17.91-30,5.65-10,10.58-20.72,19.22-28.53s19.45-11.3,30.45-14.76c11.43-3.6,23-6.85,34.63-9.65a370.8,370.8,0,0,1,67.75-10.24A274.61,274.61,0,0,1,682,631.3c20.85,35,41.17,70.88,68.52,101.32,27.59,30.7,63.84,53.32,102.8,66.64A237,237,0,0,0,920,811.77l1.35,0.05,2,0.07a7.75,7.75,0,0,0,1.35-.08c17.94-.61,35-9.63,47.73-22.07,15.17-14.77,24.88-34,34.19-52.7,9.71-19.53,12-41.36,12.59-63C1019.75,650.29,1019.84,626.41,1018.64,602.63ZM423.45,467c-0.74,8-1.52,17.18-6,24.09S405.68,500,398,500.57c-13.42.95-27.12,1.29-40.63,1.37a195.61,195.61,0,0,1-.77,42c-0.84,6.47-2.49,13.14-7.57,17.65-5.24,4.65-12.48,5.23-19.16,5-14.68-.62-32.44-3.24-39.64-18-3.37-6.9-3.33-14.76-3.38-22.26q-0.08-11.74-.15-23.48c-13.86,1.51-28.59,2.6-42.24.88-7.1-.89-13.55-3.8-17.16-10.25-4-7.09-4.79-16.4-4.59-24.34a112.91,112.91,0,0,1,4-26c0.8-3,1.85-6.15,4.13-8.4,3-3,7.12-3.28,11.11-3.61,15.24-1.29,30.54-1.91,45.8-3a191.73,191.73,0,0,1-1-23.57c0.18-7.86.35-16.31,2.26-24,4.25-17.06,21.85-16.19,36.16-17.4,13.48-1.14,27.52,1.64,30.73,16.93,1.66,7.92.93,16.41,0.94,24.43q0,6.9,0,13.8,0,3.45,0,6.9v1.56c8.41,0.14,16.81.43,25.2,0.9s17.79,0.16,25.8,2.85C423.57,435.82,424.77,452.88,423.45,467Zm294.92,10.67c-5.68,14.64-19.89,24.95-35.76,23.41-8.5-.83-17.29-1.84-24.26-7.22-6.53-5-11-13.3-13.43-21.09-5-16,3.63-34.53,18.23-42.28,12.26-6.51,30.54-4.87,41.52,3.86a6.15,6.15,0,0,1,.5.38C718.07,445.59,724.77,461.19,718.38,477.69Zm64.49,94.81c-8.89,9.29-23.38,11.09-34.94,6.16-12.56-5.36-19.7-18.6-19-32,0.72-13.78,9.43-27.83,23.73-30.55,7.17-1.36,14.53-.26,21.41,2,6.59,2.14,13.68,4.53,16.25,11.53,0,0.06,0,.11.05,0.17C800.89,542.13,792.92,562,782.86,572.49Zm14.81-177.88c-2.79,17-17.9,28.66-35,28.28-16.14-.36-36.06-12.91-39.73-29.5-3.61-16.33,5.55-35.58,19.41-44.33a35.53,35.53,0,0,1,33.21-2.19,5.56,5.56,0,0,1,1.52.64c0.43,0.26.86,0.53,1.28,0.81a30.92,30.92,0,0,1,6.93,5.46,5.82,5.82,0,0,1,.76,1C795.87,365.2,800,380.22,797.68,394.61Zm73.68,90.17c-10,13.78-28.67,21.22-44.67,13.21-8.11-4.06-15-12.45-18.84-20.54a31.14,31.14,0,0,1,0-26.18,38.23,38.23,0,0,1,19.39-19c7.1-3.25,16.54-6.07,24.34-4.11,5.85,1.47,12.91,4.4,16.79,9.2,4.85,6,6.76,14.21,8.19,21.62a5.56,5.56,0,0,1,0,2.27v0.15C877.48,469.82,876.46,477.75,871.36,484.78Z" transform="translate(-78.47 -210.2)"/></svg>