<svg id="Layer_1" data-name="Layer 1" xmlns="http://www.w3.org/2000/svg" viewBox="0 0 333.77 329.41"><defs><style>.cls-1{fill:#fff;}</style></defs><title>health</title><path class="cls-1" d="M350.49,311.93c4.39,1.78,6,3.53,8.82,1.33,3.22-2.48,4.91-13.48,5.68-17,4.39-19.92.31-40.48-14.4-55.24-2,1.94-10.3,7.62-10.56,10.2-0.08.83,7.87,11.16,8.59,12.52a57,57,0,0,1,5.65,15.69C356.51,290.66,354.87,301.51,350.49,311.93Z" transform="translate(-138.84 -175.6)"/><path class="cls-1" d="M472.61,280.31c-81.65-15.56-99.39,36.07-99.39,36.07C441.19,345.22,472.61,280.31,472.61,280.31ZM452.79,289c-37.92,25.87-66.48,21.84-66.48,21.84C416.65,290.87,452.79,289,452.79,289Z" transform="translate(-138.84 -175.6)"/><path class="cls-1" d="M268.19,477.47c5.17,12.51,18,17.14,30.58,12.85-3.56-3.75-8.69-12.11-13.33-14C281.39,474.59,272.76,477.11,268.19,477.47Z" transform="translate(-138.84 -175.6)"/><path class="cls-1" d="M418,364.89c-10.43-19.75-28.63-25.25-49.43-27C359,337.07,350,336.3,342,330.42s-13.46-14.79-21.86-20.31c-40.35-26.53-83.52,13.59-87,53.93-2.81,32.61,6.43,85.6,45.83,91.64,4.13,0.63,8.75-.24,12.76.53,6,1.16,5.26,2.36,9.23,7.43a38.56,38.56,0,0,0,22.63,14c17.54,3.94,35.79-2.55,50.84-11.29C409.64,445.9,440,406.5,418,364.89h0Zm-164.1-11.26c8.66-18.87,22.16-33.45,42.84-39.1-26.89,20.59-37.17,61.84-39.57,93.84C251.14,391,248,371.47,253.91,353.63Z" transform="translate(-138.84 -175.6)"/><path class="cls-1" d="M206.91,379.82a108.15,108.15,0,0,1,14.65-54,111.9,111.9,0,0,1,25-29.68c2.61-2.19,12.57-7,13.31-9.59,3.62-12.51-19.7-20.13-27.69-20.49-9.31-.42-18.74,0-28.06,0-18.36,0-50.08-5.91-61.18,13-5.89,10-3.41,25.83-3.41,37V452.3c0,10.81-2.3,25.37,1.82,35.73,8.83,22.21,41.16,16.26,60,16.26,10.34,0,20.87.58,31.2,0,13-.73,31.26-10.82,27.81-27.07-1.56-7.33-10-10.31-16-15.58a112.41,112.41,0,0,1-19.47-22.46A108.5,108.5,0,0,1,206.91,379.82Zm-35,113.92c-18.84-6.86-17.16-24.95-17.16-41V323.93c0-16.28-2.06-34.89,17.16-41.9V493.74Z" transform="translate(-138.84 -175.6)"/><path class="cls-1" d="M275,205.32c-10.39-24.41-41.27-17.85-59.89-25.79-7-3-31.24-9.25-31.91,5.4-0.2,4.31,5.41,6.91,7.07,10.52,1.31,2.85,1.48,6.73,2.16,9.82-15.05,2.36-28.71,12.25-34.61,26.46H242c-5.91-14.21-19.57-24.1-34.62-26.46,1-4,1.15-10.8,4.47-13,5.53-3.66,22.22.56,28.36,1.92,15.5,3.42,33.86,14.21,22.7,32.24-13.61,22-37,16.91-58.83,16.91H166.27c-2.1,0-5-.49-7,0-8.83,2.08-8,10,.24,11.77s18.54,0,26.78,0h40.57c11,0,16.33-.3,26-6.1,15-9.06,30.22-24.86,22.21-43.67h0Z" transform="translate(-138.84 -175.6)"/></svg>