<svg id="Layer_1" data-name="Layer 1" xmlns="http://www.w3.org/2000/svg" viewBox="0 0 524.79 331.66"><defs><style>.cls-1{fill:#fff;fill-rule:evenodd;}</style></defs><title>hobbies</title><path class="cls-1" d="M561.88,136.57c8.84,3.65,5.37,24,5.37,31.15V394c0,15.54.32,31.11,0,46.64-0.12,6.09-.24,11.51-4,16.89-11.89,16.85-36.52,8.53-39.32-10.55-2.57-17.52-.18-37-0.18-54.66V351.87c0-4.83,2.61-19.23,0-23.46-1.71-2.77-14.43-4.55-18.46-8.58-5.75-5.75-7.25-12.85-7.67-20.65a374.49,374.49,0,0,1,.39-42.31,178.69,178.69,0,0,1,18.43-69.17C521.81,176.95,546.66,130.24,561.88,136.57ZM110.06,445c0,16.5-18.5,27.14-32.76,18.8C69.08,459,67,451.19,66.51,442.5c-0.95-15.87,0-32.1,0-48v-98.8c0-4.2,1.84-14,0-18-2.7-5.81-13.93-5-18.79-13.33-3.46-5.91-3-12.5-3-19V181.17c0-9.21-5-35.07,2.56-42.74,9.69-9.87,14.6,4.48,14.87,11.9,0.39,10.69,0,21.46,0,32.15,0,9.19-.44,18.5,0,27.68,0.56,11.73,13.67,19,17.41,4.08,3.89-15.49,0-36.47,0-52.5,0-5.44-2-15.34.69-20.54,6.24-12.29,16.29-1.6,16.73,7.46,1,20.45-1,41,0,61.5,0.36,7.43,6.25,19,14.86,10.22,4.47-4.55,2.57-14.92,2.57-20.68V164.5c0-5.91-1.44-14.15,0-19.9,3-12,15.32-10.43,17.41,1,1.26,6.84,0,15.11,0,22v65.31c0,6.71.59,13.73,0,20.42s-2.48,12.31-7.76,16.75c-3.14,2.65-12.7,3.84-14,5.78-1.69,2.5,0,13,0,15.85V445ZM310.35,179.43c-51,0-97.81,33-114.9,81.07-17,47.91-1.74,102.84,37.56,135.06s96.33,36.61,140,10.37c43.48-26.11,66.57-77.82,57-127.63C419.22,221.59,368.06,179.43,310.35,179.43ZM475.81,301.34c0,69.11-44.58,132.49-109.66,155.8-65.8,23.57-141.2,2.15-184.91-52.31-43.3-54-48.1-131.62-11.67-190.47,36.3-58.63,107.1-89.05,174.64-75C420,155.11,475.81,224,475.81,301.34Z" transform="translate(-43.14 -135.08)"/></svg>