<?xml version="1.0" encoding="utf-8"?>
<!-- Generator: Adobe Illustrator 19.2.1, SVG Export Plug-In . SVG Version: 6.00 Build 0)  -->
<svg version="1.1" id="_x31_" xmlns="http://www.w3.org/2000/svg" xmlns:xlink="http://www.w3.org/1999/xlink" x="0px" y="0px"
	 viewBox="0 0 260 260" style="enable-background:new 0 0 260 260;" xml:space="preserve">
<style type="text/css">
	.st0{fill:#FFFFFF;}
</style>
<path class="st0" d="M143,109.9c1.1-3,2-6,1.7-9.3c-0.6-7.8-3.8-3.9-6.8-4.3c-5.5-0.7-7.3-5.8-8.2-10.6c-1.1-6.2,2.3-8.2,5.4-12.8
	c0.7-1.1,1.9-1.3,2.9-1c0-0.1,0.1-0.2,0.1-0.2c0.7-1.5,3-1.6,4.1-0.5c2.2,2.3,4.2,4.5,7.7,5.4c0.2,0.1,0.4,0.1,0.6,0.1
	c0-0.2-0.1-0.4-0.1-0.6c-0.3,0-0.6-0.1-0.8-0.3c-2.2-1.9-3.3-4.5-5.2-6.6c-0.4-0.4-4.9-3.9-5.1-1.2c0,0.8-0.1,1.5-0.3,2.3
	c-0.3,1-1.4,1.2-2.2,0.6c-0.4-0.3-0.7-0.6-1-1c-0.7,0.1-1.5-0.4-1.5-1.2c0-0.9-0.1-1.8,0-2.7c0.1-0.4,0.3-0.7,0.6-0.8
	c0-1.3,0-2.6,1.8-3.4c1.5-0.7,5.5-1,3.9-3.2c-0.4-0.6-0.2-1.2,0.2-1.5c-4.3-5.3-9.7-9.8-15.9-13c-0.4,0.6-0.9,1-1.4,1.3
	c-3.1,1.8-8.4-0.4-6.3,5.8c0.3,0.9-0.7,1.9-1.6,1.6c-6.9-2.3-9.9-7.5-11.6-14.2c-0.7,0-1.5-0.1-2.2-0.1c-8.3,0-16.1,2-22.9,5.6
	c-0.1,0.5-0.2,0.9-0.6,1.4c-1.1,1.4-2.5,2.6-3.8,3.8c0.5-0.1,1.1-0.1,1.6-0.1c2.7-0.2,4-0.6,4-3.6c0-1.4,2.2-1.8,2.5-0.3
	c0.2,1,0.6,1.9,1.7,2.3c0.6,0.3,1.1,0.9,0.9,1.6c-0.9,2.8-5,2.3-5.1,5.2c0,0.4-0.2,0.7-0.4,0.9c0.4,0.9,0.9,1.6,1.2,1.7
	c1.3,0.2,3.3,0.4,4.4,1.2c1.5,1.7,3.3,2.1,5.6,1.3c-0.1-1-0.3-2-0.4-3c-0.1-1.4,0-2.2,0.3-3.6c0.3-1.7,2.5-2.3,3.8-1.5
	c1.6,0.5,3.1,1,4.7,1.5c1.5-0.2,3.4,0.7,3.3,2.5c0.4,0.9,0.9,1.8,1.3,2.7c0.2,0.1,0.3,0.3,0.5,0.4c3.3,0.9,6.8,3.4,4.5,6.7
	c-0.9,1.4-3.2,0.1-2.2-1.3c0.2-0.2,0.2-0.4,0.3-0.6c-0.1,0-0.3-0.1-0.4-0.2c-0.7-0.4-1.5-0.7-2.2-0.8c-0.3,0.2-0.6,0.4-0.9,0.5
	c-1.1,0.3-2.1,0.5-3,0.7c0.3,0,0.6,0,1,0.1c0.6,0.1,0.9,0.7,0.9,1.2c0,0.4,0.1,0.8,0.1,1.1c0.5-0.3,1.2-0.4,1.7,0.1
	c0.5,0.5,0.5,1.4,0,1.8c-1,0.8-1.9,1.5-2.8,2.4c-0.8,0.7-2.3,0.2-2.2-0.9c0-0.4,0.1-0.8,0.2-1.2c-0.1-0.1-0.3-0.1-0.4-0.2
	c-0.8-0.5-0.7-1.4-0.3-1.9c0,0,0,0-0.1,0c-0.1,0.2-0.1,0.3-0.3,0.4c-0.1,0.7-0.5,1.4-1.1,1.8c-2.2,1.3-3.8,3.1-5.3,5
	c0.3,0.3,0.5,0.7,0.3,1.2c-0.6,1.9-2.1,3.3-3.4,4.7c-0.6,0.7-1.6,1.5-1.9,2.4c-0.2,0.8,0.4,1.3,0,2.1c-0.2,0.5-0.6,1-1.2,0.9
	c0,0,0.1,0,0.1,0c-1.3,0.8-2.5-1.1-1.5-2c0-0.1,0-0.1,0-0.2c0-0.3,0-0.6,0-0.8c-3.5,1.4-8.7-0.9-9.2,5.4c0,0.6-0.3,1.1-0.6,1.5
	c1.1,2,3.8,1.1,5.5,0c1-0.7,2.1,0.4,1.9,1.4c-0.4,2.1,1.7,2.3,2.9,3.3c0.9,0.8,0.9,2,0.7,3.1c0,0,0,0.1,0,0.1
	c1.2,1.3,2.6,2.4,3.9,3.6c0.4-0.6,1.1-1,2-0.9c3.3,0.3,7.4,0.6,10,2.9c0.1,0.1,0.2,0.2,0.3,0.3c2.3,0.6,4,1.9,5.5,3.9
	c0.1,0.1,0.2,0.2,0.2,0.3c1.1,0.9,2.2,1.7,3.3,2.3c2,1,4.1,0.6,6.2,0.7c2,0.2,3.2,2,2.2,3.9c-1.2,2.3-2.7,4.2-4.2,6.3
	c0,0.5,0,0.9-0.3,1.4c-0.8,1.3-1.3,1.8-2.3,2.9c-0.6,0.6-1.4,0.8-2,0.7c-2.9,2.6-5.6,5.6-9.2,7c0,0-0.1,0-0.1,0
	c-1.4,1.7-2.7,3.5-3.9,5.4c1.6,0.2,3.3,0.2,5,0.2c16.2,0,30.5-7.7,39.6-19.5C141.3,115,142.1,112.3,143,109.9z M69.1,57.7
	c0.1-0.1,0.2-0.2,0.3-0.3c0,0.1,0,0.1,0,0.2C69.3,57.6,69.2,57.7,69.1,57.7z M91.6,135.1c-0.3-0.4-0.5-0.8-0.6-1.3
	c-0.1-1.2,0-2.5,0.3-3.8c-1-3.5-1.7-7-1.1-10.5c-1.2-0.9-2.6-1.7-4.1-3.2c-4.4-4.6-2.6-9.8,0.1-15c0.1-0.3,0.3-0.5,0.5-0.7
	c-1-0.9-2.1-1.9-3.1-2.9c-1.5-1.5-2.7-3.5-4.9-4c-1.5-0.4-2.7-0.7-3.9-1.7c-0.5-0.4-0.9-0.8-1.4-1.3c-0.1-0.1-0.2-0.1-0.3-0.2
	c-0.9,0.6-2.1,0.5-3.4-0.7c-1.9-1.6-3.4-4.8-4.1-7.4c-0.5-0.6-0.9-1.1-1.4-1.7c-0.4-0.4-0.6-0.9-0.7-1.5c-2.1-0.8-3.9-1.4-3.2-5.1
	c0.5-2.7,0.1-5.8,1.1-8.4c0.1-0.2,0.1-0.4,0.2-0.5c-1.1-0.2-2.2-0.5-3-1.3c-3.9,7-6.2,15.1-6.2,23.8c0,23.5,16.7,43.2,39,48.1
	C91.5,135.5,91.6,135.3,91.6,135.1z M193,202c-4.4-3.2-11.9-6.6-18-6.8c-0.3,0-0.6,0-0.9,0c-12.4,0-46.8,6.1-53.8,8.7
	c-3,1.1-6.3,1.7-9.7,1.7c-3.5,0-6.8-0.6-9.7-1.7c-13.9-5.3-65.2-41.9-85.1-71c-2.2-3.2-2.8-5.8-1.9-7.5c1-1.9,4.1-3,8.4-3
	c4.5,0,9.9,1.2,14.5,3.2l0.3,0.1l0.3-0.1c0.9-0.4,1.8-0.6,2.9-0.6c5.8,0,12.4,6.1,15.6,9c0.7,0.6,1.2,1.1,1.6,1.4l0.2,0.1
	c5.3,4.2,10.3,7.8,13.9,10.4c-1.8,0.3-3.5,0.6-5,0.9c-8.3,1.7-11.7,8.2-10.8,13.8c0.8,4.8,5.2,10.5,15.2,10.5c1.1,0,39-0.1,54.9,1.7
	c1.4,0.2,2.4,0.5,3.5,0.8c1.6,0.5,3.2,1,5.9,1c1.2,0,2.4-0.1,3.8-0.3c1.4-0.2,2.2-0.9,2.3-2c0.1-0.6-0.1-1.2-0.5-1.7
	c-0.4-0.5-0.9-0.8-1.5-0.9c-3-0.4-7-1.5-11.6-1.8c-21.5-1.5-56.1-1.5-56.9-1.5c-7.1,0-10.2-3.6-10.7-6.7c-0.6-3.4,1.7-7.5,7.2-8.6
	c9.2-1.9,21.5-2.5,33.5-3.1c7.4-0.4,15-0.8,22-1.4c5-0.5,9.4-1.9,14.1-3.4c6.2-2,12.5-4.1,21.1-4.2l0.7,0
	c25.7,0,44.9,22.9,45.1,23.2c0.2,0.2,0.3,0.4,0.5,0.5l42.1,26.5l-26.3,32.3L193,202z"/>
</svg>
