<svg id="Layer_1" data-name="Layer 1" xmlns="http://www.w3.org/2000/svg" viewBox="0 0 443.85 492.04"><defs><style>.cls-1{fill:none;}.cls-2{fill:#fff;}</style></defs><title>jewlery</title><path class="cls-1" d="M331.79,164.42c-21-46-77.09-66.87-123-45.9s-66.89,77.05-45.9,123,77.09,66.88,123,45.9S352.78,210.38,331.79,164.42ZM229.38,218c-6.2,2.83-28.77,17.85-35.3,15-17.23-7.47,10.83-17.45,14.5-19.13l36.18-16.52-17.47-38.27c-1.89-4.14-14.41-27.35,2.78-22.52,5.32,1.5,13.72,28.84,15.88,33.58l15.22,33.33Z" transform="translate(-46.89 -72.98)"/><path class="cls-1" d="M326.2,492.53a61.75,61.75,0,0,0,3.67,15,35.55,35.55,0,0,0,2,4.22,67.65,67.65,0,0,0,4,6.74,62.06,62.06,0,0,0,10.12,11,28.93,28.93,0,0,0,4.76,3.5,67.57,67.57,0,0,0,6.82,3.88,27.88,27.88,0,0,0,5.55,2.25,67.2,67.2,0,0,0,7.75,2.07,28.5,28.5,0,0,0,6.14.8,68.69,68.69,0,0,0,8.34,0,54.06,54.06,0,0,0,15.14-3.31A56.14,56.14,0,0,0,411.56,533a54.52,54.52,0,0,0,11.24-9.86,52,52,0,0,0,7.64-11.39A54.5,54.5,0,0,0,436.22,484a55.39,55.39,0,0,0-9.76-28.46c-5.61-8.3-14-14.83-23.92-19.44-0.18-.08-0.33-0.19-0.5-0.28L390,449c-4.42,4.82-13.25,4.83-17.68,0l-12.07-13.16c-0.17.09-.32,0.2-0.5,0.28C337.2,446.52,324.19,467.73,326.2,492.53Z" transform="translate(-46.89 -72.98)"/><path class="cls-2" d="M117.51,201L88.83,214.15c-10.83,5-30.27,9.51-38.79,17.76-11.16,10.82,10.48,40.6,16.47,53.72s14.35,49,29.81,47.63c11.05-1,26.5-12.13,36.62-16.77l30.85-14.13A129.77,129.77,0,0,1,117.51,201Z" transform="translate(-46.89 -72.98)"/><path class="cls-2" d="M377.15,205l28.16-13.57c8.37-4,29.8-9.68,35.51-17.11,8.46-11-12.57-41-18.06-53-5.68-12.43-14.32-47.41-28.37-48.25-8.84-.53-27.57,13.28-35.43,17.07l-28.1,13.54A129.93,129.93,0,0,1,377.15,205Z" transform="translate(-46.89 -72.98)"/><path class="cls-2" d="M230.07,136.57c-17.18-4.84-4.67,18.38-2.78,22.52l17.47,38.27-36.18,16.52c-3.67,1.67-31.73,11.66-14.5,19.13,6.53,2.83,29.1-12.19,35.3-15l31.78-14.51-15.22-33.33C243.78,165.4,235.39,138.06,230.07,136.57Z" transform="translate(-46.89 -72.98)"/><path class="cls-2" d="M290.55,299.67l7.36-7.36a12.69,12.69,0,0,1,17.68,0l3.7,3.7A114.46,114.46,0,0,0,334,282.55c49.18-53.6,37.11-141.69-25.12-179.81a117.85,117.85,0,0,0-71.47-17c-4.74.4-24.16,7.27-27.36,5.68-2.91-1.45-2.43-10.67-5.42-11.87-1.39-.55-7.44,3.69-8.76,4-8.38,2-17.14,7.83-25,11.43,7.81,17.12,2.6,14.61-10,28.35a117.68,117.68,0,0,0-6.42,151.7c32.06,41.41,87.15,54.51,133.44,38A12.71,12.71,0,0,1,290.55,299.67ZM162.87,241.55c-21-46,0-102,45.9-123s102-.05,123,45.9,0,102.05-45.9,123S183.85,287.51,162.87,241.55Z" transform="translate(-46.89 -72.98)"/><path class="cls-2" d="M452.34,450.46a76,76,0,0,0-21.18-31l-2.71,3A81.7,81.7,0,0,1,452.34,450.46Z" transform="translate(-46.89 -72.98)"/><path class="cls-2" d="M333.8,422.38l-2.68-2.93a77.09,77.09,0,0,0-20.17,27.78c-0.67,1.62-1.28,3.3-1.84,5A80.56,80.56,0,0,1,333.8,422.38Z" transform="translate(-46.89 -72.98)"/><path class="cls-2" d="M410.82,426.23a66.91,66.91,0,0,1,6.3,3.51l-1.17-9.1Z" transform="translate(-46.89 -72.98)"/><path class="cls-2" d="M419.54,416.72l-3.59,3.91,1.17,9.1c1,0.61,1.92,1.25,2.85,1.91l8.48-9.26A77.22,77.22,0,0,0,419.54,416.72Z" transform="translate(-46.89 -72.98)"/><path class="cls-2" d="M345.14,429.77a66.23,66.23,0,0,1,6.31-3.54l-5.13-5.6Z" transform="translate(-46.89 -72.98)"/><path class="cls-2" d="M345.14,429.77l1.18-9.14-3.59-3.92a77.28,77.28,0,0,0-8.92,5.67l8.5,9.28Q343.69,430.68,345.14,429.77Z" transform="translate(-46.89 -72.98)"/><path class="cls-2" d="M313.82,493.9a68.37,68.37,0,0,1,28.48-62.23l-8.5-9.28a80.56,80.56,0,0,0-24.7,29.85,75.56,75.56,0,0,0-3.67,17.32,89.67,89.67,0,0,0-.1,12.6,46.31,46.31,0,0,0,1.32,9.57,87.83,87.83,0,0,0,2.66,9.72,45.87,45.87,0,0,0,2.73,6.85,88.35,88.35,0,0,0,5.09,9.21c1.59,2.5,3.23,4.82,4.16,6A74.48,74.48,0,0,0,344.16,543C327.94,532.46,316,515.24,313.82,493.9Z" transform="translate(-46.89 -72.98)"/><path class="cls-2" d="M428.45,422.39L420,431.65c35.3,24.92,38.23,79.44,4.16,107.55A77.48,77.48,0,0,0,445.48,517a88,88,0,0,0,4.75-8.65,24.06,24.06,0,0,0,1.37-3.1q0.84-2.18,1.57-4.39a76,76,0,0,0,3.67-17.28,78.52,78.52,0,0,0-4.49-33.08A81.7,81.7,0,0,0,428.45,422.39Z" transform="translate(-46.89 -72.98)"/><path class="cls-2" d="M460.94,493.9a77.53,77.53,0,0,0-8.6-43.43,78.52,78.52,0,0,1,4.49,33.08,76,76,0,0,1-3.67,17.28q-0.73,2.22-1.57,4.39a24.06,24.06,0,0,1-1.37,3.1,88,88,0,0,1-4.75,8.65,77.48,77.48,0,0,1-21.35,22.23c-1.64,1.35-3.36,2.65-5.17,3.88-23.79,16.07-53.11,14-74.8-.1a74.48,74.48,0,0,1-22.87-19.48c-0.93-1.15-2.58-3.47-4.16-6a88.35,88.35,0,0,1-5.09-9.21,45.87,45.87,0,0,1-2.73-6.85,87.83,87.83,0,0,1-2.66-9.72,46.31,46.31,0,0,1-1.32-9.57,89.67,89.67,0,0,1,.1-12.6,75.56,75.56,0,0,1,3.67-17.32,81.54,81.54,0,0,0-8,31C299.7,508.64,311.25,533,330.53,549a89.21,89.21,0,0,0,62.22,15.26A88.11,88.11,0,0,0,433.18,548,82.63,82.63,0,0,0,460.94,493.9Z" transform="translate(-46.89 -72.98)"/><path class="cls-2" d="M323.79,411.45l7.33,8a74.51,74.51,0,0,1,7.81-6.05Z" transform="translate(-46.89 -72.98)"/><path class="cls-2" d="M301.08,483.26a81.54,81.54,0,0,1,8-31c0.56-1.7,1.17-3.38,1.84-5a77.09,77.09,0,0,1,20.17-27.78l-7.33-8,15.15,2a74.51,74.51,0,0,0-7.81,6.05l2.68,2.93a77.28,77.28,0,0,1,8.92-5.67L330.6,403.5a66.2,66.2,0,0,0-5.9,5,88.42,88.42,0,0,0-16,118.92A87.81,87.81,0,0,0,330.53,549C311.25,533,299.7,508.64,301.08,483.26Z" transform="translate(-46.89 -72.98)"/><path class="cls-2" d="M428.45,422.39l2.71-3a75.34,75.34,0,0,0-7.83-6l-0.45-.33-3.34,3.65A77.22,77.22,0,0,1,428.45,422.39Z" transform="translate(-46.89 -72.98)"/><path class="cls-2" d="M422.88,413.08l0.45,0.33a75.34,75.34,0,0,1,7.83,6l7.31-8a13.61,13.61,0,0,0,1-1.27,86.53,86.53,0,0,0-8.12-6.37Z" transform="translate(-46.89 -72.98)"/><path class="cls-2" d="M431.16,419.43a76,76,0,0,1,21.18,31,77.53,77.53,0,0,1,8.6,43.43A82.63,82.63,0,0,1,433.18,548a88.81,88.81,0,0,0,30.71-40.07c13-34.43,2.63-73.76-24.4-97.72a13.61,13.61,0,0,1-1,1.27Z" transform="translate(-46.89 -72.98)"/><path class="cls-2" d="M346.31,420.64l0.41-3.2-1.63-2q-1.2.6-2.37,1.24Z" transform="translate(-46.89 -72.98)"/><path class="cls-2" d="M419.54,416.72l3.34-3.65a14.66,14.66,0,0,1-1.61-1.34l-3.64,4C418.27,416,418.9,416.38,419.54,416.72Z" transform="translate(-46.89 -72.98)"/><path class="cls-2" d="M422.88,413.08l8.49-9.27c-0.58-.4-1.15-0.81-1.74-1.2l-8.36,9.13A14.66,14.66,0,0,0,422.88,413.08Z" transform="translate(-46.89 -72.98)"/><path class="cls-2" d="M351.44,426.23c0.65-.32,1.3-0.64,2-0.94-2.24-2.44-4.44-5.15-6.69-7.86l-0.41,3.2Z" transform="translate(-46.89 -72.98)"/><path class="cls-2" d="M345.09,415.48a70.87,70.87,0,0,0-10-10.19c-0.44-.35-1.73-2.5-2.38-2.59a3.6,3.6,0,0,0-2.1.81l12.11,13.22Q343.89,416.08,345.09,415.48Z" transform="translate(-46.89 -72.98)"/><path class="cls-2" d="M415.6,417.93l-6.75,7.37c0.67,0.3,1.32.61,2,.93l5.13-5.59Z" transform="translate(-46.89 -72.98)"/><path class="cls-2" d="M419.54,416.72c-0.63-.34-1.26-0.69-1.9-1l-2,2.22,0.35,2.71Z" transform="translate(-46.89 -72.98)"/><path class="cls-2" d="M351.37,359l-11.67,17.5,41.43,45.2,41.43-45.2L410.89,359H351.37Z" transform="translate(-46.89 -72.98)"/><path class="cls-2" d="M334.68,384l5-7.54-7-7.61Z" transform="translate(-46.89 -72.98)"/><path class="cls-2" d="M344.7,359h6.67l4.13-6.19Z" transform="translate(-46.89 -72.98)"/><path class="cls-2" d="M406.77,352.77l4.13,6.19h6.67Z" transform="translate(-46.89 -72.98)"/><path class="cls-2" d="M436.29,377.69v-3.14l-4.88-7.31a10.61,10.61,0,0,0-1.87,1.61l-7,7.61,5,7.54a14.3,14.3,0,0,0,2.44,2.8l6.45-7A11.92,11.92,0,0,1,436.29,377.69Z" transform="translate(-46.89 -72.98)"/><path class="cls-2" d="M427.58,384l-5-7.54-41.43,45.2,8.47,9.24,7.19-7.84a13.76,13.76,0,0,1,3.22-6.59l20.79-22.69a11.1,11.1,0,0,1,5.86-3.29L430,386.8A14.3,14.3,0,0,1,427.58,384Z" transform="translate(-46.89 -72.98)"/><path class="cls-2" d="M381.13,421.66l-41.43-45.2-5,7.54-2-15.15,7,7.61L351.37,359H344.7l10.79-6.19L351.37,359h59.53l-4.13-6.19L417.56,359h-6.67l11.67,17.5,7-7.61a10.61,10.61,0,0,1,1.87-1.61l-7-10.57c-2.81-4.21-4.41-9.24-9.09-10.2-7.9-1.63-17.89,0-25.93,0H358c-3.59,0-10.67-1.32-13.63.5-2.17,1.33-4.25,6.38-5.62,8.42L329,370c-0.48.72-1.84,2.26-3,3.81v3.88a14.09,14.09,0,0,1-.17,2.09,3.13,3.13,0,0,1,.29.33,98.77,98.77,0,0,0,9,10.28,11.8,11.8,0,0,1,6.38,3.39l20.79,22.69a13.76,13.76,0,0,1,3.22,6.59l7.19,7.84Z" transform="translate(-46.89 -72.98)"/><path class="cls-2" d="M381.13,440.14l8.1-8.84H373Z" transform="translate(-46.89 -72.98)"/><path class="cls-2" d="M373,431.3h16.2l0.37-.4-8.47-9.24-8.47,9.24Z" transform="translate(-46.89 -72.98)"/><path class="cls-2" d="M341.46,393.77a11.8,11.8,0,0,0-6.38-3.39c2.88,3,5.82,5.87,8.52,8.81l21.87,23.86a13.76,13.76,0,0,0-3.22-6.59Z" transform="translate(-46.89 -72.98)"/><path class="cls-2" d="M400,416.46a13.76,13.76,0,0,0-3.22,6.59l20.51-22.37a12.15,12.15,0,0,1,1.55-4.38,13,13,0,0,1,7.75-5.76l0.06-.06a11.1,11.1,0,0,0-5.86,3.29Z" transform="translate(-46.89 -72.98)"/><path class="cls-2" d="M418.84,396.3a12.15,12.15,0,0,0-1.55,4.38l9.3-10.14A13,13,0,0,0,418.84,396.3Z" transform="translate(-46.89 -72.98)"/><path class="cls-2" d="M326,373.8c-0.25.33-.5,0.66-0.73,1a14.45,14.45,0,0,1,.19,4.63l0.37,0.36a14.09,14.09,0,0,0,.17-2.09V373.8Z" transform="translate(-46.89 -72.98)"/><path class="cls-2" d="M325.43,379.42a14.45,14.45,0,0,0-.19-4.63,5.4,5.4,0,0,0-1.31,2.82A4.4,4.4,0,0,0,325.43,379.42Z" transform="translate(-46.89 -72.98)"/><path class="cls-2" d="M436.48,379.76l1.9-2.07-2.09-3.14v3.14A11.92,11.92,0,0,0,436.48,379.76Z" transform="translate(-46.89 -72.98)"/><path class="cls-2" d="M375.93,313.15l10.41,10.41V313.15H375.93Z" transform="translate(-46.89 -72.98)"/><path class="cls-2" d="M381.13,291.31l-5.2,5.2h10.41Z" transform="translate(-46.89 -72.98)"/><path class="cls-2" d="M375.93,293.85v2.67l5.2-5.2-5.65-5.65C375.28,288.19,375.93,292.58,375.93,293.85Z" transform="translate(-46.89 -72.98)"/><path class="cls-2" d="M386.33,296.51H375.93v16.34c0,2.16-1.41,10.74,0,12.46,1.1,1.34,8.28.33,10.41,0.33v-2.09l-10.41-10.41h10.41V296.8c0-1.93,1-8.14.46-11.16l-5.66,5.66Z" transform="translate(-46.89 -72.98)"/><path class="cls-2" d="M386.79,285.65a3.18,3.18,0,0,0-.46-1.3c-0.4-.53-9.71-1.14-10.41-0.33a3.12,3.12,0,0,0-.45,1.64l5.65,5.65Z" transform="translate(-46.89 -72.98)"/><path class="cls-2" d="M309.27,318.39l12.51,12.51h0l7.36-7.36v14.72l1.48,1.48c2-2,7.1-5.63,6.86-7.86s-7.73-7.73-9.38-9.38L315.58,310l-7.36,7.36V310h-7.94C301.88,312.6,307.82,316.94,309.27,318.39Z" transform="translate(-46.89 -72.98)"/><path class="cls-2" d="M308.23,303.5q-4,2.37-8.09,4.39a2.16,2.16,0,0,0-.25,1.12,2.52,2.52,0,0,0,.4,1h7.94V303.5Z" transform="translate(-46.89 -72.98)"/><path class="cls-2" d="M321.77,330.9h0l7.36,7.36V323.54Z" transform="translate(-46.89 -72.98)"/><path class="cls-2" d="M308.23,310h7.36l-6.81-6.81-0.55.32V310Z" transform="translate(-46.89 -72.98)"/><path class="cls-2" d="M308.23,317.35l7.36-7.36h-7.36v7.36Z" transform="translate(-46.89 -72.98)"/><path class="cls-2" d="M308.23,302.63l-1.48-1.48c-1.7,1.7-5.6,4.56-6.61,6.74q4.12-2,8.09-4.39v-0.87Z" transform="translate(-46.89 -72.98)"/><path class="cls-2" d="M308.77,303.18l-0.55-.55v0.87Z" transform="translate(-46.89 -72.98)"/><path class="cls-2" d="M462,310a2.92,2.92,0,0,0,.49-1.12c0.26-1.94-5.29-6-7-7.72L454,302.63V310h8Z" transform="translate(-46.89 -72.98)"/><path class="cls-2" d="M454,310h-7.36l7.36,7.36V310Z" transform="translate(-46.89 -72.98)"/><path class="cls-2" d="M454,317.35L446.68,310,434.17,322.5c-1.71,1.71-9.19,7.07-9.52,9.52-0.26,1.94,5.29,6,7,7.72l1.48-1.48V323.54l7.36,7.36h0L453,318.39c1.48-1.48,7.3-5.71,9-8.4h-8v7.36Z" transform="translate(-46.89 -72.98)"/><path class="cls-2" d="M454,310v-7.36L446.68,310H454Z" transform="translate(-46.89 -72.98)"/><path class="cls-2" d="M440.49,330.9l-7.36-7.36v14.72l7.36-7.36h0Z" transform="translate(-46.89 -72.98)"/><path class="cls-2" d="M301,377.69h10.41L301,367.28v10.41Z" transform="translate(-46.89 -72.98)"/><path class="cls-2" d="M284.34,367.28h-2.67c-1,0-5.59-.58-8.16-0.42l5.62,5.62Z" transform="translate(-46.89 -72.98)"/><path class="cls-2" d="M273.51,366.86a2.91,2.91,0,0,0-1.67.42c-0.79.83-.24,10,0.33,10.41a3.18,3.18,0,0,0,1.3.46l5.67-5.67Z" transform="translate(-46.89 -72.98)"/><path class="cls-2" d="M284.34,377.69V367.28l-5.2,5.2Z" transform="translate(-46.89 -72.98)"/><path class="cls-2" d="M284.63,377.69H301V367.28l10.41,10.41h0a10.57,10.57,0,0,1,1.7-6.31l0.69-1c-0.06-1.44-.28-2.62-0.84-3.06-1.75-1.36-10.14,0-12.25,0H284.34v10.41l-5.2-5.2-5.67,5.67C276.48,378.69,282.67,377.69,284.63,377.69Z" transform="translate(-46.89 -72.98)"/><path class="cls-2" d="M311.39,377.69h2.09c0-1.56.41-4.85,0.31-7.35l-0.69,1A10.57,10.57,0,0,0,311.39,377.69Z" transform="translate(-46.89 -72.98)"/><path class="cls-2" d="M477.92,377.69h10.41l-10.41-10.41v10.41Z" transform="translate(-46.89 -72.98)"/><path class="cls-2" d="M456.08,372.48l-5.18,5.18c0,0.19,0,.37,0,0.56,3.14,0.37,8.83-.53,10.69-0.53h16.34V367.28l10.41,10.41h2.09c0-2.45,1-9.21-.54-10.41-1.75-1.36-10.14,0-12.25,0H461.29v10.41Z" transform="translate(-46.89 -72.98)"/><path class="cls-2" d="M461.29,367.28h-2.67c-1,0-5.59-.58-8.16-0.42l5.62,5.62Z" transform="translate(-46.89 -72.98)"/><path class="cls-2" d="M461.29,377.69V367.28l-5.2,5.2Z" transform="translate(-46.89 -72.98)"/><path class="cls-2" d="M448.95,371l0.22,0.33a10.7,10.7,0,0,1,1.73,6.28l5.18-5.18-5.62-5.62a2.91,2.91,0,0,0-1.67.42,6.76,6.76,0,0,0-.39,2.94l0.19,0.29C448.71,370.68,448.83,370.86,448.95,371Z" transform="translate(-46.89 -72.98)"/><path class="cls-2" d="M448.59,370.5l0.36,0.54C448.83,370.86,448.71,370.68,448.59,370.5Z" transform="translate(-46.89 -72.98)"/><path class="cls-2" d="M449.12,377.69a3.18,3.18,0,0,0,1.3.46l0.35-.35a12.19,12.19,0,0,0-1.81-6.76l-0.36-.54-0.19-.26C448.37,373.23,448.74,377.4,449.12,377.69Z" transform="translate(-46.89 -72.98)"/><path class="cls-2" d="M450.74,378.21l0.14,0c0-.19,0-0.37,0-0.56l-0.14.14C450.76,377.94,450.75,378.07,450.74,378.21Z" transform="translate(-46.89 -72.98)"/><path class="cls-2" d="M450.76,377.8l0.14-.14a10.7,10.7,0,0,0-1.73-6.28l-0.22-.33A12.19,12.19,0,0,1,450.76,377.8Z" transform="translate(-46.89 -72.98)"/><path class="cls-2" d="M450.42,378.15l0.32,0.06c0-.13,0-0.27,0-0.4Z" transform="translate(-46.89 -72.98)"/><path class="cls-2" d="M448.59,370.5l-0.19-.29v0Z" transform="translate(-46.89 -72.98)"/></svg>