<svg id="Layer_1" data-name="Layer 1" xmlns="http://www.w3.org/2000/svg" viewBox="0 0 627.01 774.04"><defs><style>.cls-1{fill:#fff;}</style></defs><title>lifestyle</title><path class="cls-1" d="M397.92,166.2l0.15,0.24,85.68,110.84L465,301.91a152.85,152.85,0,0,0,27.49-13.28l4.58,5.92a147.64,147.64,0,0,1-16.47,8.91,215.27,215.27,0,0,1-43.92,14.44,44.67,44.67,0,0,0-29.11,65.66h60.21a35.21,35.21,0,0,1,25.5,10.94c64.61-22.72,98.59-60,116.35-91q1.59-2.77,3-5.46c22-41.8,20.08-79.17,19.79-83.29a44.42,44.42,0,0,0-47.4-41.14A44.88,44.88,0,0,0,543.38,221l0-.8c0,0.19.47,19-11.56,39.57A91.31,91.31,0,0,1,524,271l-4.69-6.07a84.13,84.13,0,0,0,5.64-8.26c0.54-.91,1.05-1.82,1.55-2.72l-1.92,0a41.71,41.71,0,0,0-12.33,1.87L426.42,144.71a3.37,3.37,0,0,0-.26-0.3L348.94,67.84a3,3,0,0,0-4.69,3.58Z" transform="translate(-152.8 -66.98)"/><path class="cls-1" d="M641.19,270.59a9,9,0,0,1,3.51.59,8.19,8.19,0,0,1-1.41,2.51l-22.61,29.78L607,321.5q-3.92,5.59-8.55,11.27l-36.57,48.17c-4.75,6.26-16.08,11.63-24.25,11.51l-18.52-.29q-9.95,4.52-21,8.53a35.58,35.58,0,0,1,2.94,6.08l36.4,0.56c12.82,0.19,28.78-7.44,36.33-17.39l48.94-64.48L654.12,284l37.87,52-69.32,96.83-11.41,15.94c-4.74,6.22-16,11.58-24.15,11.48l-83.88-3.64v14.9l83.37,3.61h0.21c12.57,0.19,28.14-7.16,35.86-16.83,0.15-.19.32-0.37,0.46-0.56L695,550.59a3,3,0,0,0,.38.41l38.41,34a59.65,59.65,0,0,1,26.78,23.69l6.22,5.5a3,3,0,0,0,4.54-3.74l-47.87-81.37a2,2,0,0,0-.21-0.3L644.92,427.38l62.3-87c0.06-.08.09-0.16,0.14-0.24s0.27-.46.4-0.7,0.21-.41.3-0.62a6.07,6.07,0,0,0,.23-0.69,6.35,6.35,0,0,0,.18-0.7,6,6,0,0,0,.09-0.7c0-.24,0-0.47,0-0.71s0-.49-0.05-0.73,0-.45-0.09-0.68-0.12-.48-0.19-0.71-0.14-.45-0.23-0.68-0.2-.41-0.3-0.62a6.85,6.85,0,0,0-.4-0.69c-0.05-.08-0.08-0.16-0.14-0.24l-49.12-67.48c-2.8-5.24-8.81-8.33-16.64-8.45l-5.34-.08c-1,4.69-2.33,9.65-3.94,14.83Z" transform="translate(-152.8 -66.98)"/><path class="cls-1" d="M415.87,711q-3.89-.24-7.76-0.41V624.84c42.29-11.33,73.62-50.36,73.62-96.79V419.18a14,14,0,0,0-13.92-14.12H298.13a14,14,0,0,0-13.91,14.12V437.5H357.4a30,30,0,0,1,29.79,30.22v52.13h59.46c6.39,0,13.82,1.82,14.21,10.42a19.54,19.54,0,0,1-.41,5c-4.19,33.81-29.61,61-62.27,67.19a76.08,76.08,0,0,1-14.2,1.33,119.26,119.26,0,0,1-26.13,50.24v56.49c-10.25.44-20.72,1.28-30.71,2.53-4.65.58-9.2,1.24-13.56,2V743l65.34,0c39.71,0,65.63.07,82.54,0L454,715.38A328.43,328.43,0,0,0,415.87,711Z" transform="translate(-152.8 -66.98)"/><path class="cls-1" d="M382.84,769.42q-0.82-.61-1.71-1.2a52.34,52.34,0,0,0-6.64-3.69c-17-8-43.74-11.59-68.86-13.07v-72a106,106,0,0,0,30.71-16.17,108.65,108.65,0,0,0,42.74-80.89c0.1-1.9.17-3.82,0.17-5.74V467.73a22,22,0,0,0-21.85-22.17H187.72a22,22,0,0,0-21.85,22.17V576.61c0,46.94,30,88.35,73.62,102.8v72c-41.06,2.42-86.42,10.48-86.69,34.24v0.83a14.07,14.07,0,0,0,3.94,9.53,11.27,11.27,0,0,0,8.07,3.56H380.33a11.26,11.26,0,0,0,8-3.55,14,14,0,0,0,3.94-9.51s0,0,0-.1V785.7C392.24,779.15,388.73,773.79,382.84,769.42ZM196.34,586.3c-0.13-.53-0.63-5.07-0.7-6-0.19-7.1,1.4-11.23,12.27-11.23H335.26c6.39,0,13.82,1.82,14.24,10.67,0.86,29.66-28.79,73.34-76.94,73.34C233.89,653,201.84,624,196.34,586.3Z" transform="translate(-152.8 -66.98)"/><path class="cls-1" d="M778.37,734.6L749.66,628.45a41.55,41.55,0,0,0-50.89-29.22l-76.1,20.58-123.86,33.5a41.51,41.51,0,0,0-30.56,43.09,41.92,41.92,0,0,0,1.34,7.8l4.35,16.08L480.08,743l5.79,21.42,12.42,45.92a41.56,41.56,0,0,0,50.89,29.23l73.49-19.88L749.14,785.5A41.54,41.54,0,0,0,778.37,734.6ZM516.82,790.87l-5.34-19.75-1-3.58,3.58-1,108.58-29.37,8.65-2.34,2.92-.79,3.58-1,1,3.58,5.34,19.75,1,3.58-3.58,1L637,762.21l-14.35,3.88-101.3,27.4-3.58,1Zm149.84-20a13.38,13.38,0,0,1-11.31-9.79l-5.64-20.83a13.41,13.41,0,0,1,9.42-16.4l60.33-16.32a13.37,13.37,0,0,1,16.4,9.42l5.64,20.83a13.4,13.4,0,0,1-9.42,16.4l-60.33,16.31A13.36,13.36,0,0,1,666.66,770.84ZM489.73,681.94a22.81,22.81,0,0,1,13.92-10.73l119-32.19,80.93-21.89a23,23,0,0,1,28.17,16.17l5,18.61L622.67,682.77,506.31,714.24,492.51,718l-4.11-15.2-0.92-3.4A22.82,22.82,0,0,1,489.73,681.94Z" transform="translate(-152.8 -66.98)"/></svg>