<?xml version="1.0" encoding="utf-8"?>
<!-- Generator: Adobe Illustrator 19.2.1, SVG Export Plug-In . SVG Version: 6.00 Build 0)  -->
<svg version="1.1" id="Layer_1" xmlns="http://www.w3.org/2000/svg" xmlns:xlink="http://www.w3.org/1999/xlink" x="0px" y="0px"
	 viewBox="0 0 1080 1080" style="enable-background:new 0 0 1080 1080;" xml:space="preserve">
<style type="text/css">
	.st0{fill:#FFFFFF;}
</style>
<path class="st0" d="M979.6,515.3C979.6,515.3,979.6,515.3,979.6,515.3C979.6,515.3,979.6,515.2,979.6,515.3c-2.8-23-5.6-46-8.5-69
	c-1.3-10.2-2.9-20.4-18.5-14.5c0,0,0,0,0,0c0,0,0,0,0,0c-8.4-18.8-16.9-37.6-25.3-56.4c6.4-32-18.7-49.6-36.2-70.7h0
	c-4.8-21.5-21.3-35.1-37.2-48.9C769.5,183,660.4,144.8,550.4,140.5v-0.4c-3.5,0-6.9,0-10.4,0.1c-3.5-0.1-6.9-0.1-10.4-0.1v0.4
	c-110.1,4.3-219.2,42.5-303.6,115.4c-15.9,13.7-32.5,27.4-37.2,48.9h0c-17.5,21.1-42.5,38.7-36.2,70.7
	c-8.4,18.8-16.9,37.6-25.3,56.4c0,0,0,0,0,0c0,0,0,0,0,0c-15.5-5.9-17.2,4.3-18.5,14.5c-2.9,23-5.7,46-8.5,69c0,0,0,0,0,0
	c0,0,0,0,0,0c-20.1,102.2-18.5,204.6,0,306.7c9.1,50.3,10.9,50,62.4,59.2c10,1.8,20,3.6,30,5.5c12.6,23.6,74.3,66.8,176.6,49.2
	c13.5-6.5,12.5-18.8,13.6-30.3c1.8-18.6-3.6-36.7-5.2-55c-6.6-73.4-12.7-146.9-19.9-220.2c-1.2-12.4-2.4-42.4-20.6-45.1
	c-83.2-6.8-155.1,48.8-161.9,73c0,0,0,0,0,0c0,0,0,0,0,0c-2.8,7.9-11.2,13.7-24.1,13.3c-0.3-46.4-1.8-92.5-7.5-138.3
	c1.7-12.4,3.6-24.8,5.1-37.2c2.1-17.5,11.9-35.5-3.5-51.9c8.3-18.5,16.5-37,24.8-55.6c30.7-3.8,35.8-33.7,55.2-48.9l0,0
	c-7.4-2.4-14.8-4.9-20.9-8.5c-1.9-1.1-3.7-2.3-5.3-3.7c1.6,1.4,3.4,2.6,5.3,3.7c6.1,3.6,13.5,6.1,20.9,8.5l0,0
	c59.2-47.9,123.7-86.5,201-102.7c38.5-8.1,76.4-12.9,113.6-14.1c37.2,1.2,75.1,6,113.6,14.1c77.3,16.2,141.8,54.8,201,102.7l0,0
	c7.4-2.4,14.8-4.9,20.9-8.5c1.9-1.1,3.7-2.3,5.3-3.7c-1.6,1.4-3.4,2.6-5.3,3.7c-6.1,3.6-13.5,6.1-20.9,8.5l0,0
	c19.5,15.2,24.5,45.1,55.2,48.9l0,0h0l0,0c8.3,18.5,16.5,37.1,24.8,55.6c-15.3,16.5-5.5,34.5-3.5,51.9c1.5,12.4,3.4,24.8,5.1,37.2
	c-5.7,45.8-7.2,91.8-7.5,138.3c-12.9,0.4-21.3-5.5-24.1-13.3c0,0,0,0,0,0c0,0,0,0,0,0c-6.8-24.3-78.7-79.8-161.9-73
	c-18.2,2.6-19.4,32.7-20.6,45.1c-7.3,73.4-13.3,146.8-19.9,220.2c-1.7,18.3-7,36.4-5.2,55c1.1,11.5,0.1,23.8,13.6,30.3
	c102.4,17.6,164.1-25.6,176.6-49.2c10-1.8,20-3.7,30-5.5c51.5-9.2,53.3-8.9,62.4-59.2C998.1,719.9,999.7,617.5,979.6,515.3z"/>
</svg>
