<svg id="Layer_1" data-name="Layer 1" xmlns="http://www.w3.org/2000/svg" viewBox="0 0 359.07 473.27"><defs><style>.cls-1{fill:#fff;fill-rule:evenodd;}</style></defs><title>realestate</title><path class="cls-1" d="M440.24,251.49V375.66c0,3.74,1.84,17.83-.86,19.73-1.64,1.15-8.19,0-10.17,0H414.9c-1.71,0-7.7,1-9.14,0-0.95-.69-1.47-6.54-1.92-8.12a38.71,38.71,0,0,0-5.55-11.7c5.52,0,15.35,2.08,20.31,0,2.55-1.07,1.64-.19,1.82-3.8,0.6-12.12,0-24.42,0-36.55V240c0-1.42-.94-7.29,0-8.43,1.17-1.42,9-.86,14.72-0.4a2,2,0,0,0,1.57-3.41L322.29,113.38l-10.7-10.69c-0.88-.88-4.13-5.33-5.43-5.43-2.28-.18-8.89,8.46-10.62,10.19L226.91,176.1l-51.62,51.64a2,2,0,0,0,1.58,3.41c5.66-.48,13.48-1.06,14.7.39,0.76,0.9,0,5.75,0,6.84V362.47c0,2.68-1.29,9.45,0,11.87,2,3.86,11.25-.62,15.42,1.23,3.41,1.52,3.7,15.28,4.4,19.82H187.47c-3,0-14.14,1.51-15.71-.63s0-11,0-13.49V263.58c0-1.82,1.29-10.41,0-11.86-2.12-2.38-18.22-.23-21.54-0.23H128.47a2,2,0,0,1-1.42-3.41L283.2,91.74,303.82,71.1a3,3,0,0,1,4.24,0L465.61,228.73l19.34,19.35a2,2,0,0,1-1.41,3.41H440.24ZM197.49,100.35a1,1,0,0,1,1-1h33.62c5,0,4.83-1,5,3.81,0.24,6.85.62,14.29,0,21.11-0.7,7.75-10.94,14.22-16.33,19.61L200.9,163.77a2,2,0,0,1-3.41-1.41v-62Z" transform="translate(-126.46 -70.22)"/><path class="cls-1" d="M264.81,410.45c0-24.29-.51-48.63,0-72.9,0.36-15.64,1.12-31.28,1.68-46.91,0.39-11-2.16-30.36,6.55-38.72a17.19,17.19,0,0,1,21.85-1.35c6,4.41,7.06,11.23,7.38,18.15,0.74,16.19,1.19,32.39,1.78,48.58,0.51,13.8-2,30.82,14.21,36.43,14,4.87,28.88,8,43.19,12.06,19.67,5.54,34.14,16.24,33,38.36-0.8,15.6-4.8,31.54-7.32,46.91-3.13,19.09-6.27,37.53-5.81,57,0.18,7.78.35,15.56,0.43,23.34,0.07,6.47-.62,11-8.35,11.62-13.06,1.07-26.66,0-39.76,0H282.59c-3.71,0-9,.74-12.33-1.24-5.56-3.33-4.53-11.78-5.3-17.37a87.83,87.83,0,0,0-4.08-18.12c-5.25-14.38-14.51-28.29-21.62-41.81-6.07-11.55-11.63-21.78-13.6-34.86q-3.68-24.36-7.35-48.72c-1-6.53-1.59-13.13,2.4-18.89,4.74-6.84,14.23-9.53,21.7-5.63,11.93,6.23,13.91,30.82,17,42.38,0.85,3.24,1.57,6.55,2.57,9.74,0.37,1.19,2.9,7.25,2.9,1.94" transform="translate(-126.46 -70.22)"/></svg>