<svg id="Layer_1" data-name="Layer 1" xmlns="http://www.w3.org/2000/svg" viewBox="0 0 776.6 909.47"><defs><style>.cls-1{fill:#fff;}</style></defs><title>Scienceandnatur</title><path class="cls-1" d="M571.81,991.79H544.6c-20.11-14.9-43.62-26.71-59.43-45.52-17.46-20.77-29.68-47.09-40.84-72.58-11.39-26-18.71-54-28.24-82.36-10.86,2.61-21.42,5.26-32,7.69-50.25,11.53-100.78,19.23-151.52,4.11-49.23-14.67-72.91-54.3-58.3-105.18,8.69-30.27,23.79-59.46,40.52-86.07,17.08-27.18,39.69-50.61,60.28-76.18-7.12-7.75-14.44-15.34-21.37-23.3-34.91-40.12-67.73-81.72-80.26-136-11.91-51.59,9.31-93.67,59.21-104.46,34.72-7.51,71.73-6.33,107.54-4.7,25.85,1.18,51.4,9.49,76,14.4C427.08,250.14,436,219.9,448,191.06c19.83-47.66,46-90.22,96.64-108.74h27.21c20.12,14.9,43.75,26.64,59.41,45.53,17.74,21.4,30.06,48.39,41.52,74.47C683.9,227.7,691,255,700.28,282.75c11-2.66,21.55-5.35,32.17-7.75,50.27-11.36,100.83-19.27,151.55-4,49.36,14.82,72.94,54.48,58.21,105.2-8.79,30.26-23.82,59.46-40.56,86.07-17.09,27.16-39.72,50.57-60.29,76.08,7.62,8.3,15.42,16.35,22.74,24.86C898.38,603,930.79,644.08,943,697.72c11.78,51.79-9.73,91.34-59.18,105-20.91,5.8-43.59,9-65.06,7.43-39.7-2.86-79.11-10.09-119.22-15.57-9.81,28.24-18.87,59-31.08,88.42C648.65,930.71,622.45,973.27,571.81,991.79ZM704,537.19c-1.3-24.38-2-49.3-4.4-74-0.59-6.14-5.25-14-10.31-17.18q-59.84-37.28-120.81-72.57c-5.11-3-14.4-3.38-19.37-.51q-61.87,35.64-122.52,73.52c-5.27,3.31-9.75,12.74-9.87,19.43q-1.24,71.56,0,143.14c0.12,6.58,5,15.74,10.38,19.1q59.72,37.49,120.78,72.65c5.11,3,14.39,3.35,19.37.49q61.86-35.65,122.54-73.46c5-3.1,9.2-11.26,9.8-17.49C702,586.17,702.67,561.93,704,537.19Zm-36.16,245c-35.68-15.71-68.84-30.45-102.16-44.77-3.75-1.61-9.08-2.36-12.63-.85-34.46,14.67-68.7,29.91-104.43,45.6,15.07,45,32.12,88.25,65.89,121.62,29.65,29.29,57.36,29.41,87,.41C635.44,871,652.48,827.61,667.84,782.19ZM667.64,292c-15.52-47.36-33.67-93-71.08-126.73-25.39-22.89-51.51-22.86-76.87.16-37.27,33.82-55.6,79.31-70.8,126.63,35.45,15.55,69.17,30.52,103.1,45a17.73,17.73,0,0,0,12.68-.07C598.56,322.52,632.26,307.55,667.64,292ZM299.21,513.28c30.45-24,59.35-46.55,88-69.48,3.31-2.65,6.91-7,7.43-11,5-38.43,9.39-77,13.92-115.18-33.7-12.53-101.25-14.37-133.14-4-40.87,13.32-55.35,40.88-43.64,84C243.87,442.13,270,477.82,299.21,513.28Zm518,0c29.61-36,57.17-73.08,68.55-120,9.68-39.94-3.73-65.49-41.71-78.09-45.16-15-90.46-8.45-136.41.72,4.81,40.39,9.26,78.94,14.19,117.42,0.44,3.47,3.36,7.35,6.19,9.61C757.16,466.13,786.53,489.1,817.21,513.24Zm-109.49,245c45.88,9.21,91.17,15.57,136.34.73,37.79-12.42,51.36-38.26,41.7-78.1-11.38-46.94-38.87-84-68.54-120-30.68,24.14-60.11,47-89.1,70.48-3.58,2.9-6.32,8.68-6.94,13.48C716.48,681.41,712.4,718.1,707.72,758.27Zm-299,.12C404,718.15,400,681.47,395.25,644.87c-0.62-4.81-3.35-10.61-6.93-13.51-29-23.46-58.43-46.33-89.09-70.46-29.78,35.82-57.22,73-68.63,119.88-9.72,39.93,3.89,65.77,41.67,78.15C317.41,773.72,362.74,767.24,408.72,758.38Zm121-404.75-90.94-31.71-18.87,97.56Zm57,0.05,109.9,65.85-19.11-97.7ZM319.11,537.2l71.54,64.49v-130ZM419.63,654.38L439,752.49l90.28-32.25Zm167,66.07L677.8,752l18.76-97.41ZM724.13,470.21c0,44.38,0,82.27,0,120.16,0,2.4.36,4.8,1,12.34l72-65.64Z" transform="translate(-169.96 -82.32)"/><path class="cls-1" d="M557.44,640.58c-55.92-.2-98.87-45.33-98.8-103.82,0.07-59.1,43.83-103.68,101.31-103.21,55.59,0.45,98.13,46,97.82,104.81C657.45,596.36,613.86,640.78,557.44,640.58Z" transform="translate(-169.96 -82.32)"/></svg>