<svg id="Layer_1" data-name="Layer 1" xmlns="http://www.w3.org/2000/svg" viewBox="0 0 755.52 586.08"><defs><style>.cls-1{fill:#fff;}</style></defs><title>sports</title><path class="cls-1" d="M509.2,671.87H396.5A32.63,32.63,0,0,1,378.4,667a21.21,21.21,0,0,1-10-16.68c-0.48-5.13-1-10.27-1.63-15.38-1.26-10.17,4-20,13.44-23.78a31.55,31.55,0,0,1,11.35-2C434,609,476.44,609,518.87,609a28.43,28.43,0,0,0,6.67-.66c9-2.19,13.14-9.52,10.57-18.47a32.19,32.19,0,0,0-1.83-4.8c-9.44-20.06-18.59-40.27-28.47-60.12a546,546,0,0,1-22.56-51.09c-3-8-5.71-16-6.8-24.53a12.34,12.34,0,0,1,2.49-9.87c7.29-9.13,15.5-17.41,25.16-23.86,12.85-8.58,26.24-16.34,39.46-24.35,13.54-8.2,27.15-16.28,40.74-24.4,9.74-5.82,19.55-11.53,29.2-17.5a28.59,28.59,0,0,0,7.06-6.09,11.35,11.35,0,0,0-.1-14.86,24.55,24.55,0,0,0-6-5.3c-8.89-5.52-17.9-10.84-26.88-16.2s-18-9.48-28.39-11a75.87,75.87,0,0,0-29.55,1.29c-21.36,5.28-42.8,10.26-64.22,15.34-10.74,2.55-21.5,5-32.23,7.62-5.28,1.26-10.51,1.58-15.63-.54-8.42-3.5-12.45-12.24-9.76-21.79,3.33-11.83,11.28-19.49,22.94-22.73,13.29-3.7,26.77-6.68,40.18-9.94,24.35-5.93,48.71-11.79,73-17.78,17.7-4.35,35.06-3.34,51.76,3.88,9.58,4.14,18.72,9.3,28.07,14q21.32,10.68,42.65,21.34,20.13,10.06,40.26,20.1,11.12,5.54,22.26,11c6.81,3.37,12.2,8.47,17.54,13.78,9.4,9.34,13.54,21.13,17,33.46,7.48,26.34,15.32,52.57,22.94,78.87,4,13.69,19.17,24,34.49,21.34,17.86-3.15,35.85-5.56,53.78-8.32,12-1.86,24-3.84,36.07-5.63,5.6-.83,11.19-1.95,16.91-0.65,12.52,2.85,18.19,14.4,12.42,25.88-4.95,9.84-13.33,15.27-23.88,17.56-14.51,3.15-29,6.18-43.57,9.28l-81.65,17.47c-3.43.73-6.85,1.55-10.31,2.07a27.14,27.14,0,0,1-30.63-19.35q-12.24-41.6-24.23-83.27c-1.38-4.77-3.15-9.35-6.33-13.24s-6.67-6.81-12-6.26a14,14,0,0,0-5,1.62c-11,5.9-22,11.8-32.85,17.92C655.85,428,642.12,436,628.33,444q-15.25,8.76-30.51,17.48a34.36,34.36,0,0,0-10.64,9.79c-6.85,9.3-8.23,19.37-4.71,30.26,0.94,2.91,1.62,5.91,2.67,8.78,8,22,16,44,24.22,65.87,5.43,14.54,11.12,29,16.78,43.44,4,10.32,8.34,20.55,12.25,30.92a25.33,25.33,0,0,1,1.88,9.77c-0.28,6.09-4.93,10.1-11.87,11.09a49.58,49.58,0,0,1-6.93.48Q565.33,671.89,509.2,671.87Z" transform="translate(-186.9 -223.59)"/><path class="cls-1" d="M372.44,767.51c0.15-7.85,3-14.49,9.27-19.3,4.83-3.73,10.07-7,15.09-10.44,8.17-5.66,16.3-11.38,24.48-17,9-6.23,18-12.5,27.19-18.57,9.33-6.2,20-9,30.81-10.87a114.18,114.18,0,0,1,17.84-1.4c17.73-.17,35.46-0.11,53.19,0a25.76,25.76,0,0,1,7.87,1.4c3.06,1,3.93,3.61,2.09,6.27a31,31,0,0,1-5.88,6.38c-5.27,4.28-10.8,8.23-16.16,12.4-10.45,8.13-20.83,16.35-31.27,24.47Q486.28,757,465.52,773c-13.23,10.25-26.41,20.56-39.71,30.72s-28.35,6.58-36.34-5c-3.8-5.51-8-10.75-12-16.15A24.59,24.59,0,0,1,372.44,767.51Z" transform="translate(-186.9 -223.59)"/><path class="cls-1" d="M796.54,223.59c31.14,0.18,57.8,24.12,58.09,57.13,0.29,33.3-26.72,57.68-57.82,58.11-30.85.42-58.66-25.31-58.84-57.28S765.06,223.23,796.54,223.59Z" transform="translate(-186.9 -223.59)"/><path class="cls-1" d="M347.13,384.51H211.78a47.36,47.36,0,0,1-19.44-3.68,16,16,0,0,1-3.77-2.37c-2.2-1.85-2.28-4.21,0-5.85a21.2,21.2,0,0,1,7.11-3.62c5.07-1.15,10.28-2.3,15.43-2.31q136-.2,272-0.07c7.62,0,15.08,1.15,21.68,5.3,1.22,0.77,2.63,2.42,2.62,3.65s-1.43,2.87-2.66,3.63c-6.84,4.22-14.51,5.31-22.37,5.31Q414.8,384.53,347.13,384.51Z" transform="translate(-186.9 -223.59)"/><path class="cls-1" d="M343.33,402.49H443.42a50,50,0,0,1,20.89,4.28l0.2,0.09c1.8,1.08,3.87,2.13,3.94,4.5s-1.93,3.65-3.81,4.56a47,47,0,0,1-18.82,4.46c-3.36.13-6.73,0-10.1,0H243.41c-6.79,0-13.41-.9-19.65-3.72a27.35,27.35,0,0,1-4.57-2.76c-1.75-1.25-1.53-3.74.24-5.13,4.76-3.76,10.41-5.09,16.22-5.81a81.1,81.1,0,0,1,9.84-.5Q294.41,402.45,343.33,402.49Z" transform="translate(-186.9 -223.59)"/><path class="cls-1" d="M347,456.35q-41.64,0-83.28,0c-6.86,0-13.56-1-19.82-4a14.79,14.79,0,0,1-3.36-2.19c-2.08-1.83-2.16-4.1.09-5.7a21.34,21.34,0,0,1,7.08-3.66c4.91-1.16,10-2.31,15-2.33q84.63-.24,169.26-0.08a45,45,0,0,1,16.85,3.19,19.67,19.67,0,0,1,4.1,2.27c3.1,2.23,3.17,5-.1,7a26.63,26.63,0,0,1-8.14,3.55,71.66,71.66,0,0,1-14.39,1.85C402.53,456.43,374.77,456.35,347,456.35Z" transform="translate(-186.9 -223.59)"/></svg>