<svg id="Layer_1" data-name="Layer 1" xmlns="http://www.w3.org/2000/svg" viewBox="0 0 389.4 416.24"><defs><style>.cls-1{fill:#fff;}</style></defs><title>tech</title><path class="cls-1" d="M295.65,264.56v-0.07Z" transform="translate(-129.88 -107.38)"/><path class="cls-1" d="M295.66,264.52c2.54-8.83,1.15-4,0,0v0Z" transform="translate(-129.88 -107.38)"/><path class="cls-1" d="M295.66,264.52v0C294.72,267.79,294,270.4,295.66,264.52Z" transform="translate(-129.88 -107.38)"/><path class="cls-1" d="M257.66,227.21a30.41,30.41,0,0,0-21.23,23.54,31,31,0,0,0,2.35,17.81c1.47,3.28,8.24,8.82,8.62,11.58,0.49,3.51-5.46,12.41-6.8,15.46-2.65,6-6,12.05-8.05,18.3-2.78,8.52.88,13.42,4.9,20.82l19.07,35.14c2.5,4.6,5.85,9,6.56,14.14,1.13,8.2,0,17.39,0,25.65v40.65c0,20.7-2,42.51,0,63.13,1.22,12.51,17.58,13.25,19.08.42,0.82-7,0-14.62,0-21.68V411.84c0-15.54,2.41-29.69-5.26-43.42-4.46-8-9-15.95-13.34-24l-9.77-17.9c-1.21-2.22-3.78-5.37-3.8-7.81,0-4.5,5-12.14,6.64-16.18s3.06-11.68,6.08-14.82c2.71-2.81,8.66-1.46,13.85-3.28a30.3,30.3,0,0,0,19.1-19.9l0-.07C302.26,241.54,280.42,220.32,257.66,227.21Zm6.08,41.29c-15.69-4.52-8.68-28.86,7-24.34h0C286.44,248.69,279.43,273,263.74,268.51Z" transform="translate(-129.88 -107.38)"/><path class="cls-1" d="M436.35,387.5a30.31,30.31,0,0,0-3.64-47.41c-2.23-1.51-8.8-3.08-9.81-4.84-1.25-2.18,0-9.43,0-11.82V253c0-17-24.14-22.68-36.57-29L345,203c-4.06-2.06-15.16-5.33-17.5-9.13-1.36-2.21,0-9.61,0-12.12V160.59c0-13.14.27-26.31,0-39.44-0.1-5-.07-10.62-6-12.38-7.17-2.12-10.2,4.26-10.66,10-1,12.07,0,24.63,0,36.73,0,13.16-.34,26.36,0,39.52,0.19,7.32,3.85,11.75,10.27,15.06,20.08,10.34,40.16,20.64,60.35,30.75,5.81,2.91,22,7.73,24.79,13.35,1.31,2.62,0,9.21,0,12.11v63.9c0,5.87.76,4.85-3.37,7.84-9.6,7-17.53,14.2-17.53,27.17C385.31,391.07,417.38,405.1,436.35,387.5Zm-33.1-22.3c0-16.33,25.33-16.33,25.33,0S403.25,381.53,403.25,365.2Z" transform="translate(-129.88 -107.38)"/><path class="cls-1" d="M319.17,264.23c-14.15,15.19-7.94,37.4,8.91,47.51,5.46,3.28,4.18,4,4.18,10.51V503.62c0,3.48-.49,7.36,0,10.82,1.65,11.66,17.41,11.87,19.08.09,1.58-11.15,0-23.69,0-34.91V313.83c18.46-7.34,27.54-30.17,15.25-46.73C355.26,251.85,332.21,250.23,319.17,264.23Zm22.78,33.23c-16.33,0-16.33-25.33,0-25.33S358.28,297.46,341.95,297.46Z" transform="translate(-129.88 -107.38)"/><path class="cls-1" d="M187.28,348.81c-1.05-1.78-4.54-5.72-4.6-7.79,0-1.27,2.32-3.34,3.18-4.69a30,30,0,0,0,4.35-11.79c4.89-33.91-43.72-48-57.74-16.73a30.67,30.67,0,0,0,11,37.71,30.31,30.31,0,0,0,11.52,4.58c3,0.52,7.8-.92,10.39-0.06,1.89,0.63,1.71,1,3.23,3.36,5.51,8.42,10.11,17.61,15.12,26.34,2.38,4.14,6.75,9.35,7.82,14,1.29,5.58,0,13,0,18.64v70c0,9.6-.25,19.24,0,28.84,0.11,4.17,0,7.69,3.92,10.47,5.64,4,15.17.64,15.17-6.95V402c0-11.38-1.61-16.45-7.52-26.45Zm-27-16c-16.33,0-16.33-25.33,0-25.33S176.57,332.84,160.24,332.84Z" transform="translate(-129.88 -107.38)"/><path class="cls-1" d="M513.17,287c-12.25-16.29-37.59-14.82-48.66,2a31.13,31.13,0,0,0-2.06,30,29.74,29.74,0,0,0,10.15,11.91c2,1.34,6.51,2.28,7.55,4.07,1.56,2.69,0,10.53,0,13.63v22.44c0,10.1.67,10-7.51,15.73-8,5.67-16,11.38-24.1,17-15.68,11-34.31,20.59-48.41,33.46-4.38,4-5.85,7.93-5.85,13.65V486c0,9.06-1.24,19.1,0,28.09,0.94,6.81,7.3,12,14.19,8.28,5.39-2.92,4.9-8.09,4.9-13.23V465c0-3.69-1.42-10.33,0-13.74,2.51-6,15.43-11.91,21-15.85l14.83-10.48,31.16-22c6.06-4.28,13.62-7.37,15.71-14.91,2.19-7.88.77-17.45,0.77-25.64V334.73C517.55,329.24,526.08,304.18,513.17,287Zm-23.28,31.36c-16.33,0-16.33-25.33,0-25.33S506.21,318.37,489.89,318.37Z" transform="translate(-129.88 -107.38)"/><path class="cls-1" d="M192.9,111.89c-2.71,4.25-1.39,11.72-1.39,16.44v21.05c0,8,1.83,17.86-.42,25.28-1.57,5.17-6.1,10.63-8.78,15.29l-11,19.19c-1.61,2.81-3.34,7.24-5.7,8.11-4.18,1.53-10.55-.5-15.42,1.21a30.56,30.56,0,0,0-12.25,8.07c-15.26,16.51-7.16,44.26,14.61,49.93,22.31,5.82,43.39-15.72,36.67-37.92-1-3.31-6.79-9.75-6.71-12.29,0-1.1,2-3.3,2.52-4.23l10.4-17.48c5.27-8.85,12.85-18.06,15.19-28.2V136.72c0-6.25.63-12.86,0-19.09C209.73,109,198.74,102.75,192.9,111.89ZM160.24,259.75c-16.33,0-16.33-25.32,0-25.32S176.57,259.75,160.24,259.75Z" transform="translate(-129.88 -107.38)"/><path class="cls-1" d="M270.75,244.17h0Z" transform="translate(-129.88 -107.38)"/></svg>