<svg id="GLOBE_EARTH_ICONS_SET_BY_RedKoala" data-name="GLOBE / EARTH ICONS SET BY RedKoala" xmlns="http://www.w3.org/2000/svg" viewBox="0 0 531.59 540.15"><defs><style>.cls-1{fill:none;}.cls-2{fill:#fff;}</style></defs><title>travel</title><path class="cls-1" d="M330.26,212.89c-0.67,2.21-3.65,2.32-4.24,2.32a3.9,3.9,0,0,1-1.19-.16,7.45,7.45,0,0,1-4.34-4.12,4.07,4.07,0,0,0-1.67-2c-1-.45-1.94-0.88-2.9-1.31a64.23,64.23,0,0,1-8.6-4.37c-4.48-2.85-8.51-4.18-12.68-4.18a26.2,26.2,0,0,0-8.87,1.72,7.72,7.72,0,0,1-2.62.36c-1.09,0-2.31-.11-3.59-0.22s-2.56-.23-3.68-0.23a7.15,7.15,0,0,0-1.84.18c0,0.19,0,.4-0.06.64-0.29,3.3-.66,6.66-1.56,8.48a4,4,0,0,1-.56.78l-0.12.14a21.24,21.24,0,0,1-2,2.59,77.75,77.75,0,0,1,18.15-4.25h0.34c11.91,0,17.42,6.24,22.28,11.74,3.84,4.35,7.16,8.11,13.7,9.25,1.26,0.11,2.5.16,3.77,0.16a75.9,75.9,0,0,0,10.41-.91c1.84-.25,3.74-0.5,5.79-0.71l0.43,0a15,15,0,0,0,2.56-.36,24.33,24.33,0,0,1,4.75-.57,14.85,14.85,0,0,1,2.94.29c3.55,0.71,6.26,3,7.84,4.36h0c4.66,0.26,8.49-1.41,10.91-4.8,1.95-2.85,2.36-4.3,2.44-4.84a25,25,0,0,0-5.33-1.39,42.33,42.33,0,0,1-6.63-1.63c-2.61-.87-5.45-3.62-8.74-6.8l-0.81-.78a7.85,7.85,0,0,1-.51,5c-0.86,1.8-3.47,2.36-4,2.45a10.92,10.92,0,0,1-1.95.18c-6.3,0-10.15-5.49-13.24-9.9l-0.62-.87-0.1-.14a3,3,0,0,1-.83.74c-0.54.36-1,.63-1.39,0.85C330.84,211.12,330.78,211.15,330.26,212.89Z" transform="translate(-60.87 -55.42)"/><path class="cls-1" d="M398.84,127.79c-3.85.27-5.42,0.53-6.59,2.21a11.26,11.26,0,0,0-1.37,2.08c0.86,0.42,3.54,1.22,11.41,1.22h2.3l2.71,0,26.45,4.36a19.56,19.56,0,0,1,4.77,4.2,19.38,19.38,0,0,1,5.62-2.71c-4.34-3.93-8.88-7.63-6.66-5.78a5.07,5.07,0,0,1-2.35,1.39,5.72,5.72,0,0,1-5.39-.76l-0.59-.42a21.44,21.44,0,0,0-5.78-3.29c-1.3-.45-2.73-0.89-4.2-1.35a66.06,66.06,0,0,1-10.33-3.83C405.52,127.32,401.71,127.59,398.84,127.79Z" transform="translate(-60.87 -55.42)"/><path class="cls-1" d="M405.42,273.32c-3.56-9.59-7.23-19.47-14-22.64,0.1,7.13,3.92,20.51,8.07,31.35q3-4.29,6-8.53Z" transform="translate(-60.87 -55.42)"/><path class="cls-1" d="M297.2,435.91a14.23,14.23,0,0,1,3.86-3.06,14.43,14.43,0,0,1,16.26,1.85,14.57,14.57,0,0,1,1.54,1.59c-1.16-2.29-2.31-4.34-3.43-6.32-3.41-6-6.35-11.24-7-20.26-0.32-5.69.6-11.56,1.48-17.23,1.21-7.74,2.45-15.74.21-22.1-1.13-3.91-3.91-6.75-7.13-10-4.1-4.18-8.74-8.92-9.71-16.13-0.48-2.88.8-5.56,1.93-7.93a8.45,8.45,0,0,1,1.62-2.34l-0.66-.07a6.89,6.89,0,0,1-3.52,1.18,4.36,4.36,0,0,1-1.82-.39,36.44,36.44,0,0,1-5.71-2.86,41.65,41.65,0,0,0-9.85-1.15,101.06,101.06,0,0,0-10.27.71c-2.92.3-6.22,0.63-9.93,0.84a44,44,0,0,0-7.06,1.55,39,39,0,0,1-10.26,1.84,16.4,16.4,0,0,1-7.73-1.83c-23.18-12-24.29-32.27-23.51-50.31,0.19-1.93.32-3.89,0.45-6,0.45-6.85,1-15.36,3.47-21.49l0.15-.33c1.68-3.36,4.49-5.85,7-8a34.09,34.09,0,0,0,3.53-3.42,37.23,37.23,0,0,0,2.63-5.57c1.5-3.65,3.05-7.4,5.76-10.12,5-5,13.05-7,20.8-8.83l1.78-.43c-16.27-.56-19.84-8.47-20.62-11.86-1.49-6.46,3.68-13.87,13.18-18.87a4.21,4.21,0,0,1,1-.37c1.56-.39,3.89-0.31,7.7-0.08,1.11,0.07,2.57.29,4.12,0.53,0.83,0.13,1.71.27,2.53,0.37l-0.21-.33-0.32-.51c-1.2-1.93-4-6.44-.36-11a13.11,13.11,0,0,1,4.61-4.14c-0.54,0-1.1.07-1.68,0.07h0c-4.1,0-9.4-1.15-11.37-3.68a7,7,0,0,1-.7-1.11,8.53,8.53,0,0,1-1.89,3,8,8,0,0,1-5.35,2.46c-4.33.2-8.28-3-8.7-6.94a10.6,10.6,0,0,1,5.1-10.6,8.15,8.15,0,0,1,3.94-1.08,6.48,6.48,0,0,1,4.91,2.19c-0.54-2-.24-4.64,2.19-7.92,0.35-.47.63-0.93,0.88-1.34,0.88-1.44,3.09-6,5.74-6,0.41,0,2.78.63,3.25,0.72,3.7,0.73,5.1,5.2,5.43,9.25a8.27,8.27,0,0,1-.57,3.55c-0.08.23-.15,0.46-0.23,0.71-0.3,1-.38,1.25,2.57,2.81l0.26,0.14c2.6,1.38,4.95,5.76,4,9.13a5.29,5.29,0,0,1-1.89,2.69c1.64-.31,3.31-0.48,4.9-0.65,5.94-.62,9.4-1.17,11.35-5.08A3.59,3.59,0,0,1,286,165a2.89,2.89,0,0,1,.21-0.32,3.48,3.48,0,0,1,.25-0.29c0.14-.15.22-0.24,0.32-0.33s0.22-.18.32-0.26l0.37-.26c0.13-.08.27-0.14,0.41-0.21a1.86,1.86,0,0,1,.3-0.13c2.35-.88,2.66-1,1.89-7.92a4.36,4.36,0,0,1,1.36-3.66,4.28,4.28,0,0,1,1.15-.77c-2.29-.64-4.58-1.7-5.54-4.32-1.28-3.5,1.25-6.83,2.08-7.92,13.2-17.31,25.44-24.72,42.27-25.56,1.3-.12,2.87-0.31,4.5-0.5a106.62,106.62,0,0,1,12.37-1,29.41,29.41,0,0,1,11,1.78c6.16,2.41,10.34,4.86,10.68,9,0.33,4-2.92,6.13-6,8,3.91,0,8.75-3,14.21-6.52,4.07-2.63,22.89-9.59,29.37-9.59H408c0.43-.28.86-0.53,1.3-0.78a212.54,212.54,0,0,0-221.7,4.23A49,49,0,0,1,193,128.54c4.51,12,2.66,23-6,32.63-4.45,4.95-9.47,9.28-14.29,13.85-5.26,5-10.3,10.17-16.85,13.48-15,7.56-31.69,8.34-46,17.66a211.29,211.29,0,0,0-20.08,90.26c0,4.25.14,8.49,0.39,12.7a74.74,74.74,0,0,1,7.89,6.45L99,316.41c2.88,2.55,5.92,5.11,8.86,7.58,9,7.6,18.41,15.46,25.51,25.18l0.34,0.47c2.87,3.93,5.35,7.33,9.64,9.36,2,1,4.21,1.84,6.3,2.68l2.63,1.07c5,2.08,11.28,4.67,14.89,9.54,5.45,7.35,2.84,14.62.54,21-1.73,4.83-3.37,9.39-1.91,13.87a30.46,30.46,0,0,0,1.73,4c1.65,3.36,3.53,7.16,1.87,11.85-1.17,3.3-4.07,4.56-6.4,5.57-3,1.33-4.39,2-4.26,5.06,0.11,2.69,1.79,5,3.72,7.57s4,5.39,4.65,9a34.23,34.23,0,0,1,.22,7.78c0,0.79-.07,1.56-0.09,2.31a210.21,210.21,0,0,0,70.21,38.26C255.86,480.66,276.18,459.53,297.2,435.91Z" transform="translate(-60.87 -55.42)"/><path class="cls-1" d="M418.12,366.69l5.18,17.89c0.19,0.07.38,0.13,0.56,0.22a5.15,5.15,0,0,1,2.78,3.44,10.17,10.17,0,0,1-.8,6.06,22.25,22.25,0,0,1-4.79,16.33l-1.32,1.57a18.27,18.27,0,0,1-8.26,5.53c-0.14.18-.28,0.37-0.44,0.54-3.7,4.19-8,8.41-12.28,8.41a5.79,5.79,0,0,1-2-.36,7.81,7.81,0,0,1-4.58-4.13c-1.34-2.95-.82-6.56.16-9.95L389,408.84a15,15,0,0,0-4.9,6.53c-6.84,16.42-22.95,34.84-47.67,37.4-1.12.07-2.05,0.1-2.91,0.1-7.06,0-9.68-2.22-11.32-6.82a14,14,0,0,1-3.59,8.75c-18,20.15-33.78,37.1-47.73,51.44a215,215,0,0,0,31,2.25,210.48,210.48,0,0,0,138.79-51.74c-0.06-.09-0.12-0.17-0.17-0.26-2.59-4.5,0-10.69,1.53-14.38l0.12-.29c1-2.49,2-5.07,3-7.56,1.14-3,2.32-6.09,3.61-9.1l0.28-.66c1.65-3.85,3.71-8.65,7.79-11.18a33.81,33.81,0,0,1,6.21-2.7c3.62-1.31,7.37-2.67,8.68-5A81.05,81.05,0,0,0,478,390.25l0.19-.61c1-3.36,2.13-6.83,4.67-9.74l-0.46,0a5.64,5.64,0,0,1-4.54-1.89,5.23,5.23,0,0,1-.83-4.61c1-4.4,5.48-8.24,9.09-11.33,1-.85,1.93-1.64,2.65-2.34,5.86-5.63,12.22-11.47,19.91-16Q510,337.89,511,332l-26.67-28.27A867.25,867.25,0,0,1,418.12,366.69Z" transform="translate(-60.87 -55.42)"/><path class="cls-2" d="M589.64,329.84a13,13,0,0,0-1.14-2.75l-49.29-88.84c21.47-28.69,32.81-50.41,31.32-67.45a28.57,28.57,0,0,0-10.25-20,27.19,27.19,0,0,0-17.85-6.36c-6.65,0-13.76,2.09-21.74,6.4A118.82,118.82,0,0,0,503.06,163a239.48,239.48,0,0,0-165-104.92C176.67,34.55,40,171.22,63.51,332.63,76.07,418.91,134.67,490.28,213.57,521c-20.76,18.76-37.51,31.75-47.71,37.42-15.8,8.78-20.77,5.4-22.4,4.29l-0.57-.34c-2.66-1.38-6.62-9.58-3.72-22.32l0.22-.95-0.34-2.67c1.07-4.6.77-8.17-.89-10.91a10.17,10.17,0,0,0-6.75-4.49,14.24,14.24,0,0,0-17.26,10.38c-1.93,7.82-10.27,47.5,14.91,60.57a30.64,30.64,0,0,0,14.63,3.55c7.53,0,17.55-2.35,31.12-9.67,16.93-9.14,37.57-22.89,71.09-54.88q9.74,2.27,19.78,3.74c127.6,18.56,239.73-63,269.47-177.69l15,14.29a22.56,22.56,0,0,0,16.07,6.74h0a22.64,22.64,0,0,0,17.23-8.05L586,367C593.16,358.5,594.35,346.36,589.64,329.84ZM484.22,285c-0.71.79,0.88-1,.15-0.17q-1.66,1.84-3.38,3.71l-0.34.37-2.38,2.58-2.74,2.93a849.9,849.9,0,0,1-65.41,62.47l-2.31,2,0.29,0.76,0.36,0.93,0.2,0.51,0.95,2.45,0.19,0.49,1.33,3.42,1.51,3.91,5.06,13.07,0.75,1.95a9.94,9.94,0,0,1-.14,8.28,8.23,8.23,0,0,1-.41.76,7.26,7.26,0,0,1-.53.79L416,397.86a5.32,5.32,0,0,1-8,.4l-0.64-.64-5.25-5.22-1.3-1.29-5.9-5.86-1-1-1.87-1.86L390,380.33l-0.41-.41-0.36-.35-2.83-2.81L386,376.4l-0.19-.19c-4,2.91-7.74,5.49-11.21,7.68q-2,1.29-4,2.39c-0.77.44-1.52,0.87-2.25,1.26l-0.14.08c-9.08,4.9-11.47,3.86-11.5,3.85a4.12,4.12,0,0,1-.62-2.67c0.06-2.86,1.43-7.45,3.87-13.37,0.63-1.52,1.33-3.13,2.09-4.81,1.4-3.08,3-6.42,4.83-10l-0.13-.09-1.32-.9-0.42-.28-2.42-1.65-0.46-.31-1.3-.89-1.57-1.07-3-2.06-0.31-.21-15.54-10.59c-0.12-.09-0.23-0.19-0.34-0.29a5.15,5.15,0,0,1-1.53-5.52,5.45,5.45,0,0,1,1.24-2l1.56-1.64a8.85,8.85,0,0,1,3.43-2.1,11,11,0,0,1,1.08-.33,9.45,9.45,0,0,1,5.19.11l5.49,1.17,5.33,1.14,4.56,1,4.12,0.88,2.73,0.58,0.87,0.19,0.52,0.11,2.84,0.6,0.91,0.19,1.4,0.3,0.17,0,1.73-2.94c7.1-12,15.32-24.91,24.21-38q2.8-4.13,5.68-8.28c6.55-9.43,13.39-18.85,20.34-28l2.44-3.18,2.16-2.77,0.31-.39c2.94-3.72,2.76-3.83,2.94-3.72l-0.17-.12-4.17-2.77-0.42-.28-2.93-1.94-3.34-2.22-79.05-52.5a9.27,9.27,0,0,1-2-13.95l2.6-3.07a19.52,19.52,0,0,1,7.58-5,23.18,23.18,0,0,1,7.69-1.76l2.41,0.84,95,33.21c0.32,0.21.74,0.45,1.21,0.7,1,0.55,2.34,1.18,3.74,1.83,1.11,0.51,2.26,1,3.36,1.51l0.48,0.21c2.23,1,4.79,2.16,4.79,2.16s0,0,3.76-3.72c0.14-.14.27-0.28,0.4-0.43l2.34-2.48,2.76-2.88a289.54,289.54,0,0,1,24.18-22.68,109.5,109.5,0,0,1,16.76-11.62c11-5.92,19.19-6.4,25.1-1.48,4.11,3.42,5.83,8.1,5.67,13.77-0.37,12.83-10.48,30.77-25.08,50.86l-0.83,1.13q-1.17,1.6-2.37,3.21l-1.85,2.46-0.55.73q-1.53,2-3.09,4l-0.12.16,0,0,2.46,4.44,0.35,0.63,1.8,3.25,2.1,3.78,10.87,19.6,35.78,64.5a52.16,52.16,0,0,1,2.29,13.95c0,5-1.22,8.7-3.36,11.22L573.47,362a9.48,9.48,0,0,1-14.22.46l-19.71-18.84-1.09-1.15-25.37-26.9-3.85-4.09L493,294.29l-2.75-2.92-2.41-2.55-0.3-.32,0,0L484.22,285h0m-92.76-34.3c6.73,3.17,10.4,13.05,14,22.64l0.07,0.18q-3,4.23-6,8.53C395.38,271.18,391.56,257.8,391.46,250.67Zm-58.15-41a3,3,0,0,0,.83-0.74l0.1,0.14,0.62,0.87c3.09,4.41,6.95,9.9,13.24,9.9a10.92,10.92,0,0,0,1.95-.18c0.51-.09,3.12-0.65,4-2.45a7.85,7.85,0,0,0,.51-5l0.81,0.78c3.29,3.18,6.13,5.93,8.74,6.8a42.33,42.33,0,0,0,6.63,1.63,25,25,0,0,1,5.33,1.39c-0.09.54-.49,2-2.44,4.84-2.42,3.39-6.24,5.06-10.91,4.8h0c-1.58-1.33-4.29-3.65-7.84-4.36a14.85,14.85,0,0,0-2.94-.29,24.33,24.33,0,0,0-4.75.57,15,15,0,0,1-2.56.36l-0.43,0c-2.05.21-4,.46-5.79,0.71a75.9,75.9,0,0,1-10.41.91c-1.28,0-2.51-.05-3.77-0.16-6.53-1.14-9.86-4.9-13.7-9.25-4.86-5.5-10.37-11.74-22.28-11.74h-0.34a77.75,77.75,0,0,0-18.15,4.25,21.24,21.24,0,0,0,2-2.59l0.12-.14a4,4,0,0,0,.56-0.78c0.9-1.81,1.27-5.18,1.56-8.48,0-.23,0-0.45.06-0.64a7.15,7.15,0,0,1,1.84-.18c1.11,0,2.42.12,3.68,0.23s2.5,0.22,3.59.22a7.72,7.72,0,0,0,2.62-.36,26.2,26.2,0,0,1,8.87-1.72c4.16,0,8.19,1.33,12.68,4.18a64.23,64.23,0,0,0,8.6,4.37c1,0.43,1.93.86,2.9,1.31a4.07,4.07,0,0,1,1.67,2,7.45,7.45,0,0,0,4.34,4.12,3.9,3.9,0,0,0,1.19.16c0.59,0,3.58-.11,4.24-2.32,0.52-1.73.59-1.77,1.66-2.39C332.31,210.27,332.76,210,333.31,209.64Zm90.07-79.38a21.44,21.44,0,0,1,5.78,3.29l0.59,0.42a5.72,5.72,0,0,0,5.39.76,5.07,5.07,0,0,0,2.35-1.39c-2.22-1.86,2.32,1.84,6.66,5.78a19.38,19.38,0,0,0-5.62,2.71,19.56,19.56,0,0,0-4.77-4.2l-26.45-4.36-2.71,0h-2.3c-7.88,0-10.55-.81-11.41-1.22a11.26,11.26,0,0,1,1.37-2.08c1.17-1.67,2.74-1.93,6.59-2.21,2.87-.2,6.68-0.47,10-2.71a66.06,66.06,0,0,0,10.33,3.83C420.65,129.36,422.08,129.8,423.38,130.26Zm-256.13,330c0-.75.05-1.52,0.09-2.31a34.23,34.23,0,0,0-.22-7.78c-0.67-3.6-2.78-6.46-4.65-9s-3.61-4.88-3.72-7.57c-0.13-3,1.21-3.73,4.26-5.06,2.33-1,5.22-2.28,6.4-5.57,1.66-4.69-.21-8.5-1.87-11.85a30.46,30.46,0,0,1-1.73-4c-1.46-4.48.18-9,1.91-13.87,2.3-6.42,4.91-13.69-.54-21-3.62-4.87-9.87-7.46-14.89-9.54l-2.63-1.07c-2.09-.84-4.25-1.71-6.3-2.68-4.29-2-6.77-5.43-9.64-9.36l-0.34-.47c-7.1-9.72-16.46-17.58-25.51-25.18-2.94-2.47-6-5-8.86-7.58l-0.95-.85a74.74,74.74,0,0,0-7.89-6.45c-0.25-4.21-.39-8.45-0.39-12.7a211.29,211.29,0,0,1,20.08-90.26c14.33-9.32,31-10.09,46-17.66,6.56-3.31,11.59-8.49,16.85-13.48,4.82-4.57,9.84-8.9,14.29-13.85,8.63-9.6,10.48-20.58,6-32.63a49,49,0,0,0-5.43-10.85,212.54,212.54,0,0,1,221.7-4.23c-0.44.25-.87,0.5-1.3,0.78h-0.48c-6.48,0-25.31,7-29.37,9.59-5.46,3.54-10.31,6.48-14.21,6.52,3.09-1.86,6.33-4,6-8-0.34-4.12-4.52-6.57-10.68-9a29.41,29.41,0,0,0-11-1.78,106.62,106.62,0,0,0-12.37,1c-1.63.19-3.2,0.38-4.5,0.5-16.83.84-29.07,8.25-42.27,25.56-0.83,1.09-3.36,4.42-2.08,7.92,1,2.61,3.25,3.68,5.54,4.32a4.28,4.28,0,0,0-1.15.77,4.36,4.36,0,0,0-1.36,3.66c0.77,6.92.47,7-1.89,7.92a1.86,1.86,0,0,0-.3.13c-0.14.06-.28,0.13-0.41,0.21l-0.37.26c-0.1.08-.21,0.16-0.32,0.26s-0.18.18-.32,0.33a3.48,3.48,0,0,0-.25.29,2.89,2.89,0,0,0-.21.32,3.59,3.59,0,0,0-.21.34c-2,3.91-5.41,4.45-11.35,5.08-1.6.17-3.26,0.34-4.9,0.65a5.29,5.29,0,0,0,1.89-2.69c1-3.38-1.36-7.76-4-9.13l-0.26-.14c-3-1.55-2.88-1.79-2.57-2.81,0.08-.25.16-0.49,0.23-0.71a8.27,8.27,0,0,0,.57-3.55c-0.33-4-1.73-8.51-5.43-9.25-0.47-.09-2.84-0.72-3.25-0.72-2.65,0-4.85,4.54-5.74,6-0.25.41-.53,0.87-0.88,1.34-2.43,3.28-2.73,5.92-2.19,7.92a6.48,6.48,0,0,0-4.91-2.19,8.15,8.15,0,0,0-3.94,1.08,10.6,10.6,0,0,0-5.1,10.6c0.42,4,4.37,7.15,8.7,6.94a8,8,0,0,0,5.35-2.46,8.53,8.53,0,0,0,1.89-3,7,7,0,0,0,.7,1.11c2,2.53,7.27,3.68,11.37,3.68h0c0.59,0,1.14,0,1.68-.07a13.11,13.11,0,0,0-4.61,4.14c-3.63,4.58-.84,9.08.36,11l0.32,0.51L260,189c-0.82-.11-1.7-0.24-2.53-0.37-1.55-.24-3-0.47-4.12-0.53-3.81-.23-6.14-0.31-7.7.08a4.21,4.21,0,0,0-1,.37c-9.5,5-14.67,12.4-13.18,18.87,0.78,3.39,4.35,11.3,20.62,11.86l-1.78.43c-7.74,1.86-15.75,3.78-20.8,8.83-2.71,2.71-4.26,6.47-5.76,10.12a37.23,37.23,0,0,1-2.63,5.57,34.09,34.09,0,0,1-3.53,3.42c-2.47,2.19-5.28,4.68-7,8l-0.15.33c-2.45,6.13-3,14.64-3.47,21.49-0.14,2.07-.27,4-0.45,6-0.78,18,.32,38.29,23.51,50.31a16.4,16.4,0,0,0,7.73,1.83A39,39,0,0,0,248,333.76a44,44,0,0,1,7.06-1.55c3.72-.21,7-0.54,9.93-0.84a101.06,101.06,0,0,1,10.27-.71,41.65,41.65,0,0,1,9.85,1.15,36.44,36.44,0,0,0,5.71,2.86,4.36,4.36,0,0,0,1.82.39,6.89,6.89,0,0,0,3.52-1.18l0.66,0.07a8.45,8.45,0,0,0-1.62,2.34c-1.13,2.37-2.41,5.05-1.93,7.93,1,7.21,5.6,11.95,9.71,16.13,3.22,3.29,6,6.13,7.13,10,2.24,6.36,1,14.36-.21,22.1-0.88,5.67-1.8,11.54-1.48,17.23,0.6,9,3.54,14.22,7,20.26,1.12,2,2.27,4,3.43,6.32a14.57,14.57,0,0,0-1.54-1.59,14.43,14.43,0,0,0-16.26-1.85,14.23,14.23,0,0,0-3.86,3.06c-21,23.61-41.34,44.74-59.74,62.65A210.21,210.21,0,0,1,167.25,460.31Zm2.33,115.91c-23.07,12.45-32.07,7.79-35.45,6-18.23-9.47-10.26-44.24-9.29-48.2a3.15,3.15,0,0,1,1.57-2,3.28,3.28,0,0,1,1.56-.39,3.45,3.45,0,0,1,.7.07,12.53,12.53,0,0,1-.4,2.47l-0.4,1.61,0.35,2.79c-3.09,14.84.75,28.7,9.29,33.39,8.3,5.47,19,4.22,33.67-3.94,13.38-7.44,32.77-23.24,54-42.84,7.91-7.29,16.08-15.1,24.29-23.2,19.26-19,38.79-39.59,55.87-58.78a3.21,3.21,0,0,1,.87-0.7,3.42,3.42,0,0,1,3.79.45,3.14,3.14,0,0,1,1.1,2.17,3.1,3.1,0,0,1-.8,2.3c-20.23,22.64-37.58,41.17-52.63,56.45-8.88,9-17,16.91-24.37,23.83C203.72,555.5,185,567.88,169.58,576.22ZM508.66,343.73c-7.69,4.56-14.05,10.41-19.91,16-0.72.69-1.66,1.49-2.65,2.34-3.62,3.09-8.12,6.93-9.09,11.33a5.23,5.23,0,0,0,.83,4.61,5.64,5.64,0,0,0,4.54,1.89l0.46,0c-2.55,2.91-3.64,6.38-4.67,9.74l-0.19.61a81.05,81.05,0,0,1-6.31,15.35c-1.31,2.34-5.05,3.7-8.68,5a33.81,33.81,0,0,0-6.21,2.7c-4.08,2.53-6.14,7.33-7.79,11.18l-0.28.66c-1.3,3-2.47,6.1-3.61,9.1-0.95,2.5-1.93,5.07-3,7.56l-0.12.29c-1.54,3.7-4.12,9.88-1.53,14.38,0.05,0.09.11,0.17,0.17,0.26a210.48,210.48,0,0,1-138.79,51.74,215,215,0,0,1-31-2.25c13.94-14.34,29.72-31.29,47.73-51.44a14,14,0,0,0,3.59-8.75c1.63,4.61,4.25,6.82,11.32,6.82,0.86,0,1.79,0,2.91-.1,24.73-2.56,40.83-21,47.67-37.4a15,15,0,0,1,4.9-6.53l3.32,3.39c-1,3.39-1.5,7-.16,9.95a7.81,7.81,0,0,0,4.58,4.13,5.79,5.79,0,0,0,2,.36c4.27,0,8.58-4.22,12.28-8.41,0.15-.17.3-0.36,0.44-0.54a18.27,18.27,0,0,0,8.26-5.53l1.32-1.57a22.25,22.25,0,0,0,4.79-16.33,10.17,10.17,0,0,0,.8-6.06,5.15,5.15,0,0,0-2.78-3.44c-0.18-.09-0.38-0.15-0.56-0.22l-5.18-17.89a867.25,867.25,0,0,0,66.19-63L511,332Q510,337.89,508.66,343.73Z" transform="translate(-60.87 -55.42)"/></svg>