<svg id="Layer_1" data-name="Layer 1" xmlns="http://www.w3.org/2000/svg" viewBox="0 0 545.27 323.11"><defs><style>.cls-1{fill:#fff;}</style></defs><title>boatsyachts</title><path class="cls-1" d="M363.08,445.35c-29.91-2.68-58.08,9.38-87.74,9.62-17,.14-32.39-5.58-49-7.65-20-2.49-40.16,1.11-60.06,3.19,30.2,1.31,55.59,6.66,83.88,16.47,24.79,8.6,44.77,4.92,69.54-.91,24-5.66,44.49-4.76,68.88-1.46s50,5.39,68.51-14.1c-30.84,14.64-62.63-2.36-94-5.16h0Z" transform="translate(-33.37 -148.98)"/><path class="cls-1" d="M381.2,387.45c-52.48-3.88-102.81,13.64-155,14.14-29.47.28-56.93-8.37-85.93-11.33-35.68-3.63-71.41,1.65-106.92,4.71,53,1.89,99.37,9.62,150,24.74,38.92,11.63,75.77,7.34,114.76-.75,41.27-8.57,79.16-9.38,121-4.32,43.63,5.27,92.09,11.62,128.12-19.67-54.66,21.39-110.7-3.44-166-7.53h0Z" transform="translate(-33.37 -148.98)"/><path class="cls-1" d="M87.29,357.07c17.66-1.22,35.34-1.61,53,.19,29,3,56.46,11.6,85.93,11.33,52.17-.49,102.5-18,155-14.14h0c16.35,1.21,32.76,4.23,49.17,7.33C487,343.33,543.45,303,578.63,261.46H465.22c-23.27-21.39-46-48.57-72.1-66.26-15-10.18-37.31-2.89-55.8-1L216.89,206.68c-4.43.46-23.58,5.46-27.7,2.87-5.1-3.22-6.22-34.36-7.38-41,25.53,0,26.8.7,42.24-19.54H156c-26.27,0-27.42-1.5-43.47,19.54H153.8q-16.61,35.34-33.07,70.75c-9.12,19.73-8.89,22.18-29.58,22.18-6.86,0-31.19-3.2-34.69.77-1,1.16-.89,18.13,0,19.18,1.88,2.22,13.69.77,17.06,0.77-4.46,15.61-10.14,32.58-10,46.7,0.15,11.77,6.49,1.81-1.63,16.25-2.9,5.17-6.37,10.15-9.84,15.09,9.67-1,19.36-1.92,29.05-2.68M178,261.46a1,1,0,0,1-.87-1.5l12.22-21.26a1,1,0,0,1,1.76.05l11.26,22.71H178Zm91.49,0H228.23l-14.82-29.83a1,1,0,0,1,.74-1.43c9.42-1.39,33.09-7.91,39.39-4,6.92,4.25,12.88,24.91,16.86,33.89A1,1,0,0,1,269.5,261.46Zm66.39,0h-39l-18.16-36.58a1,1,0,0,1,.76-1.43c10-1.37,30.44-7,37.59-3,7.81,4.41,15.2,29.52,19.7,39.6A1,1,0,0,1,335.88,261.46Zm91.28-1.23c-21.13,1-42.09,1.23-63.25,1.23a1,1,0,0,1-.9-0.56l-21.12-42.54a1,1,0,0,1,.79-1.43c16.08-1.85,29.22-6.31,42.28,2.22,15.55,10.15,29.14,26.44,42.85,39.35A1,1,0,0,1,427.16,260.23Z" transform="translate(-33.37 -148.98)"/></svg>