<svg xmlns="http://www.w3.org/2000/svg" viewBox="0 0 8.05 5.6"><defs><style>.cls-1{isolation:isolate;}.cls-2{opacity:0.3;mix-blend-mode:multiply;}</style></defs><title>back_arrow</title><g class="cls-1"><g id="iphone_Image" data-name="iphone Image"><path class="cls-2" d="M24.63,84.07a0.61,0.61,0,0,0,0,.92l2.53,2.27a0.61,0.61,0,0,0,1-.45V86.1a0.2,0.2,0,0,1,.18-0.2l3.58-.32a0.61,0.61,0,0,0,.55-0.6V84.16a0.61,0.61,0,0,0-.55-0.6l-3.58-.32a0.2,0.2,0,0,1-.18-0.2V82.43a0.61,0.61,0,0,0-1-.47Z" transform="translate(-24.41 -81.82)"/></g></g></svg>