<svg id="iphone_Image" data-name="iphone Image" xmlns="http://www.w3.org/2000/svg" viewBox="0 0 7.38 8.97"><defs><style>.cls-1{fill:#fff;}</style></defs><title>call_button</title><path class="cls-1" d="M37.6,328.42a0.73,0.73,0,0,0,.28,0,0.16,0.16,0,0,0,.14-0.16,5.49,5.49,0,0,0-.65-2.36,0.16,0.16,0,0,0-.19-0.07,1.75,1.75,0,0,0-.35.16,1.72,1.72,0,0,0-.66.59,3.27,3.27,0,0,0-.53,2,6.22,6.22,0,0,0,1.49,3.71,4.31,4.31,0,0,0,2.43,1.84,3.4,3.4,0,0,0,1.47,0h0a2.34,2.34,0,0,0,1-.56h0a0.12,0.12,0,0,0,0-.14l0-.07a5.85,5.85,0,0,0-1.82-1.6,0.16,0.16,0,0,0-.21.06,0.67,0.67,0,0,0-.11.56,0.06,0.06,0,0,1,0,.05h0c-0.62,0-1.66-1.49-1.66-1.49s-1.16-1.69-.92-2.64l0,0h0c0.07,0,.08.08,0.28,0.15h0Zm-0.28-.15h0Z" transform="translate(-35.64 -325.26)"/><path class="cls-1" d="M43,332.87l-0.41.45a0.16,0.16,0,0,1-.25,0,5.55,5.55,0,0,0-2.06-1.88,0.17,0.17,0,0,1-.07-0.12,0.16,0.16,0,0,1,0-.13l0.41-.45a0.16,0.16,0,0,1,.22,0A7.41,7.41,0,0,1,43,332.65a0.17,0.17,0,0,1,0,.11A0.16,0.16,0,0,1,43,332.87Z" transform="translate(-35.64 -325.26)"/><path class="cls-1" d="M39.23,328.31l-0.75.15a0.16,0.16,0,0,1-.21-0.13,6.83,6.83,0,0,0-.72-2.69,0.17,0.17,0,0,1,0-.13,0.16,0.16,0,0,1,.1-0.08l0.75-.15a0.16,0.16,0,0,1,.2.1,6.18,6.18,0,0,1,.74,2.76,0.17,0.17,0,0,1,0,.12A0.16,0.16,0,0,1,39.23,328.31Z" transform="translate(-35.64 -325.26)"/></svg>