<svg id="iphone_Image" data-name="iphone Image" xmlns="http://www.w3.org/2000/svg" viewBox="0 0 10.82 10.39"><defs><style>.cls-1{fill:#fff;}</style></defs><title>edit_button</title><g id="fziiQe"><path class="cls-1" d="M33.35,306.85a0.23,0.23,0,0,1,.22-0.11h2.56c0.17,0,.22,0,0.22.22s0,0.18,0,.26a0.17,0.17,0,0,1-.18.19H33.61a0.28,0.28,0,0,1-.26-0.1v-0.46Z" transform="translate(-33.35 -297.03)"/><path class="cls-1" d="M43.58,300.14a1,1,0,0,1-.06.16l-3.44,6a0.55,0.55,0,0,1-.25.21l-2.29.92a0.16,0.16,0,0,1-.26-0.15l-0.35-2.43a0.52,0.52,0,0,1,.07-0.34l3.43-5.94a0.34,0.34,0,0,1,.53-0.14l2.43,1.4A0.36,0.36,0,0,1,43.58,300.14Zm-1.15.31a0.36,0.36,0,0,0-.19-0.34l-1-.57a0.34,0.34,0,0,0-.51.14l-0.36.62L38.23,304a0.34,0.34,0,0,0,.14.52l1,0.57a0.33,0.33,0,0,0,.49-0.13l2.52-4.37A0.88,0.88,0,0,0,42.42,300.44Z" transform="translate(-33.35 -297.03)"/><path class="cls-1" d="M44.17,298.57a0.28,0.28,0,0,1,0,.09,5.83,5.83,0,0,1-.3.51,0.32,0.32,0,0,1-.44.06l-1.87-1.08-0.16-.09a0.33,0.33,0,0,1-.13-0.46l0.21-.37a0.34,0.34,0,0,1,.52-0.14L43.61,298,44,298.25A0.34,0.34,0,0,1,44.17,298.57Z" transform="translate(-33.35 -297.03)"/></g></svg>