<svg xmlns="http://www.w3.org/2000/svg" viewBox="0 0 14.51 10.09"><defs><style>.cls-1{isolation:isolate;}.cls-2{opacity:0.37;mix-blend-mode:multiply;}.cls-3{fill:none;stroke:#fff;stroke-miterlimit:10;stroke-width:0.16px;}.cls-4{fill:#fff;}</style></defs><title>more_button</title><g class="cls-1"><g id="iphone_Image" data-name="iphone Image"><g class="cls-2"><rect x="0.08" y="0.08" width="14.35" height="9.93" rx="4.73" ry="4.73"/></g><rect class="cls-3" x="0.08" y="0.08" width="14.35" height="9.93" rx="4.73" ry="4.73"/><path class="cls-4" d="M206.56,84.43a0.52,0.52,0,0,1,.51.56c0,0.25-.24.29-0.46,0.29a0.43,0.43,0,0,1-.44-0.5A0.48,0.48,0,0,1,206.56,84.43Z" transform="translate(-201.86 -79.57)"/><path class="cls-4" d="M209.06,84.43a0.52,0.52,0,0,1,.51.56c0,0.25-.24.29-0.46,0.29a0.43,0.43,0,0,1-.44-0.5A0.48,0.48,0,0,1,209.06,84.43Z" transform="translate(-201.86 -79.57)"/><path class="cls-4" d="M211.55,84.43a0.52,0.52,0,0,1,.51.56c0,0.25-.24.29-0.46,0.29a0.43,0.43,0,0,1-.44-0.5A0.48,0.48,0,0,1,211.55,84.43Z" transform="translate(-201.86 -79.57)"/></g></g></svg>