<svg id="iphone_Image" data-name="iphone Image" xmlns="http://www.w3.org/2000/svg" viewBox="0 0 10.42 7.04"><defs><style>.cls-1{fill:#fff;}</style></defs><title>videocall_button</title><path class="cls-1" d="M205.88,328.74L204.57,330l-0.33.34h0v-0.05c0-.28,0-0.56,0-0.85a1.55,1.55,0,0,0-.93-1.44,1.37,1.37,0,0,0-.62-0.14h-3.91a1.59,1.59,0,0,0-1.55,1.28l0,0.15v4.16a2.43,2.43,0,0,0,.06.3,1.56,1.56,0,0,0,1.23,1.11,1.66,1.66,0,0,0,.33,0h3.79a1.59,1.59,0,0,0,1.61-1.34,1.77,1.77,0,0,0,0-.25c0-.28,0-0.56,0-0.84v-0.07l0,0,1.61,1.61a0.28,0.28,0,0,0,.48-0.2v-5A0.28,0.28,0,0,0,205.88,328.74Z" transform="translate(-197.18 -327.9)"/><path class="cls-1" d="M207.4,328.11a0.35,0.35,0,0,0-.38.06l0,0,0,0v6.33l0.07,0.07a0.36,0.36,0,0,0,.54,0,0.74,0.74,0,0,0,.07-0.15v-6.11A0.35,0.35,0,0,0,207.4,328.11Z" transform="translate(-197.18 -327.9)"/></svg>