<svg id="Layer_1" data-name="Layer 1" xmlns="http://www.w3.org/2000/svg" viewBox="0 0 19.52 14.87"><defs><style>.cls-1,.cls-2{fill:#fff;}.cls-2{opacity:0.93;}</style></defs><title>AddCaller</title><path class="cls-1" d="M45.41,51.13a0.4,0.4,0,0,0-.31-0.05A5,5,0,0,0,41.24,56a1,1,0,0,0,.11.46,1,1,0,0,0,1.26.44L43,56.74,48,51.68A3.77,3.77,0,0,1,45.41,51.13Z" transform="translate(-41.24 -42.07)"/><path class="cls-2" d="M44.78,56.4c1.17,0,1.44.26,2.83,0.25h0.05c1.39,0,1.67-.29,2.83-0.25a6.7,6.7,0,0,1,2.18.47,1,1,0,0,0,1.26-.44A1,1,0,0,0,54,56a5,5,0,0,0-4.2-5,0.4,0.4,0,0,0-.29.06,3.77,3.77,0,0,1-1.52.6L43,56.74A6.64,6.64,0,0,1,44.78,56.4Z" transform="translate(-41.24 -42.07)"/><path class="cls-1" d="M55.71,43.93a0.22,0.22,0,0,0-.21.21v0.07l0.29-.29H55.71Z" transform="translate(-41.24 -42.07)"/><path class="cls-1" d="M57.36,42.27v0.09l0.29-.29H57.57A0.21,0.21,0,0,0,57.36,42.27Z" transform="translate(-41.24 -42.07)"/><path class="cls-2" d="M57.36,43.93H55.79l-0.29.29v0.71a0.22,0.22,0,0,0,.21.21h1.65v1.65a0.21,0.21,0,0,0,.21.2h0.79a0.21,0.21,0,0,0,.21-0.2V45.15h1.66a0.21,0.21,0,0,0,.2-0.21V44.14a0.21,0.21,0,0,0-.2-0.21H58.57V42.27a0.21,0.21,0,0,0-.21-0.2H57.64l-0.29.29v1.57Z" transform="translate(-41.24 -42.07)"/><path class="cls-1" d="M50.58,49.14l-1.76,1.76A3.42,3.42,0,0,0,50.58,49.14Z" transform="translate(-41.24 -42.07)"/><path class="cls-1" d="M47.44,44.53a3.33,3.33,0,1,0,1.38,6.36l1.76-1.76a3.21,3.21,0,0,0,.27-1.27A3.39,3.39,0,0,0,47.44,44.53Z" transform="translate(-41.24 -42.07)"/><path class="cls-1" d="M54.81,44.17v0A0.86,0.86,0,0,1,55,43.68a3.14,3.14,0,0,0-2.06.88A3,3,0,0,0,52,46.75a3,3,0,0,0,.14.86l0.38-.38a2.5,2.5,0,0,1,0-.47A2.65,2.65,0,0,1,54.81,44.17Z" transform="translate(-41.24 -42.07)"/><path class="cls-2" d="M52.86,48.9a4.39,4.39,0,0,0-2.29,1.66l0.47,0.16a3.94,3.94,0,0,1,2.22-1.45,0.32,0.32,0,0,1,.24,0,3,3,0,0,0,3.26,0,0.32,0.32,0,0,1,.23,0,3.94,3.94,0,0,1,3.29,3.88,0.77,0.77,0,0,1-.09.36,0.78,0.78,0,0,1-1,.35,5.25,5.25,0,0,0-1.71-.36c-0.91,0-1.13.21-2.22,0.19h0a5.5,5.5,0,0,1-1.14-.1q0.12,0.25.21,0.51a5.75,5.75,0,0,0,.85.06h0.2A6,6,0,0,0,56.56,54a4,4,0,0,1,.77-0.08h0.16a4.81,4.81,0,0,1,1.55.33,1.29,1.29,0,0,0,.47.09,1.23,1.23,0,0,0,1.24-1.23,4.41,4.41,0,0,0-3.34-4.28,3,3,0,0,0,.65-1.15H57.59a2.67,2.67,0,0,1-5.1-.45l-0.38.38A3.06,3.06,0,0,0,52.86,48.9Z" transform="translate(-41.24 -42.07)"/></svg>