<svg id="Layer_1" data-name="Layer 1" xmlns="http://www.w3.org/2000/svg" viewBox="0 0 10.63 14.55"><defs><style>.cls-1,.cls-2{fill:#fff;}.cls-2{opacity:0.93;}</style></defs><title>Untitled-1</title><path class="cls-1" d="M46.69,45.35a1.56,1.56,0,1,0-1.56-1.56A1.56,1.56,0,0,0,46.69,45.35Zm0-2.71a1.15,1.15,0,1,1-1.15,1.15A1.15,1.15,0,0,1,46.69,42.64Z" transform="translate(-45.13 -42.23)"/><path class="cls-1" d="M50.45,45.35a1.56,1.56,0,1,0-1.56-1.56A1.56,1.56,0,0,0,50.45,45.35Zm0-2.71a1.15,1.15,0,1,1-1.15,1.15A1.15,1.15,0,0,1,50.45,42.64Z" transform="translate(-45.13 -42.23)"/><path class="cls-2" d="M55.72,44.14l-1.16,1.16A1.56,1.56,0,0,0,55.72,44.14Z" transform="translate(-45.13 -42.23)"/><path class="cls-1" d="M54.2,42.23a1.56,1.56,0,1,0,.35,3.08l1.16-1.16A1.55,1.55,0,0,0,54.2,42.23Zm0,2.71a1.15,1.15,0,1,1,1.15-1.15A1.15,1.15,0,0,1,54.2,44.94Z" transform="translate(-45.13 -42.23)"/><path class="cls-1" d="M46.69,49.11a1.56,1.56,0,1,0-1.56-1.56A1.56,1.56,0,0,0,46.69,49.11Zm0-2.71a1.15,1.15,0,1,1-1.15,1.15A1.15,1.15,0,0,1,46.69,46.4Z" transform="translate(-45.13 -42.23)"/><path class="cls-1" d="M50.45,46a1.56,1.56,0,1,0,.34,3.08L52,47.89A1.55,1.55,0,0,0,50.45,46Zm0,2.71a1.15,1.15,0,1,1,1.15-1.15A1.15,1.15,0,0,1,50.45,48.7Z" transform="translate(-45.13 -42.23)"/><path class="cls-1" d="M52,47.89l-1.18,1.18A1.56,1.56,0,0,0,52,47.89Z" transform="translate(-45.13 -42.23)"/><path class="cls-2" d="M52.64,47.55A1.56,1.56,0,1,0,54.2,46a1.55,1.55,0,0,0-.38.05l-1.13,1.13A1.55,1.55,0,0,0,52.64,47.55ZM54.2,46.4A1.15,1.15,0,1,1,53,47.55,1.15,1.15,0,0,1,54.2,46.4Z" transform="translate(-45.13 -42.23)"/><path class="cls-1" d="M52.69,47.17L53.82,46A1.56,1.56,0,0,0,52.69,47.17Z" transform="translate(-45.13 -42.23)"/><path class="cls-1" d="M46.69,49.75A1.56,1.56,0,1,0,47,52.83l1.19-1.19A1.56,1.56,0,0,0,46.69,49.75Zm0,2.71a1.15,1.15,0,1,1,1.15-1.15A1.15,1.15,0,0,1,46.69,52.46Z" transform="translate(-45.13 -42.23)"/><path class="cls-2" d="M48.22,51.64L47,52.83A1.57,1.57,0,0,0,48.22,51.64Z" transform="translate(-45.13 -42.23)"/><path class="cls-1" d="M48.94,50.92l1.12-1.12A1.56,1.56,0,0,0,48.94,50.92Z" transform="translate(-45.13 -42.23)"/><path class="cls-2" d="M48.88,51.31a1.56,1.56,0,1,0,1.56-1.56,1.54,1.54,0,0,0-.39.05l-1.12,1.12A1.54,1.54,0,0,0,48.88,51.31Zm1.56-1.15a1.15,1.15,0,1,1-1.15,1.15A1.15,1.15,0,0,1,50.45,50.16Z" transform="translate(-45.13 -42.23)"/><path class="cls-2" d="M50.45,53.66A1.56,1.56,0,1,0,52,55.22,1.56,1.56,0,0,0,50.45,53.66Zm0,2.71a1.15,1.15,0,1,1,1.15-1.15A1.15,1.15,0,0,1,50.45,56.37Z" transform="translate(-45.13 -42.23)"/><path class="cls-2" d="M54.2,49.75a1.56,1.56,0,1,0,1.56,1.56A1.56,1.56,0,0,0,54.2,49.75Zm0,2.71a1.15,1.15,0,1,1,1.15-1.15A1.15,1.15,0,0,1,54.2,52.46Z" transform="translate(-45.13 -42.23)"/></svg>