<svg id="Layer_1" data-name="Layer 1" xmlns="http://www.w3.org/2000/svg" viewBox="0 0 17.71 17.71"><defs><style>.cls-1{fill:none;}.cls-2,.cls-3{fill:#fff;}.cls-2{opacity:0.93;}</style></defs><title>Expression</title><path class="cls-1" d="M50.26,56.15a4.61,4.61,0,0,0,4.59-4.27,0.7,0.7,0,0,0-.7-0.74H49.33L46.42,54A4.59,4.59,0,0,0,50.26,56.15Z" transform="translate(-41.41 -41.34)"/><path class="cls-1" d="M45.86,51.36a0.7,0.7,0,0,0-.18.52A4.53,4.53,0,0,0,46.42,54l2.91-2.91h-3A0.7,0.7,0,0,0,45.86,51.36Z" transform="translate(-41.41 -41.34)"/><circle class="cls-1" cx="5.52" cy="5.6" r="1.6"/><path class="cls-1" d="M53.51,45.34a1.6,1.6,0,0,0-1.13,2.74l2.27-2.27A1.6,1.6,0,0,0,53.51,45.34Z" transform="translate(-41.41 -41.34)"/><path class="cls-1" d="M53.51,48.55a1.6,1.6,0,0,0,1.14-2.73l-2.27,2.27A1.6,1.6,0,0,0,53.51,48.55Z" transform="translate(-41.41 -41.34)"/><path class="cls-2" d="M54.65,45.81a1.6,1.6,0,0,1-2.27,2.27l-3.05,3.05h4.83a0.7,0.7,0,0,1,.7.74A4.58,4.58,0,0,1,46.42,54L43,57.42A5.56,5.56,0,0,0,47,59.06h6.56a5.58,5.58,0,0,0,5.58-5.58V46.92A5.56,5.56,0,0,0,57.48,43Z" transform="translate(-41.41 -41.34)"/><path class="cls-3" d="M45.67,51.88a0.7,0.7,0,0,1,.7-0.74h3l3.05-3.05a1.6,1.6,0,1,1,2.27-2.27L57.48,43a5.56,5.56,0,0,0-3.94-1.64H47a5.58,5.58,0,0,0-5.58,5.58v6.56A5.56,5.56,0,0,0,43,57.42L46.42,54A4.53,4.53,0,0,1,45.67,51.88Zm1.26-6.54a1.6,1.6,0,1,1-1.6,1.6A1.6,1.6,0,0,1,46.93,45.34Z" transform="translate(-41.41 -41.34)"/></svg>