<svg id="Layer_1" data-name="Layer 1" xmlns="http://www.w3.org/2000/svg" viewBox="0 0 10.53 12.95"><defs><style>.cls-1{opacity:0.5;}.cls-2,.cls-3{fill:#fff;}.cls-3{opacity:0.93;}</style></defs><title>Mute</title><g class="cls-1"><g id="UDKFDs"><path class="cls-2" d="M50.5,43a2.78,2.78,0,0,1,1.34.62,3.43,3.43,0,0,1,.36.38c0.43,0.54.42,0.6-.06,1.08l-4.2,4.19-0.25.23a1.65,1.65,0,0,1,0-.18c0-1.36,0-2.71,0-4.07a2.42,2.42,0,0,1,2.05-2.21l0.13,0H50.5Z" transform="translate(-45.12 -43.03)"/><path class="cls-3" d="M48.31,53a4.22,4.22,0,0,0,4.41-.37,4.26,4.26,0,0,0,1.3-3.1c0-.31,0-0.61,0-0.92a0.43,0.43,0,0,1,.35-0.52,0.34,0.34,0,0,1,.36.42,7.22,7.22,0,0,1-.14,2.22A4.45,4.45,0,0,1,51,54l-0.29.06v1c0.67,0,1.32,0,2,0a0.39,0.39,0,0,1,.45.38,0.48,0.48,0,0,1-.45.44c-1.66,0-3.33,0-5,0a0.4,0.4,0,0,1-.49-0.42,0.42,0.42,0,0,1,.5-0.41h2v-1a3.68,3.68,0,0,1-1.92-.66L46,55.31c-0.31.31-.33,0.31-0.65,0a0.48,0.48,0,0,0-.07-0.08,0.29,0.29,0,0,1,0-.49l2-1.95,7.56-7.55c0.32-.32.35-0.32,0.67,0,0.13,0.12-.11-0.1,0,0s0.26,0.33,0,.59L53.8,47.5c-0.31.31-.63,0.61-0.92,0.93a0.59,0.59,0,0,0-.14.34c0,0.39,0,.78-0.05,1.17a2.48,2.48,0,0,1-3,2.1,0.51,0.51,0,0,0-.59.18C48.93,52.38,48.5,52.84,48.31,53Z" transform="translate(-45.12 -43.03)"/><path class="cls-2" d="M46,51.29a4.15,4.15,0,0,1-.35-1.57c0-.36,0-0.72,0-1.09a0.51,0.51,0,0,1,.44-0.6c0.3,0,.34.22,0.35,0.55a6,6,0,0,0,.27,2C46.85,50.83,46.26,51,46,51.29Z" transform="translate(-45.12 -43.03)"/></g></g></svg>