<svg id="Layer_1" data-name="Layer 1" xmlns="http://www.w3.org/2000/svg" viewBox="0 0 15.41 16.73"><defs><style>.cls-1,.cls-2{fill:#fff;}.cls-1{opacity:0.93;}</style></defs><title>Nest</title><path class="cls-1" d="M57.53,52.37A1.58,1.58,0,0,0,57,50.61a4,4,0,0,0-.88-0.44,1.4,1.4,0,0,0-1.05.16,2.12,2.12,0,0,1,.26,0,7.18,7.18,0,0,1,1.11.38,1.42,1.42,0,0,1,.79,1.48,2.86,2.86,0,0,1-.54,1.38,6.76,6.76,0,0,1-2.44,2.15c-0.43.23-.88,0.42-1.32,0.62h0l-1.09.32a1.63,1.63,0,0,1-.57.06c-0.1,0-.12.09,0,0.1a3.78,3.78,0,0,0,1.28-.07h0a9.4,9.4,0,0,0,4-2.53A3.65,3.65,0,0,0,57.53,52.37Z" transform="translate(-42.67 -41.83)"/><path class="cls-1" d="M57.23,53.7a1.75,1.75,0,0,0-.51.66,4.25,4.25,0,0,0-.38.6,5.6,5.6,0,0,1-1.76,2.14,7.52,7.52,0,0,0-.62.55A3,3,0,0,0,55.31,57a6.49,6.49,0,0,0,1.61-2A2.17,2.17,0,0,0,57.23,53.7Z" transform="translate(-42.67 -41.83)"/><path class="cls-1" d="M53.27,57.36a0,0,0,0,0,0,0,4.92,4.92,0,0,1-4.93-.75c-0.12-.06,0,0.21.13,0.31a5.7,5.7,0,0,0,2.77,1.27A2,2,0,0,0,53.27,57.36Z" transform="translate(-42.67 -41.83)"/><path class="cls-1" d="M51.67,55.1a1.37,1.37,0,0,0,.28,0c0.53,0,1.06-.07,1.58-0.17a4.8,4.8,0,0,0,2.29-1,4.24,4.24,0,0,0,1-1.38,2,2,0,0,0-.64.63,4.67,4.67,0,0,1-.7.58,5,5,0,0,1-2,1C52.87,54.87,52.27,55,51.67,55.1Z" transform="translate(-42.67 -41.83)"/><path class="cls-1" d="M46,54.62l0,0,0.05,0Z" transform="translate(-42.67 -41.83)"/><path class="cls-2" d="M43.8,51.06H43.72a4.15,4.15,0,0,0,0,.61A5.48,5.48,0,0,0,44.81,54a1.94,1.94,0,0,0,1.12.63l0,0A6.94,6.94,0,0,1,43.8,51.06Z" transform="translate(-42.67 -41.83)"/><path class="cls-1" d="M46.75,55.64a0.41,0.41,0,0,1-.12,0,10.24,10.24,0,0,1-1.37-.3L45,55.53a7.17,7.17,0,0,0,2.82.48A1.56,1.56,0,0,0,46.75,55.64Z" transform="translate(-42.67 -41.83)"/><path class="cls-2" d="M42.94,54.3a2.25,2.25,0,0,0-.27-0.12A5.41,5.41,0,0,0,45,55.53l0.21-.21A8.69,8.69,0,0,1,42.94,54.3Z" transform="translate(-42.67 -41.83)"/><path class="cls-1" d="M57.48,53.23a0.65,0.65,0,0,0,0,.18,4.73,4.73,0,0,1-.82,2.71l-0.11.2c0.95-.32,1.7-2.91,1.23-4.07Z" transform="translate(-42.67 -41.83)"/><path class="cls-2" d="M45.12,52.94h0a2.89,2.89,0,0,0,.32.59q0.38,0.43.79,0.84l0.18-.18C46,53.78,45.54,53.36,45.12,52.94Z" transform="translate(-42.67 -41.83)"/><path class="cls-1" d="M48.28,55.82a0.41,0.41,0,0,0,.56-0.22,4.46,4.46,0,0,1-2.07-1l-0.39-.37-0.18.18c0.12,0.12.25,0.25,0.38,0.37A5.59,5.59,0,0,0,48.28,55.82Z" transform="translate(-42.67 -41.83)"/><path class="cls-1" d="M55,49.58H54.94a0.82,0.82,0,0,0-.64.44,2.25,2.25,0,0,0,.3.05h0.05a3.35,3.35,0,0,1,3.26.71L58,50.87l0.06-.07a7,7,0,0,0-.68-0.61A4.08,4.08,0,0,0,55,49.58Z" transform="translate(-42.67 -41.83)"/><path class="cls-1" d="M53.09,55.68c-0.21.09-.43,0.16-0.65,0.23h0a3.78,3.78,0,0,1-1.92,0A0.35,0.35,0,0,0,50,56c-0.2.29,2.39,0.37,2.82,0.18a6.88,6.88,0,0,0,1.77-1,1.7,1.7,0,0,0,.55-0.56,10.67,10.67,0,0,0-1.7.85Z" transform="translate(-42.67 -41.83)"/><path class="cls-1" d="M53.23,57A0.85,0.85,0,0,0,53,57l-0.5.07a4.28,4.28,0,0,1-2.85-.58s-0.26-.14-0.21,0C50.17,57.74,53.54,57.17,53.23,57Z" transform="translate(-42.67 -41.83)"/><path class="cls-2" d="M44.79,53c0.1-.4.17-0.81,0.3-1.19A4.91,4.91,0,0,1,46.27,50c0.11-.11.1-0.11,0-0.21a5.63,5.63,0,0,0-1.68,2.44A0.74,0.74,0,0,0,44.79,53Z" transform="translate(-42.67 -41.83)"/><path class="cls-2" d="M44.12,54.73L45,55.1a7.11,7.11,0,0,1-.78-0.78A2.55,2.55,0,0,1,43.65,52a0.33,0.33,0,0,0-.25.33,3,3,0,0,0,.6,2.33A0.28,0.28,0,0,0,44.12,54.73Z" transform="translate(-42.67 -41.83)"/><path class="cls-1" d="M56.74,52.19a0.78,0.78,0,0,0,0-1,5.73,5.73,0,0,1-2.31,2.68,2.61,2.61,0,0,0,.69-0.28A4,4,0,0,0,56.74,52.19Z" transform="translate(-42.67 -41.83)"/><path class="cls-2" d="M47.86,50.48l-0.15-.21-0.45.24A1.35,1.35,0,0,0,47.86,50.48Z" transform="translate(-42.67 -41.83)"/><path class="cls-2" d="M45.68,50.13a3.31,3.31,0,0,0-1.48,1.5,0.38,0.38,0,0,0,.06.46A10,10,0,0,1,45.68,50.13Z" transform="translate(-42.67 -41.83)"/><path class="cls-2" d="M46.57,50a0.64,0.64,0,0,0,.18,0c0.14,0,.28-0.1.42-0.13l0.25-.05-0.15-.22a3.56,3.56,0,0,0-.71.32S46.57,50,46.57,50Z" transform="translate(-42.67 -41.83)"/><path class="cls-1" d="M46.8,55.15a9.48,9.48,0,0,1-1.05-.32L45.56,55A1.88,1.88,0,0,0,46.8,55.15Z" transform="translate(-42.67 -41.83)"/><path class="cls-2" d="M44.49,54.14a2,2,0,0,0,1.06.87l0.19-.19A4.66,4.66,0,0,1,44.49,54.14Z" transform="translate(-42.67 -41.83)"/><path class="cls-1" d="M55.25,49.13a0.43,0.43,0,0,0-.36.26h0.17l1.48,0.09,0-.07a1.38,1.38,0,0,0-.31-0.15c-0.29-.06-0.59-0.09-0.88-0.14H55.25Z" transform="translate(-42.67 -41.83)"/><path class="cls-2" d="M47.1,49.38L47,49.25l-0.57.39a0.38,0.38,0,0,0-.07.14,0.53,0.53,0,0,0,.17,0Z" transform="translate(-42.67 -41.83)"/><path class="cls-1" d="M48,54.16c0.34,0.09.68,0.17,1,.23s0.65,0.11,1,.16l0.44,0.06,0.42,0,0.73,0.06,0.56,0h0.49l-0.13,0-0.36-.06-0.55-.09-0.72-.13L50,54.3l-0.93-.2L48.56,54l-0.25-.07-0.25-.07a9.44,9.44,0,0,1-1-.34h0l-0.25.25L47,53.81A8.44,8.44,0,0,0,48,54.16Z" transform="translate(-42.67 -41.83)"/><path class="cls-2" d="M46.62,53.28A3.19,3.19,0,0,1,46.19,53a1.66,1.66,0,0,1-.33-0.33,0.85,0.85,0,0,1-.16-0.4,0.78,0.78,0,0,1,0-.21l0-.1s0-.07,0-0.1a1.67,1.67,0,0,1,.2-0.38,3.75,3.75,0,0,1,.56-0.61c0.2-.17.39-0.32,0.56-0.45l0.46-.32,0,0,0-.05,0,0-0.5.27a6,6,0,0,0-.61.41L46.07,51a3,3,0,0,0-.31.34,1.91,1.91,0,0,0-.26.43,1.12,1.12,0,0,0,.1,1.09,1.76,1.76,0,0,0,.39.41,3,3,0,0,0,.46.3l0.37,0.17,0.25-.25A4.86,4.86,0,0,1,46.62,53.28Z" transform="translate(-42.67 -41.83)"/><path class="cls-1" d="M51.12,55.23l-0.26,0-0.54-.05-0.28,0-0.28,0-0.14,0L49.5,55l-0.27,0L49,54.93l-0.13,0-0.13,0-0.25-.07-0.23-.07L48,54.66l-0.2-.07-0.35-.15-0.14-.07-0.12-.06-0.1-.05-0.07,0-0.06,0,0,0.05,0.13,0.15a2.81,2.81,0,0,0,.23.21,3.37,3.37,0,0,0,.33.24l0.2,0.12,0.22,0.11,0.24,0.1,0.25,0.09c0.17,0.06.36,0.11,0.54,0.15l0.28,0.05,0.14,0,0.14,0,0.57,0.05,0.56,0,0.52,0,0.46,0,0.39-.05,0.3-.06,0.26-.06H52.51l-0.69,0-0.45,0Z" transform="translate(-42.67 -41.83)"/><path class="cls-1" d="M54.17,50.71l-0.1.15,0.08,0L54.4,51l0.27,0.13,0.13,0.07,0.13,0.07,0.24,0.15,0.11,0.08,0.1,0.08,0.1,0.08,0.09,0.08,0.14,0.15L55.82,52l0.06,0.08,0,0v0l0-.1a1.33,1.33,0,0,0-.07-0.15,1.35,1.35,0,0,0-.12-0.18l-0.08-.1-0.09-.1-0.1-.09-0.11-.09L55,51.13,54.91,51,54.77,51l-0.28-.13-0.28-.11h0Z" transform="translate(-42.67 -41.83)"/><path class="cls-1" d="M54.89,50.56l-0.1,0-0.21-.09-0.17-.07-0.09.14,0.41,0.16,0.1,0,0.09,0,0.09,0,0.09,0,0.09,0,0.08,0.05L55.43,51l0.14,0.1,0.12,0.1,0.1,0.09,0.08,0.08L56,51.56l-0.13-.18-0.16-.19-0.11-.11L55.48,51l-0.15-.12-0.08-.06-0.09-.06-0.09-.06L55,50.62Z" transform="translate(-42.67 -41.83)"/><path class="cls-1" d="M54.32,57a1.93,1.93,0,0,0,.16-0.22,1.68,1.68,0,0,0,.11-0.2,0.37,0.37,0,0,0,0-.19,0.44,0.44,0,0,0,0-.15V56.21H54.45l-0.14,0a0.41,0.41,0,0,0-.14.11l-0.11.18-0.12.22L53.8,57l-0.07.14-0.08.13a2.32,2.32,0,0,1-.19.25,1.52,1.52,0,0,1-.23.21l-0.12.09L53,57.9l-0.06,0L52.86,58l-0.11.08-0.05,0-0.05,0-0.1.07-0.18.12-0.08,0-0.07,0-0.13.08v0h0.16l0.18,0,0.22-.07,0.12,0,0.13-.06L53,58.27l0.13-.09,0.06-.05,0.06-.06L53.39,58l0.24-.24,0.24-.23,0.24-.23Z" transform="translate(-42.67 -41.83)"/><path class="cls-1" d="M51.48,51.72l2.86-3.18a0.76,0.76,0,0,0-.57-1.27H53.31L49.67,50.9l0.66,0.79A0.76,0.76,0,0,0,51.48,51.72Z" transform="translate(-42.67 -41.83)"/><path class="cls-2" d="M52.89,47.26A0.25,0.25,0,0,1,52.63,47l-0.4-4.5a0.76,0.76,0,0,0-.76-0.7h-1a0.76,0.76,0,0,0-.76.7L49.28,47a0.26,0.26,0,0,1-.25.23H48.26a0.76,0.76,0,0,0-.59,1.25l2,2.39,3.64-3.64H52.89Z" transform="translate(-42.67 -41.83)"/></svg>