<svg id="Layer_1" data-name="Layer 1" xmlns="http://www.w3.org/2000/svg" viewBox="0 0 11.05 6.12"><defs><style>.cls-1,.cls-2{fill:#fff;}.cls-2{opacity:0.93;}</style></defs><title>Phone</title><path class="cls-1" d="M48.94,47.57A5.1,5.1,0,0,0,45.63,49a4,4,0,0,0-.85,1.52h0a2.77,2.77,0,0,0,0,1.37h0a0.14,0.14,0,0,0,.14.1H45A6.93,6.93,0,0,0,47.71,51a0.19,0.19,0,0,0,.06-0.25,0.79,0.79,0,0,0-.51-0.44,0.08,0.08,0,0,1,0-.06,0.07,0.07,0,0,1,0,0c0.34-.66,2.51-0.83,2.51-0.83a10,10,0,0,1,1.44,0l1.6-1.6A7.85,7.85,0,0,0,48.94,47.57Z" transform="translate(-44.69 -47.45)"/><path class="cls-2" d="M53,50a0.07,0.07,0,0,1,0,0,0.06,0.06,0,0,1,0,0c-0.05.07-.12,0-0.31,0.2l0,0h0a0.87,0.87,0,0,0-.18.28,0.19,0.19,0,0,0,.08.24,6.51,6.51,0,0,0,2.81.71,0.19,0.19,0,0,0,.18-0.16,2.07,2.07,0,0,0,0-.46,2,2,0,0,0-.22-1,3.87,3.87,0,0,0-1.75-1.71,5.83,5.83,0,0,0-.84-0.37l-1.6,1.6A3.15,3.15,0,0,1,53,50Zm0,0.1,0,0Z" transform="translate(-44.69 -47.45)"/><path class="cls-1" d="M48.16,51.47a0.2,0.2,0,0,0-.16,0,6.57,6.57,0,0,1-3.14,1,0.2,0.2,0,0,0-.15.25l0.22,0.69a0.19,0.19,0,0,0,.09.11,0.2,0.2,0,0,0,.14,0,8.79,8.79,0,0,0,1.55-.33,8.48,8.48,0,0,0,1.13-.45l0.61-.61-0.19-.58A0.19,0.19,0,0,0,48.16,51.47Z" transform="translate(-44.69 -47.45)"/><path class="cls-2" d="M55.57,52.09a8.09,8.09,0,0,1-3.2-.84,0.2,0.2,0,0,0-.26.13l-0.28.86a0.19,0.19,0,0,0,0,.14,0.2,0.2,0,0,0,.1.09,7.31,7.31,0,0,0,3.28.86,0.2,0.2,0,0,0,.22-0.14l0.28-.86a0.19,0.19,0,0,0,0-.16A0.2,0.2,0,0,0,55.57,52.09Z" transform="translate(-44.69 -47.45)"/></svg>