<svg id="Layer_1" data-name="Layer 1" xmlns="http://www.w3.org/2000/svg" viewBox="0 0 14.78 17.44"><defs><style>.cls-1{fill:none;}.cls-2,.cls-3{fill:#fff;}.cls-2{opacity:0.93;}</style></defs><title>Share</title><path class="cls-1" d="M53.76,45.7l-6.38,4a2.36,2.36,0,0,1,0,.45,2.3,2.3,0,0,1,0,.47l1.42,0.9L54.32,46A2.35,2.35,0,0,1,53.76,45.7Z" transform="translate(-42.73 -41.48)"/><path class="cls-2" d="M55.17,46.17A2.33,2.33,0,0,0,57.35,43l-3,3A2.33,2.33,0,0,0,55.17,46.17Z" transform="translate(-42.73 -41.48)"/><path class="cls-2" d="M52.87,56.11a2.3,2.3,0,0,0,0,.47,2.35,2.35,0,1,0,.95-1.88l-5-3.16-1.22,1.22Z" transform="translate(-42.73 -41.48)"/><path class="cls-3" d="M47.43,50.16a2.36,2.36,0,0,0,0-.45l6.38-4a2.35,2.35,0,0,0,.56.3l3-3a2.34,2.34,0,0,0-4.48,1.3l-6.38,4a2.35,2.35,0,1,0,0,3.76l1.1,0.7,1.22-1.22-1.42-.9A2.3,2.3,0,0,0,47.43,50.16Z" transform="translate(-42.73 -41.48)"/></svg>